<?xml version="1.0" encoding="utf-8"?>
<!-- Generator: Adobe Illustrator 17.0.0, SVG Export Plug-In . SVG Version: 6.00 Build 0)  -->
<!DOCTYPE svg PUBLIC "-//W3C//DTD SVG 1.1//EN" "http://www.w3.org/Graphics/SVG/1.1/DTD/svg11.dtd">
<svg version="1.1" id="Layer_1" xmlns="http://www.w3.org/2000/svg" xmlns:xlink="http://www.w3.org/1999/xlink" x="0px" y="0px"
	 width="419.624px" height="415.887px" viewBox="0 0 419.624 415.887" enable-background="new 0 0 419.624 415.887"
	 xml:space="preserve">
<path fill="#410C00" d="M300.156,88.852c9.283,0,16.8-7.522,16.8-16.8V16.8c0-9.278-7.517-16.8-16.8-16.8
	c-9.274,0-16.8,7.522-16.8,16.8v55.252C283.356,81.33,290.882,88.852,300.156,88.852z M119.468,88.852c9.274,0,16.8-7.522,16.8-16.8
	V16.8c0-9.278-7.526-16.8-16.8-16.8c-9.283,0-16.8,7.522-16.8,16.8v55.252C102.668,81.33,110.186,88.852,119.468,88.852z
	 M397.224,41.059h-60.108v30.993c0,20.38-16.581,36.96-36.96,36.96s-36.96-16.58-36.96-36.96V41.059H156.428v30.993
	c0,20.38-16.58,36.96-36.96,36.96s-36.96-16.58-36.96-36.96V41.059H22.4c-12.374,0-22.4,10.026-22.4,22.4v91.84h419.624v-91.84
	C419.624,51.085,409.598,41.059,397.224,41.059z M0,393.487c0,12.374,10.026,22.4,22.4,22.4h374.824c12.374,0,22.4-10.026,22.4-22.4
	V173.219H0V393.487z M310.106,226.419h57.308v57.308h-57.308V226.419z M310.106,308.179h57.308v57.308h-57.308V308.179z
	 M224.139,226.419h57.308v57.308h-57.308L224.139,226.419L224.139,226.419z M224.139,308.179h57.308v57.308h-57.308L224.139,308.179
	L224.139,308.179z M138.177,226.419h57.308v57.308h-57.308V226.419z M138.177,308.179h57.308v57.308h-57.308V308.179z
	 M52.21,226.419h57.308v57.308H52.21V226.419z M52.21,308.179h57.308v57.308H52.21V308.179z"/>
</svg>
