<?xml version="1.0" encoding="utf-8"?>
<!-- Generator: Adobe Illustrator 17.0.0, SVG Export Plug-In . SVG Version: 6.00 Build 0)  -->
<!DOCTYPE svg PUBLIC "-//W3C//DTD SVG 1.1//EN" "http://www.w3.org/Graphics/SVG/1.1/DTD/svg11.dtd">
<svg version="1.1" id="Layer_1" xmlns="http://www.w3.org/2000/svg" xmlns:xlink="http://www.w3.org/1999/xlink" x="0px" y="0px"
	 width="384.595px" height="397.378px" viewBox="0 0 384.595 397.378" enable-background="new 0 0 384.595 397.378"
	 xml:space="preserve">
<path fill="#410C00" d="M252.727,286.493c12.741,11.742,27.243,23.529,51.901,27.283c5.73,0.878,11.312,1.331,16.598,1.331
	c0.004,0,0,0,0.004,0c18.91,0,34.756-5.797,45.821-16.746c8.122-8.028,17.759-22.207,17.539-44.146l-0.009-0.323
	c-2.097-29.25-18.476-42.569-32.502-50.306c14.116-7.831,32.834-22.956,32.511-54.356l-0.009-0.287
	c-1.756-27.404-17.553-47.327-43.366-54.665c-6.456-1.832-13.359-2.764-20.5-2.764c-22.113,0-42.341,8.848-53.899,17.132
	c-14.744,10.564-26.983,24.828-38.824,38.622c-0.847,0.99-1.68,1.953-2.518,2.925c5.909-11.411,11.666-23.52,16.446-36.279
	c5.743-16.352,10.824-34.335,4.507-58.464c-6.774-25.975-20.218-43.68-38.886-51.211c-15.035-6.066-31.638-5.636-47.479,1.375
	l-0.296,0.139c-26.074,13.53-31.79,33.887-33.322,49.84c-10.076-7.728-22.207-14.13-37.484-14.13
	c-8.207,0-16.715,1.935-25.299,5.743l-0.255,0.121C38.942,59.79,26.908,82.19,30.385,108.797
	c3.642,27.718,24.053,51.426,42.659,62.626c15.541,9.35,33.479,14.941,50.826,20.348c0.784,0.242,1.546,0.484,2.33,0.73
	c-10.304-0.981-20.975-1.658-31.777-1.662c-1.693,0-3.387,0.018-5.192,0.058c-17.315,0.699-35.907,2.625-55.996,17.405
	C11.596,224.188,0.1,243.215,0.001,263.348c-0.067,11.424,3.149,28.26,18.807,43.613l0.242,0.224
	c12.154,10.537,24.833,15.658,38.756,15.658c0,0,0,0,0.004,0c7.025,0,13.588-1.308,19.797-3.091
	c-4.449,15.519-7.011,39.469,15.443,61.457l0.206,0.193c11.872,10.452,25.635,15.976,39.796,15.976c9.95,0,20.16-2.76,29.523-7.983
	c24.407-13.615,38.909-41.337,42.444-62.769c2.961-17.898,1.528-36.642,0.139-54.772c-0.22-2.872-0.435-5.721-0.632-8.53
	c32.48,65.784,84.345,126.09,165.312,126.09c5.869,0,10.622-4.753,10.622-10.622c0-5.864-4.758-10.613-10.622-10.613
	c-70.202,0-116.364-54.024-145.94-113.626C232.576,265.285,242.083,276.266,252.727,286.493z"/>
</svg>
