<?xml version="1.0" encoding="utf-8"?>
<!-- Generator: Adobe Illustrator 17.0.0, SVG Export Plug-In . SVG Version: 6.00 Build 0)  -->
<!DOCTYPE svg PUBLIC "-//W3C//DTD SVG 1.1//EN" "http://www.w3.org/Graphics/SVG/1.1/DTD/svg11.dtd">
<svg version="1.1" id="Layer_1" xmlns="http://www.w3.org/2000/svg" xmlns:xlink="http://www.w3.org/1999/xlink" x="0px" y="0px"
	 width="295.749px" height="383.316px" viewBox="0 0 295.749 383.316" enable-background="new 0 0 295.749 383.316"
	 xml:space="preserve">
<g>
	<g>
		<path fill="#F28106" d="M238.678,26.188c-1.595,3.145-2.393,7.312-1.994,10.815c0.255,2.231,3.015,6.98,5.851,6.608
			c7.015-0.923,9.945,3.329,11.894,8.369c1.801,4.672,2.048,9.927,3.692,14.685c1.107,3.199,2.76,6.953,5.354,8.781
			c4.677,3.288,9.242,6.975,13.234,11.079c6.734,6.917,11.913,15.559,15.398,24.541c1.814,4.678,2.957,9.547,3.306,14.556
			c0.368,5.376,0.762,12.553-0.748,17.768c-1.622,5.609-5.233,10.237-8.436,15.008c-3.386,5.044-6.581,10.241-10.765,14.685
			c-1.443,1.528-5.905,2.469-7.334,2.079c-5.264-1.447-8.239,0.574-8.512,4.861c-0.408,6.375-1.738,9.842-6.662,9.838
			c-4.211-0.004-8.417-1.581-14.125-2.773c5.922,37.404,11.782,74.4,17.651,111.436c2.527,3.898,8.866,12.858,10.806,19.327
			c3.628,12.104,8.359,23.882,12.109,35.956c3.678,11.836-0.533,19.412-11.939,22.893c-0.722,0.219-1.479,0.434-2.106,0.833
			c-16.137,10.255-31.678,5.219-46.767-2.352c-3.656-1.837-8.162-5.945-8.597-9.462c-1.12-9.058-1.349-18.583,0.237-27.534
			c1.564-8.83,3.159-17.669,5.457-26.342c1.08-4.064,2.253-8.14,3.817-12.047c1.254-3.118,3.463-7.02,2.298-10.479
			c-1.931-5.712-10.572-1.366-14.143-0.336c-4.646,1.344-9.18,3.046-13.866,4.256c-13.247,3.409-23.672-1.662-27.144-14.986
			c-3.217-12.364-5.009-25.226-6.111-37.99c-1.689-19.399-4.619-35.814-5.685-55.978c0-0.004-9.43-0.52-9.914-0.551
			c-39.814-2.777-77.316-16.88-108.537-41.852c-9.216-7.374-35.684-26.405-36.387-39.487c-0.237-4.377,3.615-6.317,7.271-7.271
			c6.876-1.796,14.282-1.523,21.311-1.375c10.927,0.233,21.84,0.69,32.758,1.004c-3.06-7.934-6.85-15.649-8.938-23.928
			c-1.308-5.197-4.991-21.477,2.204-24.434c3.419-1.402,6.783,3.333,8.956,5.291c3.714,3.342,7.522,6.586,11.411,9.726
			c12.826,10.354,25.657,20.711,38.734,30.742c3.611,2.76,8.391,6.528,12.15,6.044c8.866-1.147,17.857-3.656,26.024-7.325
			c8.66-3.893,16.384-9.838,24.6-14.757c2.747-1.649,5.412-3.45,7.948-5.412c8.387-6.483,15.255-14.816,19.412-24.609
			c2.097-4.933,3.494-10.143,4.265-15.443c0.77-5.317,0.466-10.805,1.514-16.065c0.435-2.168,0.856-4.211,2.361-5.972
			c3.029-3.548,9.31-5.663,13.718-6.989c7.589-2.28,16.038-2.356,23.3,1.08c4.328,2.048,7.984,6.017,3.974,10.564
			C248.776,18.031,241.635,20.356,238.678,26.188z M250.585,361.387c5.47,2.168,8.266,0.071,7.137-5.309
			c-2.272-10.819-5.233-21.495-8.212-32.148c-0.318-1.138-2.554-2.159-4.05-2.446c-3.942-0.766-7.97-1.089-12.369-1.64
			C223.356,341.827,230.869,353.56,250.585,361.387z"/>
	</g>
</g>
</svg>
