<?xml version="1.0" encoding="utf-8"?>
<!-- Generator: Adobe Illustrator 17.0.0, SVG Export Plug-In . SVG Version: 6.00 Build 0)  -->
<!DOCTYPE svg PUBLIC "-//W3C//DTD SVG 1.1//EN" "http://www.w3.org/Graphics/SVG/1.1/DTD/svg11.dtd">
<svg version="1.1" id="Layer_1" xmlns="http://www.w3.org/2000/svg" xmlns:xlink="http://www.w3.org/1999/xlink" x="0px" y="0px"
	 width="833.537px" height="560px" viewBox="0 0 833.537 560" enable-background="new 0 0 833.537 560" xml:space="preserve">
<path fill="#F28106" d="M4.677,296.908c423.496,548.014,765.755,81.237,825.018-8.656c5.327-8.656,5.327-19.31-1.332-27.301
	C403.535-288.395,59.944,185.041,3.345,271.605C-1.316,279.595-1.316,289.583,4.677,296.908z M432.168,515.98
	c-143.163,9.322-261.023-109.203-252.366-252.366c7.99-117.86,103.876-213.746,221.736-221.07
	c143.163-9.322,261.023,109.203,252.366,252.366C646.58,412.77,550.694,508.656,432.168,515.98z"/>
<path fill="#F28106" d="M416.853,139.096c-16.647,0-32.628,3.329-47.943,8.656c22.64,7.325,39.287,28.633,39.287,53.27
	c0,30.63-25.303,55.933-55.933,55.933c-28.633,0-52.604-21.974-55.933-49.941c-12.652,20.642-19.976,45.279-19.976,71.249
	c0,77.241,62.592,139.834,139.834,139.834s139.834-62.592,139.834-139.834C556.686,201.688,494.094,139.096,416.853,139.096z"/>
</svg>
