<?xml version="1.0" encoding="utf-8"?>
<!-- Generator: Adobe Illustrator 17.0.0, SVG Export Plug-In . SVG Version: 6.00 Build 0)  -->
<!DOCTYPE svg PUBLIC "-//W3C//DTD SVG 1.1//EN" "http://www.w3.org/Graphics/SVG/1.1/DTD/svg11.dtd">
<svg version="1.1" xmlns="http://www.w3.org/2000/svg" xmlns:xlink="http://www.w3.org/1999/xlink" x="0px" y="0px" width="30px"
	 height="30px" viewBox="0 0 30 30" enable-background="new 0 0 30 30" xml:space="preserve">
<g id="Фон_xA0_Image_1_">
</g>
<g id="Image_xA0_1_xA0_Image_1_" display="none">
	
		<image display="inline" overflow="visible" width="415" height="161" id="Image_xA0_1_xA0_Image" xlink:href="528F5A58.png"  transform="matrix(1 0 0 1 -65 -56.2188)">
	</image>
</g>
<g id="Футер_1_">
	<g id="Логотип_копия_1_">
	</g>
</g>
<g id="Группа_1_1_">
	<g id="Войти_через_1_">
		<g id="Войти_через_соц.сети_1_">
			<g id="Гугл_2_">
				<g id="Гугл_xA0_Image_1_">
				</g>
				<g id="google-plus-2_xA0_Image_1_">
				</g>
			</g>
			<g id="Фейс_3_">
				<g id="Фейс_xA0_Image_3_">
				</g>
				<g id="Фейс_xA0_Image_1_">
				</g>
			</g>
			<g id="Линк_2_">
				<g id="Линк_xA0_Image_1_">
				</g>
				<g id="linkedin_xA0_Image_1_">
				</g>
			</g>
			<g id="Твит_1_">
				<g id="твит_xA0_Image_1_">
				</g>
				<g id="App-Twitter-icon1_xA0_Image_1_">
				</g>
			</g>
			<g id="Класик_1_">
				<g id="класник_xA0_Image_1_">
				</g>
				<g id="Znachok-Odnoklassniki-png_xA0_Image_1_">
				</g>
			</g>
			<g id="Вк_1_">
				<g id="вк_xA0_Image_1_">
				</g>
				<g id="вк-иконка_xA0_Image_1_">
				</g>
			</g>
			<g id="Инста_1_">
				<g id="instagram_x5F_yeni_x5F_logo_x5F_app_x5F_2_xA0_Image_1_">
				</g>
			</g>
			<g id="Маил_1_">
				<g id="маил_xA0_Image_1_">
				</g>
				<g id="mail_x5F_agent_x5F_ico_xA0_Image_1_">
				</g>
			</g>
		</g>
	</g>
</g>
<g id="Layer_33">
	<g>
		<g>
			<linearGradient id="SVGID_1_" gradientUnits="userSpaceOnUse" x1="27.266" y1="0.3819" x2="2.734" y2="29.6181">
				<stop  offset="0" style="stop-color:#DB4936"/>
				<stop  offset="0.7" style="stop-color:#A82824"/>
			</linearGradient>
			<path fill="url(#SVGID_1_)" d="M30,25c0,2.75-2.25,5-5,5H5c-2.75,0-5-2.25-5-5V5c0-2.75,2.25-5,5-5h20c2.75,0,5,2.25,5,5V25z"/>
		</g>
	</g>
</g>
<g id="Layer_41">
</g>
<g id="Layer_47">
</g>
<g id="Layer_42">
</g>
<g id="Layer_43">
</g>
<g id="Layer_44">
</g>
<g id="Layer_45">
</g>
<g id="Layer_46">
</g>
<g id="V">
</g>
<g id="M">
</g>
<g id="F">
</g>
<g id="G">
	<g>
		<g id="google-plus">
			<path fill="#FFFFFF" d="M20.526,13.751v-2.025h-1.316v2.025h-1.974v1.35h1.974v2.025h1.316v-2.025H22.5v-1.35H20.526z
				 M15.461,16.046l-0.724-0.54c-0.263-0.203-0.526-0.473-0.526-0.945s0.329-0.878,0.658-1.08c0.855-0.675,1.711-1.418,1.711-2.903
				c0-1.418-0.855-2.228-1.316-2.633h1.118L17.171,7h-4.079C10.197,7,8.75,8.89,8.75,10.916c0,1.553,1.184,3.241,3.289,3.241h0.526
				c-0.066,0.203-0.263,0.54-0.263,0.878c0,0.675,0.263,0.945,0.592,1.35c-0.921,0.068-2.632,0.27-3.882,1.08
				C7.829,18.207,7.5,19.219,7.5,19.962C7.5,21.515,8.882,23,11.842,23c3.553,0,5.263-2.025,5.263-3.983
				C17.105,17.599,16.382,16.857,15.461,16.046z M10.461,9.903c0-1.485,0.855-2.16,1.776-2.16c1.711,0,2.632,2.363,2.632,3.713
				c0,1.755-1.382,2.093-1.908,2.093C11.316,13.549,10.461,11.456,10.461,9.903z M12.829,22.055c-2.171,0-3.553-1.013-3.553-2.498
				c0-1.485,1.316-1.958,1.711-2.16c0.855-0.27,1.974-0.338,2.171-0.338s0.329,0,0.461,0c1.579,1.148,2.237,1.62,2.237,2.7
				C15.855,21.042,14.605,22.055,12.829,22.055z"/>
		</g>
	</g>
</g>
<g id="Layer_37">
</g>
<g id="Layer_38">
</g>
<g id="Layer_39">
</g>
<g id="Layer_40">
</g>
</svg>
