<?xml version="1.0" encoding="utf-8"?>
<!-- Generator: Adobe Illustrator 17.0.0, SVG Export Plug-In . SVG Version: 6.00 Build 0)  -->
<!DOCTYPE svg PUBLIC "-//W3C//DTD SVG 1.1//EN" "http://www.w3.org/Graphics/SVG/1.1/DTD/svg11.dtd">
<svg version="1.1" id="Layer_1" xmlns="http://www.w3.org/2000/svg" xmlns:xlink="http://www.w3.org/1999/xlink" x="0px" y="0px"
	 width="387.52px" height="353.92px" viewBox="0 0 387.52 353.92" enable-background="new 0 0 387.52 353.92" xml:space="preserve">
<g>
	<path fill="#F28106" d="M172.928,342.272l9.856,7.616c3.136,2.24,6.72,3.584,10.752,4.032h1.344h0.448
		c4.032,0,8.064-1.344,11.2-4.032l5.824-4.48C277.76,293.888,387.52,207.424,387.52,109.76C387.52,49.28,338.24,0,277.76,0
		c-33.152,0-63.616,14.336-84.224,38.976C172.928,14.784,142.016,0,109.76,0C49.28,0,0,49.28,0,109.76
		C0.448,206.528,108.416,291.648,172.928,342.272z M109.76,35.84c28.224,0,54.656,16.576,66.752,42.112l0.896,1.792
		c3.136,7.168,11.2,11.2,18.816,10.304c6.272-0.896,11.2-4.928,13.888-10.304c0,0,0.896-1.792,1.344-2.688
		C224,51.52,249.536,35.392,277.76,35.392c40.768,0,73.92,33.152,73.92,73.92c0,77.952-99.904,158.592-157.248,203.84
		C138.88,270.144,36.288,189.056,36.288,109.76C36.288,68.992,69.44,35.84,109.76,35.84z"/>
</g>
</svg>
