<?xml version="1.0" encoding="utf-8"?>
<!-- Generator: Adobe Illustrator 17.0.0, SVG Export Plug-In . SVG Version: 6.00 Build 0)  -->
<!DOCTYPE svg PUBLIC "-//W3C//DTD SVG 1.1//EN" "http://www.w3.org/Graphics/SVG/1.1/DTD/svg11.dtd">
<svg version="1.1" xmlns="http://www.w3.org/2000/svg" xmlns:xlink="http://www.w3.org/1999/xlink" x="0px" y="0px"
	 width="536.938px" height="484.792px" viewBox="0 0 536.938 484.792" enable-background="new 0 0 536.938 484.792"
	 xml:space="preserve">
<g id="Layer_2" display="none">
	
		<image display="inline" overflow="visible" width="700" height="700" xlink:href="noun_73290_cc.png"  transform="matrix(0.9999 0 0 0.9999 -81 -55.875)">
	</image>
</g>
<g id="Layer_1">
</g>
<g id="Layer_3">
</g>
<g id="Layer_5">
	<g>
		<g>
			<g>
				<path fill="#F28106" d="M50.276,294.647c-52.25,0-64.771-30.229-27.825-67.175L201.869,48.054
					c36.946-36.946,97.404-36.946,134.35,0l179.417,179.417c36.946,36.946,24.425,67.175-27.825,67.175H50.276z"/>
			</g>
			<g>
				<path fill="#F28106" d="M302.278,14.113c-18.279-18.279-48.189-18.279-66.468,0L49.974,199.949
					c-18.279,18.279-12.084,33.359,13.765,33.512l405.906-4.082c25.845-0.499,32.036-15.863,13.757-34.142L302.278,14.113z"/>
			</g>
		</g>
		<g>
			<path fill="#F28106" d="M190.667,444.458c0,22-18,40-40,40H102c-22,0-40-18-40-40V315.792c0-22,18-40,40-40h48.667
				c22,0,40,18,40,40V444.458z"/>
		</g>
		<g>
			<path fill="#F28106" d="M136.25,378.125c0-9.9,8.1-18,18-18h38.25c9.9,0,18,8.1,18,18v88.333c0,9.9-8.1,18-18,18h-38.25
				c-9.9,0-18-8.1-18-18V378.125z"/>
		</g>
		<g>
			<path fill="#F28106" d="M348.833,444.458c0,22,18,40,40,40H437.5c22,0,40-18,40-40V315.792c0-22-18-40-40-40h-48.667
				c-22,0-40,18-40,40V444.458z"/>
		</g>
		<g>
			<path fill="#F28106" d="M403.25,378.125c0-9.9-8.1-18-18-18H347c-9.9,0-18,8.1-18,18v88.333c0,9.9,8.1,18,18,18h38.25
				c9.9,0,18-8.1,18-18V378.125z"/>
		</g>
		<g>
			<path fill="#F28106" d="M453,170.792c0,16.5-13.5,30-30,30h-16c-16.5,0-30-13.5-30-30v-108c0-16.5,13.5-30,30-30h16
				c16.5,0,30,13.5,30,30V170.792z"/>
		</g>
		<path fill="#F28106" d="M62,294.125v83h148.63c0.988-7.311,7.279-13,14.85-13h88.604c7.57,0,13.862,5.689,14.85,13H477.5v-83H62z"
			/>
	</g>
</g>
</svg>
