<?xml version="1.0" encoding="utf-8"?>
<!-- Generator: Adobe Illustrator 17.0.0, SVG Export Plug-In . SVG Version: 6.00 Build 0)  -->
<!DOCTYPE svg PUBLIC "-//W3C//DTD SVG 1.1//EN" "http://www.w3.org/Graphics/SVG/1.1/DTD/svg11.dtd">
<svg version="1.1" xmlns="http://www.w3.org/2000/svg" xmlns:xlink="http://www.w3.org/1999/xlink" x="0px" y="0px" width="30px"
	 height="30px" viewBox="0 0 30 30" enable-background="new 0 0 30 30" xml:space="preserve">
<g id="Фон_xA0_Image_1_">
</g>
<g id="Image_xA0_1_xA0_Image_1_" display="none">
	
		<image display="inline" overflow="visible" width="415" height="161" id="Image_xA0_1_xA0_Image" xlink:href="373C0819.png"  transform="matrix(1 0 0 1 -139.5518 -56.2404)">
	</image>
</g>
<g id="Футер_1_">
	<g id="Логотип_копия_1_">
	</g>
</g>
<g id="Группа_1_1_">
	<g id="Войти_через_1_">
		<g id="Войти_через_соц.сети_1_">
			<g id="Гугл_2_">
				<g id="Гугл_xA0_Image_1_">
				</g>
				<g id="google-plus-2_xA0_Image_1_">
				</g>
			</g>
			<g id="Фейс_3_">
				<g id="Фейс_xA0_Image_3_">
				</g>
				<g id="Фейс_xA0_Image_1_">
				</g>
			</g>
			<g id="Линк_2_">
				<g id="Линк_xA0_Image_1_">
				</g>
				<g id="linkedin_xA0_Image_1_">
				</g>
			</g>
			<g id="Твит_1_">
				<g id="твит_xA0_Image_1_">
				</g>
				<g id="App-Twitter-icon1_xA0_Image_1_">
				</g>
			</g>
			<g id="Класик_1_">
				<g id="класник_xA0_Image_1_">
				</g>
				<g id="Znachok-Odnoklassniki-png_xA0_Image_1_">
				</g>
			</g>
			<g id="Вк_1_">
				<g id="вк_xA0_Image_1_">
				</g>
				<g id="вк-иконка_xA0_Image_1_">
				</g>
			</g>
			<g id="Инста_1_">
				<g id="instagram_x5F_yeni_x5F_logo_x5F_app_x5F_2_xA0_Image_1_">
				</g>
			</g>
			<g id="Маил_1_">
				<g id="маил_xA0_Image_1_">
				</g>
				<g id="mail_x5F_agent_x5F_ico_xA0_Image_1_">
				</g>
			</g>
		</g>
	</g>
</g>
<g id="Layer_33">
</g>
<g id="Layer_41">
	<g>
		<linearGradient id="SVGID_1_" gradientUnits="userSpaceOnUse" x1="27.266" y1="0.3819" x2="2.734" y2="29.6181">
			<stop  offset="0" style="stop-color:#4CB2E8"/>
			<stop  offset="0.7" style="stop-color:#0177B5"/>
		</linearGradient>
		<path fill="url(#SVGID_1_)" d="M30,25c0,2.75-2.25,5-5,5H5c-2.75,0-5-2.25-5-5V5c0-2.75,2.25-5,5-5h20c2.75,0,5,2.25,5,5V25z"/>
	</g>
</g>
<g id="Layer_47">
</g>
<g id="Layer_42">
</g>
<g id="Layer_43">
</g>
<g id="Layer_44">
</g>
<g id="Layer_45">
</g>
<g id="Layer_46">
</g>
<g id="V">
</g>
<g id="M">
</g>
<g id="F">
</g>
<g id="G">
</g>
<g id="Layer_37">
	<g>
		<g>
			<rect x="7.198" y="12.374" fill="#FFFFFF" width="3.437" height="10.126"/>
			<path fill="#FFFFFF" d="M21.917,13.299c-0.722-0.773-1.677-1.16-2.865-1.16c-0.437,0-0.835,0.053-1.193,0.158
				c-0.358,0.106-0.66,0.254-0.906,0.444c-0.246,0.191-0.443,0.368-0.588,0.531c-0.139,0.155-0.274,0.336-0.406,0.541v-1.44h-3.427
				l0.011,0.491c0.007,0.327,0.011,1.335,0.011,3.024c0,1.689-0.007,3.893-0.021,6.611h3.427v-5.651
				c0-0.347,0.038-0.623,0.115-0.828c0.146-0.348,0.366-0.639,0.662-0.874c0.295-0.235,0.661-0.353,1.099-0.353
				c0.597,0,1.036,0.203,1.318,0.608c0.281,0.405,0.422,0.966,0.422,1.681V22.5H23v-5.803C23,15.204,22.639,14.072,21.917,13.299z"
				/>
			<path fill="#FFFFFF" d="M8.937,7.5c-0.576,0-1.043,0.165-1.401,0.496C7.179,8.326,7,8.743,7,9.247
				c0,0.497,0.174,0.913,0.521,1.247c0.347,0.334,0.806,0.501,1.375,0.501h0.021c0.583,0,1.054-0.167,1.412-0.501
				c0.358-0.334,0.533-0.749,0.526-1.247c-0.007-0.504-0.184-0.921-0.531-1.252C9.976,7.665,9.514,7.5,8.937,7.5z"/>
		</g>
	</g>
</g>
<g id="Layer_38">
</g>
<g id="Layer_39">
</g>
<g id="Layer_40">
</g>
</svg>
