<?xml version="1.0" encoding="utf-8"?>
<!-- Generator: Adobe Illustrator 17.0.0, SVG Export Plug-In . SVG Version: 6.00 Build 0)  -->
<!DOCTYPE svg PUBLIC "-//W3C//DTD SVG 1.1//EN" "http://www.w3.org/Graphics/SVG/1.1/DTD/svg11.dtd">
<svg version="1.1" xmlns="http://www.w3.org/2000/svg" xmlns:xlink="http://www.w3.org/1999/xlink" x="0px" y="0px" width="30px"
	 height="30px" viewBox="0 0 30 30" enable-background="new 0 0 30 30" xml:space="preserve">
<g id="Фон_xA0_Image_1_">
</g>
<g id="Image_xA0_1_xA0_Image_1_" display="none">
	
		<image display="inline" overflow="visible" width="415" height="161" id="Image_xA0_1_xA0_Image" xlink:href="927309B2.png"  transform="matrix(1 0 0 1 -286.2969 -56.4375)">
	</image>
</g>
<g id="Футер_1_">
	<g id="Логотип_копия_1_">
	</g>
</g>
<g id="Группа_1_1_">
	<g id="Войти_через_1_">
		<g id="Войти_через_соц.сети_1_">
			<g id="Гугл_2_">
				<g id="Гугл_xA0_Image_1_">
				</g>
				<g id="google-plus-2_xA0_Image_1_">
				</g>
			</g>
			<g id="Фейс_3_">
				<g id="Фейс_xA0_Image_3_">
				</g>
				<g id="Фейс_xA0_Image_1_">
				</g>
			</g>
			<g id="Линк_2_">
				<g id="Линк_xA0_Image_1_">
				</g>
				<g id="linkedin_xA0_Image_1_">
				</g>
			</g>
			<g id="Твит_1_">
				<g id="твит_xA0_Image_1_">
				</g>
				<g id="App-Twitter-icon1_xA0_Image_1_">
				</g>
			</g>
			<g id="Класик_1_">
				<g id="класник_xA0_Image_1_">
				</g>
				<g id="Znachok-Odnoklassniki-png_xA0_Image_1_">
				</g>
			</g>
			<g id="Вк_1_">
				<g id="вк_xA0_Image_1_">
				</g>
				<g id="вк-иконка_xA0_Image_1_">
				</g>
			</g>
			<g id="Инста_1_">
				<g id="instagram_x5F_yeni_x5F_logo_x5F_app_x5F_2_xA0_Image_1_">
				</g>
			</g>
			<g id="Маил_1_">
				<g id="маил_xA0_Image_1_">
				</g>
				<g id="mail_x5F_agent_x5F_ico_xA0_Image_1_">
				</g>
			</g>
		</g>
	</g>
</g>
<g id="Layer_33">
</g>
<g id="Layer_41">
</g>
<g id="Layer_47">
</g>
<g id="Layer_42">
</g>
<g id="Layer_43">
</g>
<g id="Layer_44">
</g>
<g id="Layer_45">
	<g>
		<linearGradient id="SVGID_1_" gradientUnits="userSpaceOnUse" x1="27.266" y1="0.3819" x2="2.734" y2="29.6181">
			<stop  offset="0" style="stop-color:#F2BB65"/>
			<stop  offset="0.5" style="stop-color:#E2286B"/>
			<stop  offset="1" style="stop-color:#630793"/>
		</linearGradient>
		<path fill="url(#SVGID_1_)" d="M30,25c0,2.75-2.25,5-5,5H5c-2.75,0-5-2.25-5-5V5c0-2.75,2.25-5,5-5h20c2.75,0,5,2.25,5,5V25z"/>
	</g>
</g>
<g id="Layer_46">
</g>
<g id="V">
</g>
<g id="M">
</g>
<g id="F">
</g>
<g id="G">
</g>
<g id="Layer_37">
</g>
<g id="Layer_38">
</g>
<g id="Layer_39">
</g>
<g id="Layer_40">
	<path fill="#FFFFFF" d="M25,10.796c-0.049-1.064-0.218-1.791-0.465-2.427c-0.251-0.667-0.645-1.272-1.153-1.771
		c-0.499-0.509-1.104-0.903-1.771-1.154c-0.636-0.247-1.363-0.416-2.427-0.464c-1.066-0.049-1.407-0.06-4.123-0.06
		s-3.056,0.012-4.123,0.06C9.872,5.028,9.146,5.197,8.51,5.444C7.842,5.695,7.238,6.088,6.738,6.597
		C6.23,7.097,5.836,7.701,5.585,8.368C5.338,9.004,5.169,9.731,5.12,10.796c-0.049,1.067-0.06,1.407-0.06,4.123
		c0,2.716,0.012,3.057,0.06,4.123c0.049,1.064,0.218,1.791,0.465,2.427c0.251,0.667,0.645,1.272,1.153,1.771
		c0.499,0.509,1.104,0.902,1.771,1.153c0.636,0.247,1.363,0.416,2.427,0.465c1.067,0.049,1.407,0.06,4.123,0.06
		s3.056-0.011,4.123-0.06c1.064-0.049,1.791-0.218,2.427-0.465c1.343-0.519,2.405-1.581,2.924-2.924
		c0.247-0.636,0.416-1.363,0.465-2.427c0.049-1.067,0.06-1.407,0.06-4.123C25.06,12.203,25.048,11.862,25,10.796z M23.2,18.96
		c-0.044,0.975-0.207,1.505-0.344,1.857c-0.336,0.872-1.026,1.561-1.898,1.898c-0.352,0.137-0.882,0.3-1.857,0.344
		c-1.054,0.048-1.371,0.058-4.041,0.058c-2.67,0-2.987-0.01-4.041-0.058c-0.975-0.044-1.504-0.207-1.857-0.344
		c-0.434-0.16-0.827-0.416-1.15-0.748c-0.332-0.323-0.588-0.715-0.748-1.15c-0.137-0.352-0.3-0.882-0.344-1.857
		c-0.048-1.054-0.058-1.371-0.058-4.041c0-2.67,0.01-2.986,0.058-4.041c0.045-0.975,0.207-1.505,0.344-1.857
		c0.16-0.434,0.416-0.827,0.748-1.15c0.323-0.332,0.715-0.588,1.15-0.748c0.352-0.137,0.882-0.3,1.857-0.344
		C12.073,6.731,12.39,6.72,15.06,6.72h0c2.67,0,2.986,0.01,4.041,0.058c0.975,0.044,1.504,0.207,1.857,0.344
		c0.434,0.16,0.827,0.416,1.15,0.748c0.332,0.323,0.588,0.715,0.748,1.15c0.137,0.352,0.3,0.882,0.344,1.857
		c0.048,1.054,0.058,1.371,0.058,4.041C23.258,17.589,23.248,17.905,23.2,18.96z"/>
	<path fill="#FFFFFF" d="M15.06,9.784c-2.836,0-5.135,2.299-5.135,5.135s2.299,5.135,5.135,5.135c2.836,0,5.135-2.299,5.135-5.135
		S17.896,9.784,15.06,9.784z M15.06,18.252c-1.841,0-3.333-1.492-3.333-3.333c0-1.841,1.492-3.333,3.333-3.333
		c1.841,0,3.333,1.492,3.333,3.333C18.393,16.76,16.901,18.252,15.06,18.252z"/>
	<path fill="#FFFFFF" d="M21.598,9.581c0,0.663-0.537,1.2-1.2,1.2c-0.663,0-1.2-0.537-1.2-1.2c0-0.663,0.537-1.2,1.2-1.2
		C21.06,8.381,21.598,8.918,21.598,9.581z"/>
</g>
</svg>
