<?xml version="1.0" encoding="utf-8"?>
<!-- Generator: Adobe Illustrator 17.0.0, SVG Export Plug-In . SVG Version: 6.00 Build 0)  -->
<!DOCTYPE svg PUBLIC "-//W3C//DTD SVG 1.1//EN" "http://www.w3.org/Graphics/SVG/1.1/DTD/svg11.dtd">
<svg version="1.1" xmlns="http://www.w3.org/2000/svg" xmlns:xlink="http://www.w3.org/1999/xlink" x="0px" y="0px"
	 width="410.542px" height="507px" viewBox="0 0 410.542 507" enable-background="new 0 0 410.542 507" xml:space="preserve">
<g id="Layer_2">
</g>
<g id="Layer_3">
	<g>
		<g>
			<path fill="none" stroke="#F28106" stroke-width="26" stroke-miterlimit="10" d="M397.542,489c0,2.75-2.25,5-5,5h-375
				c-2.75,0-4.995-2.25-4.99-5l0.979-470c0.006-2.75,2.26-5,5.01-5h374c2.75,0,5,2.25,5,5V489z"/>
		</g>
		<g>
			<path fill="#F28106" d="M206.458,130c0,6.6-5.4,12-12,12H56.875c-6.6,0-12-5.4-12-12v-0.083c0-6.6,5.4-12,12-12h137.583
				c6.6,0,12,5.4,12,12V130z"/>
		</g>
		<g>
			<path fill="#F28106" d="M206.458,193.333c0,6.6-5.4,12-12,12H56.875c-6.6,0-12-5.4-12-12v-0.083c0-6.6,5.4-12,12-12h137.583
				c6.6,0,12,5.4,12,12V193.333z"/>
		</g>
		<g>
			<path fill="#F28106" d="M363.958,253c0,6.6-5.4,12-12,12H56.875c-6.6,0-12-5.4-12-12v-0.083c0-6.6,5.4-12,12-12h295.083
				c6.6,0,12,5.4,12,12V253z"/>
		</g>
		<g>
			<path fill="#F28106" d="M363.958,316.063c0,6.6-5.4,12-12,12H56.875c-6.6,0-12-5.4-12-12v-0.083c0-6.6,5.4-12,12-12h295.083
				c6.6,0,12,5.4,12,12V316.063z"/>
		</g>
		<g>
			<path fill="#F28106" d="M363.958,382c0,6.6-5.4,12-12,12H56.875c-6.6,0-12-5.4-12-12v-0.083c0-6.6,5.4-12,12-12h295.083
				c6.6,0,12,5.4,12,12V382z"/>
		</g>
		<g>
			<path fill="none" stroke="#F28106" stroke-width="26" stroke-miterlimit="10" d="M342.542,188c0,2.75-2.25,5-5,5h-85
				c-2.75,0-4.994-2.25-4.987-5l0.221-84.948c0.007-2.75,2.263-5,5.013-5h84.753c2.75,0,5,2.25,5,5V188z"/>
		</g>
	</g>
</g>
</svg>
