<?xml version="1.0" encoding="utf-8"?>
<!-- Generator: Adobe Illustrator 17.0.0, SVG Export Plug-In . SVG Version: 6.00 Build 0)  -->
<!DOCTYPE svg PUBLIC "-//W3C//DTD SVG 1.1//EN" "http://www.w3.org/Graphics/SVG/1.1/DTD/svg11.dtd">
<svg version="1.1" id="Layer_1" xmlns="http://www.w3.org/2000/svg" xmlns:xlink="http://www.w3.org/1999/xlink" x="0px" y="0px"
	 width="425.6px" height="425.6px" viewBox="0 0 425.6 425.6" enable-background="new 0 0 425.6 425.6" xml:space="preserve">
<g>
	<circle fill="#F28106" cx="212.8" cy="150.528" r="69.888"/>
	<path fill="#F28106" d="M212.8,0C95.424,0,0,95.424,0,212.8s95.424,212.8,212.8,212.8s212.8-95.424,212.8-212.8S330.176,0,212.8,0z
		 M319.872,355.264l-15.232-66.752c-6.272-27.776-31.36-47.488-59.584-47.488h-64.064c-28.672,0-53.312,19.712-59.584,47.488
		l-15.232,66.752C62.72,322.56,34.496,271.04,34.496,212.8c0-98.112,79.744-178.304,178.304-178.304
		c98.112,0,178.304,79.744,178.304,178.304C391.104,271.04,362.88,322.56,319.872,355.264z"/>
</g>
</svg>
