<?xml version="1.0" encoding="utf-8"?>
<!-- Generator: Adobe Illustrator 17.0.0, SVG Export Plug-In . SVG Version: 6.00 Build 0)  -->
<!DOCTYPE svg PUBLIC "-//W3C//DTD SVG 1.1//EN" "http://www.w3.org/Graphics/SVG/1.1/DTD/svg11.dtd">
<svg version="1.1" xmlns="http://www.w3.org/2000/svg" xmlns:xlink="http://www.w3.org/1999/xlink" x="0px" y="0px" width="30px"
	 height="30px" viewBox="0 0 30 30" enable-background="new 0 0 30 30" xml:space="preserve">
<g id="Фон_xA0_Image_1_">
</g>
<g id="Image_xA0_1_xA0_Image_1_" display="none">
	
		<image display="inline" overflow="visible" width="415" height="161" id="Image_xA0_1_xA0_Image" xlink:href="5113BB81.png"  transform="matrix(1 0 0 1 -323.5842 -56.4375)">
	</image>
</g>
<g id="Футер_1_">
	<g id="Логотип_копия_1_">
	</g>
</g>
<g id="Группа_1_1_">
	<g id="Войти_через_1_">
		<g id="Войти_через_соц.сети_1_">
			<g id="Гугл_2_">
				<g id="Гугл_xA0_Image_1_">
				</g>
				<g id="google-plus-2_xA0_Image_1_">
				</g>
			</g>
			<g id="Фейс_3_">
				<g id="Фейс_xA0_Image_3_">
				</g>
				<g id="Фейс_xA0_Image_1_">
				</g>
			</g>
			<g id="Линк_2_">
				<g id="Линк_xA0_Image_1_">
				</g>
				<g id="linkedin_xA0_Image_1_">
				</g>
			</g>
			<g id="Твит_1_">
				<g id="твит_xA0_Image_1_">
				</g>
				<g id="App-Twitter-icon1_xA0_Image_1_">
				</g>
			</g>
			<g id="Класик_1_">
				<g id="класник_xA0_Image_1_">
				</g>
				<g id="Znachok-Odnoklassniki-png_xA0_Image_1_">
				</g>
			</g>
			<g id="Вк_1_">
				<g id="вк_xA0_Image_1_">
				</g>
				<g id="вк-иконка_xA0_Image_1_">
				</g>
			</g>
			<g id="Инста_1_">
				<g id="instagram_x5F_yeni_x5F_logo_x5F_app_x5F_2_xA0_Image_1_">
				</g>
			</g>
			<g id="Маил_1_">
				<g id="маил_xA0_Image_1_">
				</g>
				<g id="mail_x5F_agent_x5F_ico_xA0_Image_1_">
				</g>
			</g>
		</g>
	</g>
</g>
<g id="Layer_33">
</g>
<g id="Layer_41">
</g>
<g id="Layer_47">
</g>
<g id="Layer_42">
</g>
<g id="Layer_43">
</g>
<g id="Layer_44">
</g>
<g id="Layer_45">
</g>
<g id="Layer_46">
	<g>
		<linearGradient id="SVGID_1_" gradientUnits="userSpaceOnUse" x1="27.266" y1="0.4132" x2="2.734" y2="29.6493">
			<stop  offset="0" style="stop-color:#007BFF"/>
			<stop  offset="0.7" style="stop-color:#04458E"/>
		</linearGradient>
		<path fill="url(#SVGID_1_)" d="M30,25.031c0,2.75-2.25,5-5,5H5c-2.75,0-5-2.25-5-5v-20c0-2.75,2.25-5,5-5h20c2.75,0,5,2.25,5,5
			V25.031z"/>
	</g>
</g>
<g id="V">
</g>
<g id="M">
	<linearGradient id="SVGID_2_" gradientUnits="userSpaceOnUse" x1="15" y1="24.0312" x2="15" y2="6.0312">
		<stop  offset="0" style="stop-color:#E44B43"/>
		<stop  offset="1" style="stop-color:#F9B74F"/>
	</linearGradient>
	<path fill="url(#SVGID_2_)" d="M13.971,6.089c-4.06,0.453-7.357,3.676-7.891,7.726c-0.756,5.739,3.935,10.621,9.618,10.19
		c2.091-0.159,4.047-1.093,5.581-2.523l0.132-0.123c0.151-0.141,0.16-0.379,0.018-0.53l-0.512-0.549
		c-0.141-0.151-0.379-0.16-0.53-0.018l-0.274,0.256c-1.705,1.59-4.047,2.306-6.408,1.903c-3.347-0.57-5.921-3.412-6.182-6.798
		c-0.346-4.477,3.266-8.218,7.699-8.089c4.088,0.119,7.278,3.608,7.278,7.698v0.549c0,0.877-0.755,1.58-1.65,1.493
		c-0.779-0.076-1.35-0.776-1.35-1.559v-3.308c0-0.207-0.168-0.375-0.375-0.375h-0.75c-0.151,0-0.278,0.09-0.338,0.218
		c-0.755-0.823-1.835-1.343-3.037-1.343c-2.275,0-4.125,1.85-4.125,4.125s1.85,4.125,4.125,4.125c1.433,0,2.696-0.735,3.436-1.847
		c0.557,0.931,1.592,1.544,2.77,1.465C22.798,18.668,24,17.272,24,15.675v-0.644C24,9.73,19.392,5.484,13.971,6.089z M15,17.656
		c-1.447,0-2.625-1.178-2.625-2.625s1.178-2.625,2.625-2.625s2.625,1.178,2.625,2.625S16.447,17.656,15,17.656z"/>
</g>
<g id="F">
</g>
<g id="G">
</g>
<g id="Layer_37">
</g>
<g id="Layer_38">
</g>
<g id="Layer_39">
</g>
<g id="Layer_40">
</g>
</svg>
