<?xml version="1.0" encoding="utf-8"?>
<!-- Generator: Adobe Illustrator 17.0.0, SVG Export Plug-In . SVG Version: 6.00 Build 0)  -->
<!DOCTYPE svg PUBLIC "-//W3C//DTD SVG 1.1//EN" "http://www.w3.org/Graphics/SVG/1.1/DTD/svg11.dtd">
<svg version="1.1" id="Layer_1" xmlns="http://www.w3.org/2000/svg" xmlns:xlink="http://www.w3.org/1999/xlink" x="0px" y="0px"
	 width="398.181px" height="447.923px" viewBox="0 0 398.181 447.923" enable-background="new 0 0 398.181 447.923"
	 xml:space="preserve">
<path fill="#F28106" d="M277.944,442.244c-64.064-45.024-65.453-129.069-65.05-146.272c-17.114-4.301-48.16-17.069-54.163-53.581
	c0,0,16.934,44.755,75.891,38.214c0,0,52.954,6.541,81.357,44.755c0,0,6.541,19.085,22.893,19.085s27.283,3.27,44.755-26.208
	l7.616-0.538c0,0,13.126-19.667,3.27-56.762c0,0-61.152-52.954-80.237-111.91c0,0-8.198-12.589-23.654-27.418h-0.045
	c-11.424-10.797-22.221-18.502-28.314-22.49c-1.658-1.075-3.27-2.15-5.018-3.136c-0.045-0.045-0.134-0.09-0.134-0.09
	s-2.643-67.469-20.294-92.019c0,0-0.762,0.538-2.016,1.613c-0.717,0.582-1.389,1.254-2.106,1.926
	c-0.493,0.493-1.075,1.03-1.658,1.613c-0.851,0.896-1.702,1.747-2.464,2.643c-2.688,3.002-5.869,7.034-9.318,12.186
	c-3.853,5.958-7.706,13.35-10.886,22.266l0,0c3.853,13.306,4.704,23.386,4.704,23.386c9.318,6.63,14.426,14.157,14.426,14.157
	c-6.63-3.898-18.234-9.363-18.234-9.363c-6.003-43.366-27.597-74.278-27.597-74.278s-0.179,0.09-0.358,0.224
	c-0.045,0.045-0.134,0.09-0.179,0.134c-0.224,0.179-0.538,0.403-0.941,0.672c-0.045,0.045-0.134,0.09-0.224,0.134
	c-7.213,5.286-35.571,28.493-38.931,69.754c0,0-2.643-9.274-1.478-23.251c0,0-30.688,1.926-48.922,12.41
	c-15.679,9.004-13.529,20.697-10.214,23.878c-9.229,3.629-20.115,8.781-27.821,15.411c-14.918,12.858-8.512,24.774-4.57,25.85
	c-7.84,6.227-16.934,14.56-22.445,23.341c-9.229,14.784-2.733,23.923,1.702,25.67c-7.302,6.944-15.77,16.173-20.518,25.536
	c-8.87,17.562,1.568,26.163,5.645,25.626c-4.883,8.736-10.08,19.936-11.827,30.15c-2.33,13.664,3.27,20.25,8.019,22.31
	c-3.898,9.856-8.467,23.878-8.602,35.795c-0.179,13.709,6.182,19.354,11.2,20.742c-1.344,5.51-2.24,11.11-2.285,16.352
	c0,0.314,0,0.627,0.045,0.941C46.239,481.802,277.944,442.244,277.944,442.244z M348.415,290.909c1.523,0,3.002,0.224,4.39,0.627
	c-0.672,0.179-1.299,0.403-1.926,0.717c-8.064,3.763-11.11,14.381-6.72,23.699c0.941,2.016,2.15,3.808,3.539,5.331
	c-8.333-0.358-15.053-6.989-15.053-15.142C332.69,297.719,339.724,290.909,348.415,290.909z M253.976,166.724
	c0,0,15.546,6.81,9.587,24.595c0,0-9.453,6.317-22.758-2.554c-10.394-6.899-23.206-7.974-23.206-7.974
	S240.357,166.858,253.976,166.724z"/>
</svg>
