<?xml version="1.0" encoding="utf-8"?>
<!-- Generator: Adobe Illustrator 17.0.0, SVG Export Plug-In . SVG Version: 6.00 Build 0)  -->
<!DOCTYPE svg PUBLIC "-//W3C//DTD SVG 1.1//EN" "http://www.w3.org/Graphics/SVG/1.1/DTD/svg11.dtd">
<svg version="1.1" id="Layer_1" xmlns="http://www.w3.org/2000/svg" xmlns:xlink="http://www.w3.org/1999/xlink" x="0px" y="0px"
	 width="302.4px" height="403.2px" viewBox="0 0 302.4 403.2" enable-background="new 0 0 302.4 403.2" xml:space="preserve">
<g>
	<path fill="#F28106" d="M151.2,0C67.702,0,0,67.724,0,151.2c0,97.108,108.9,218.306,126,236.84
		c7.065,7.679,13.019,15.16,25.2,15.16c12.186,0,18.113-7.482,25.2-15.16c17.127-18.534,126-139.731,126-236.84
		C302.4,67.724,234.676,0,151.2,0z M151.2,239.402c-48.702,0-88.202-39.496-88.202-88.202s39.5-88.202,88.202-88.202
		s88.202,39.496,88.202,88.202S199.902,239.402,151.2,239.402z"/>
	<path fill="#F28106" d="M151.2,100.8c-27.834,0-50.4,22.593-50.4,50.4s22.566,50.4,50.4,50.4c27.812,0,50.4-22.593,50.4-50.4
		S179.012,100.8,151.2,100.8z"/>
</g>
</svg>
