<?xml version="1.0" encoding="utf-8"?>
<!-- Generator: Adobe Illustrator 17.0.0, SVG Export Plug-In . SVG Version: 6.00 Build 0)  -->
<!DOCTYPE svg PUBLIC "-//W3C//DTD SVG 1.1//EN" "http://www.w3.org/Graphics/SVG/1.1/DTD/svg11.dtd">
<svg version="1.1" id="Layer_1" xmlns="http://www.w3.org/2000/svg" xmlns:xlink="http://www.w3.org/1999/xlink" x="0px" y="0px"
	 width="284.375px" height="248.319px" viewBox="256 146.125 284.375 248.319" enable-background="new 256 146.125 284.375 248.319"
	 xml:space="preserve">
<title>d1</title>
<path fill="#F28106" d="M503.275,146.125H293.1c-20.515,0.063-37.11,16.716-37.1,37.231v117.425c0,0.032,0,0.064,0,0.096
	c0.063,20.427,16.673,36.935,37.1,36.872h120.663l40.513,48.694c10.78,12.968,19.6,9.844,19.6-7V337.75h29.4
	c0.032,0,0.064,0,0.096,0c20.427,0.01,36.994-16.542,37.004-36.969V183.356C540.385,162.841,523.79,146.188,503.275,146.125z
	 M441.031,285.725c0,3.535-3.385,6.4-7.56,6.4H293.935c-4.175,0-7.56-2.865-7.56-6.4v-7.2c0-3.535,3.385-6.4,7.56-6.4h139.537
	c4.175,0,7.56,2.865,7.56,6.4V285.725z M510.375,245.725c0,3.535-4.902,6.4-10.949,6.4H297.324c-6.047,0-10.949-2.865-10.949-6.4
	v-7.2c0-3.535,4.902-6.4,10.949-6.4h202.102c6.047,0,10.949,2.865,10.949,6.4V245.725z M510.375,205.725
	c0,3.535-4.902,6.4-10.949,6.4H297.324c-6.047,0-10.949-2.865-10.949-6.4v-7.2c0-3.535,4.902-6.4,10.949-6.4h202.102
	c6.047,0,10.949,2.865,10.949,6.4V205.725z"/>
</svg>
