<?xml version="1.0" encoding="utf-8"?>
<!-- Generator: Adobe Illustrator 17.0.0, SVG Export Plug-In . SVG Version: 6.00 Build 0)  -->
<!DOCTYPE svg PUBLIC "-//W3C//DTD SVG 1.1//EN" "http://www.w3.org/Graphics/SVG/1.1/DTD/svg11.dtd">
<svg version="1.1" id="Layer_1" xmlns="http://www.w3.org/2000/svg" xmlns:xlink="http://www.w3.org/1999/xlink" x="0px" y="0px"
	 width="332.864px" height="419.776px" viewBox="313.344 13.888 332.864 419.776"
	 enable-background="new 313.344 13.888 332.864 419.776" xml:space="preserve">
<path fill="#F28106" d="M313.344,175.616c0,16.128,20.16,25.984,45.248,31.808v43.008c0,20.16,30.016,30.464,62.72,34.944v21.504
	c-25.536,5.824-46.144,15.68-46.144,32.256v56c0,30.464,70.784,38.528,112.448,38.528s112.448-8.064,112.448-38.528v-42.112
	c25.536-5.824,46.144-15.68,46.144-32.256v-55.552c0-20.16-30.016-30.464-62.72-34.944V194.88c0-16.128-20.16-25.984-45.248-31.808
	v-20.608c28.224-5.376,52.416-15.68,52.416-33.152V52.864c0.448-30.464-70.336-38.976-112.448-38.976S365.76,22.4,365.76,52.864
	v33.152c-28.224,5.376-52.416,15.68-52.416,33.152V175.616z M361.728,153.216C361.728,153.216,361.728,153.664,361.728,153.216
	v35.392c-3.584-0.896-6.72-1.792-9.856-2.688v-35.84l0,0v-0.448c3.136,0.896,6.272,1.792,9.856,2.24V153.216z M387.264,225.344v6.72
	V257.6c-5.824-2.688-9.408-5.376-9.856-6.72v-32.704c3.136,1.344,6.272,2.688,9.856,4.032V225.344z M371.584,190.848v-36.736
	c3.136,0.448,6.72,0.896,9.856,1.344v37.184C378.304,191.744,374.72,191.296,371.584,190.848z M391.744,156.8L391.744,156.8
	c3.136,0,6.272,0.448,9.856,0.448v2.688v1.792v32.704c-3.136-0.448-6.72-0.448-9.856-0.896V156.8L391.744,156.8z M406.976,228.48
	L406.976,228.48v35.392c-3.584-0.896-6.72-1.792-9.856-2.688v-35.84l0,0v-0.448c3.136,0.896,6.272,1.792,9.856,2.24V228.48z
	 M404.288,83.328L404.288,83.328c3.136,0.448,6.272,1.344,9.856,1.792v1.344l0,0v35.392c-3.584-0.896-6.72-1.792-9.856-2.688V83.328
	L404.288,83.328z M411.008,159.936v-2.24c3.584,0,6.72,0.448,9.856,0.448c0,0,0,0,0,0.448v1.792v0.448v34.496
	c-3.584,0-6.72,0-9.856-0.448V159.936L411.008,159.936z M416.832,265.664v-36.736c3.136,0.448,6.72,0.896,9.856,1.344v37.184
	C423.104,267.008,419.968,266.56,416.832,265.664z M450.88,157.248c3.136,0,6.272-0.448,9.856-0.896v37.184
	c-3.136,0.448-6.272,0.448-9.856,0.896v-36.736C450.88,157.696,450.88,157.696,450.88,157.248z M453.568,93.184v1.792v32.704
	c-3.136-0.448-6.72-0.448-9.856-0.896V90.048l0,0V89.6c3.136,0.448,6.272,0.448,9.856,0.896V93.184z M446.4,232.064v2.688v1.792
	v32.704c-3.584,0-6.72-0.448-9.856-0.448v-36.736l0,0v-0.448C439.68,231.616,443.264,232.064,446.4,232.064z M449.984,292.096v3.584
	v6.72v25.536c-5.824-2.688-9.408-5.376-9.856-6.72v-32.704C443.264,289.856,446.4,291.2,449.984,292.096z M441.024,194.88
	c-3.136,0-6.72,0-9.856,0.448v-36.736c0,0,0,0,0-0.448c3.136,0,6.72,0,9.856-0.448V194.88z M433.856,125.888
	c-3.584-0.448-6.72-0.896-9.856-1.792V87.36c3.136,0.448,6.72,0.896,9.856,1.344V125.888z M403.84,370.048v6.72v25.536
	c-5.824-2.688-9.408-5.376-9.856-6.72V362.88c3.136,1.344,6.272,2.688,9.856,4.032V370.048z M423.552,373.184L423.552,373.184
	v35.392c-3.584-0.896-6.72-1.792-9.856-2.688v-35.84l0,0V369.6c3.136,0.896,6.272,1.792,9.856,2.24V373.184z M443.264,412.16
	c-3.584-0.448-6.72-0.896-9.856-1.792v-36.736c3.136,0.448,6.72,0.896,9.856,1.344V412.16z M462.976,379.904v1.792V414.4
	c-3.136-0.448-6.72-0.448-9.856-0.896v-36.736l0,0v-0.448c3.136,0.448,6.272,0.448,9.856,0.896V379.904z M482.688,378.112v1.792
	v0.448v34.496c-3.584,0-6.72,0-9.856-0.448v-34.944l0,0v-2.24C476.416,377.664,479.552,377.664,482.688,378.112L482.688,378.112z
	 M502.848,414.848c-3.136,0-6.72,0-9.856,0.448V378.56c0,0,0,0,0-0.448c3.136,0,6.72,0,9.856-0.448V414.848z M488.064,359.296
	c-60.928,0-91.392-13.888-93.632-19.712c1.344-3.136,10.304-8.512,27.776-12.992c6.272,20.608,47.488,29.568,83.776,32.256
	C500.16,358.848,494.336,359.296,488.064,359.296z M459.84,295.68L459.84,295.68c3.136,0.448,6.272,1.344,9.856,1.792v1.344l0,0
	v35.392c-3.584-0.896-6.72-1.792-9.856-2.688V295.68L459.84,295.68z M466.112,233.408v1.792v0.448v34.496
	c-3.584,0-6.72,0-9.856-0.448v-34.944l0,0v-1.792C459.392,232.96,462.976,232.96,466.112,233.408L466.112,233.408z M485.824,270.144
	c-3.136,0-6.72,0-9.856,0.448v-36.736c0,0,0,0,0-0.448c3.136,0,6.72,0,9.856-0.448V270.144z M489.408,301.056v37.184
	c-3.584-0.448-6.72-0.896-9.856-1.792v-36.736C482.688,300.16,485.824,300.608,489.408,301.056z M496.128,232.064
	c3.136,0,6.272-0.448,9.856-0.896V268.8c-3.136,0.448-6.272,0.448-9.856,0.896V232.96
	C496.128,232.512,496.128,232.512,496.128,232.064z M509.12,305.536v1.792v32.704c-3.136-0.448-6.72-0.448-9.856-0.896V302.4l0,0
	v-0.448c3.136,0.448,6.272,0.448,9.856,0.896V305.536z M522.56,413.504c-3.136,0.448-6.272,0.448-9.856,0.896v-36.736v-0.448
	c3.136,0,6.272-0.448,9.856-0.896V413.504z M528.832,304.192v1.792v0.448v34.496c-3.584,0-6.72,0-9.856-0.448v-34.944l0,0v-2.24
	C522.112,303.744,525.696,303.744,528.832,304.192C528.832,303.744,528.832,303.744,528.832,304.192z M515.392,267.456v-37.184
	c3.136-0.448,6.72-0.896,9.856-1.344v36.736C522.56,266.56,518.976,267.008,515.392,267.456z M542.272,410.368
	c-3.136,0.448-6.272,1.344-9.856,1.792v-37.184c3.136-0.448,6.72-0.896,9.856-1.344V410.368z M548.544,340.48
	c-3.136,0-6.72,0-9.856,0.448v-36.736c0,0,0,0,0-0.448c3.136,0,6.72,0,9.856-0.448V340.48z M561.984,405.888
	c-2.688,0.896-6.272,1.792-9.856,2.688V371.84c3.136-0.896,6.72-1.344,9.856-2.24V405.888z M568.256,339.136
	c-3.136,0.448-6.272,0.448-9.856,0.896v-36.736v-0.448c3.136,0,6.272-0.448,9.856-0.896V339.136z M581.696,395.136
	c-0.448,1.792-4.032,4.48-9.856,7.168v-34.048c0-0.448,0-0.896,0-1.344c3.584-1.344,6.72-2.688,9.856-4.032V395.136z
	 M588.416,336.448c-3.136,0.448-6.272,1.344-9.856,1.792v-37.184c3.136-0.448,6.72-0.896,9.856-1.344V336.448z M607.68,331.52
	c-2.688,0.896-6.272,1.792-9.856,2.688v-36.736c3.136-0.896,6.72-1.344,9.856-2.24V331.52z M627.392,320.768
	c-0.448,1.792-4.032,4.48-9.856,7.168v-34.048c0-0.448,0-0.896,0-1.344c3.584-1.344,6.72-2.688,9.856-4.032V320.768z
	 M583.936,250.432v-1.344c27.776,4.48,42.112,12.096,43.904,16.128c-2.24,5.824-32.704,19.712-93.632,19.712
	c-2.688,0-5.376,0-8.512,0C556.16,279.552,583.936,269.248,583.936,250.432z M535.552,263.872v-36.736
	c3.136-0.896,6.72-1.344,9.856-2.24v36.288C542.272,262.08,539.136,262.976,535.552,263.872z M565.12,250.432
	c-0.448,1.792-4.032,4.48-9.856,7.168v-34.048c0-0.448,0-0.896,0-1.344c3.584-1.344,6.72-2.688,9.856-4.032V250.432z
	 M564.672,194.432c-2.24,5.824-32.704,19.712-93.632,19.712c-8.512,0-16.576-0.448-24.192-0.896
	c37.632-2.24,82.88-10.752,90.496-31.808C554.816,185.92,563.776,191.296,564.672,194.432z M473.28,91.84v1.792v0.448v34.496
	c-3.584,0-6.72,0-9.856-0.448V93.184l0,0v-2.24C466.56,91.392,470.144,91.392,473.28,91.84C473.28,91.392,473.28,91.84,473.28,91.84
	z M480.448,154.112v36.736c-3.136,0.448-6.272,1.344-9.856,1.792v-37.184C473.728,155.008,477.312,154.56,480.448,154.112z
	 M492.992,128.128c-3.136,0-6.72,0-9.856,0.448V91.84c0,0,0,0,0-0.448c3.136,0,6.72,0,9.856-0.448V128.128z M500.16,149.632v36.288
	c-2.688,0.896-6.272,1.792-9.856,2.688v-36.736C493.888,151.424,497.024,150.528,500.16,149.632z M510.016,146.944
	c0.896-0.448,1.344-0.448,2.24-0.896c2.688-0.448,4.928-0.448,7.616-0.896v30.464c-0.448,1.792-4.032,4.48-9.856,7.168v-34.048
	C510.016,147.84,510.016,147.392,510.016,146.944z M512.704,126.784c-3.136,0.448-6.272,0.448-9.856,0.896V90.944v-0.448
	c3.136,0,6.272-0.448,9.856-0.896V126.784z M522.56,125.888V88.704c3.136-0.448,6.72-0.896,9.856-1.344v36.736
	C529.728,124.544,526.144,125.44,522.56,125.888z M552.128,119.168c-2.688,0.896-6.272,1.792-9.856,2.688V85.12
	c3.136-0.896,6.72-1.344,9.856-2.24V119.168z M571.84,108.416c-0.448,1.792-4.032,4.48-9.856,7.168V81.536c0-0.448,0-0.896,0-1.344
	c3.584-1.344,6.72-2.688,9.856-4.032V108.416z M478.208,33.152c60.928,0,91.392,13.888,93.632,19.712
	c-2.24,5.824-32.704,19.712-93.632,19.712s-91.392-13.888-93.632-19.712C386.816,47.04,417.28,33.152,478.208,33.152z
	 M384.576,75.712c3.136,1.344,6.272,2.688,9.856,4.032v3.584v6.72v25.536c-5.824-2.688-9.408-5.376-9.856-6.72V75.712z
	 M365.76,105.28v3.584c0,14.336,15.68,23.744,37.184,30.016c-45.248-3.136-68.544-13.888-70.336-19.264
	C333.952,116.032,344.704,109.76,365.76,105.28z M332.608,142.464c3.136,1.344,6.272,2.688,9.856,4.032v3.584v6.72v25.536
	c-5.824-2.688-9.408-5.376-9.856-6.72V142.464z"/>
</svg>
