<?xml version="1.0" encoding="utf-8"?>
<!-- Generator: Adobe Illustrator 17.0.0, SVG Export Plug-In . SVG Version: 6.00 Build 0)  -->
<!DOCTYPE svg PUBLIC "-//W3C//DTD SVG 1.1//EN" "http://www.w3.org/Graphics/SVG/1.1/DTD/svg11.dtd">
<svg version="1.1" xmlns="http://www.w3.org/2000/svg" xmlns:xlink="http://www.w3.org/1999/xlink" x="0px" y="0px" width="30px"
	 height="30px" viewBox="0 0 30 30" enable-background="new 0 0 30 30" xml:space="preserve">
<g id="Фон_xA0_Image_1_">
</g>
<g id="Image_xA0_1_xA0_Image_1_" display="none">
	
		<image display="inline" overflow="visible" width="415" height="161" id="Image_xA0_1_xA0_Image" xlink:href="72A586CA.png"  transform="matrix(1 0 0 1 -213.0592 -56.1254)">
	</image>
</g>
<g id="Футер_1_">
	<g id="Логотип_копия_1_">
	</g>
</g>
<g id="Группа_1_1_">
	<g id="Войти_через_1_">
		<g id="Войти_через_соц.сети_1_">
			<g id="Гугл_2_">
				<g id="Гугл_xA0_Image_1_">
				</g>
				<g id="google-plus-2_xA0_Image_1_">
				</g>
			</g>
			<g id="Фейс_3_">
				<g id="Фейс_xA0_Image_3_">
				</g>
				<g id="Фейс_xA0_Image_1_">
				</g>
			</g>
			<g id="Линк_2_">
				<g id="Линк_xA0_Image_1_">
				</g>
				<g id="linkedin_xA0_Image_1_">
				</g>
			</g>
			<g id="Твит_1_">
				<g id="твит_xA0_Image_1_">
				</g>
				<g id="App-Twitter-icon1_xA0_Image_1_">
				</g>
			</g>
			<g id="Класик_1_">
				<g id="класник_xA0_Image_1_">
				</g>
				<g id="Znachok-Odnoklassniki-png_xA0_Image_1_">
				</g>
			</g>
			<g id="Вк_1_">
				<g id="вк_xA0_Image_1_">
				</g>
				<g id="вк-иконка_xA0_Image_1_">
				</g>
			</g>
			<g id="Инста_1_">
				<g id="instagram_x5F_yeni_x5F_logo_x5F_app_x5F_2_xA0_Image_1_">
				</g>
			</g>
			<g id="Маил_1_">
				<g id="маил_xA0_Image_1_">
				</g>
				<g id="mail_x5F_agent_x5F_ico_xA0_Image_1_">
				</g>
			</g>
		</g>
	</g>
</g>
<g id="Layer_33">
</g>
<g id="Layer_41">
</g>
<g id="Layer_47">
</g>
<g id="Layer_42">
</g>
<g id="Layer_43">
	<g>
		<linearGradient id="SVGID_1_" gradientUnits="userSpaceOnUse" x1="27.266" y1="0.3819" x2="2.734" y2="29.6181">
			<stop  offset="0" style="stop-color:#FF9E48"/>
			<stop  offset="0.7" style="stop-color:#F37504"/>
		</linearGradient>
		<path fill="url(#SVGID_1_)" d="M30,25c0,2.75-2.25,5-5,5H5c-2.75,0-5-2.25-5-5V5c0-2.75,2.25-5,5-5h20c2.75,0,5,2.25,5,5V25z"/>
	</g>
</g>
<g id="Layer_44">
</g>
<g id="Layer_45">
</g>
<g id="Layer_46">
</g>
<g id="V">
</g>
<g id="M">
</g>
<g id="F">
</g>
<g id="G">
</g>
<g id="Layer_37">
</g>
<g id="Layer_38">
	<g>
		<g>
			<path fill="#FFFFFF" d="M14.18,18.27c-1.291-0.129-2.455-0.435-3.452-1.184c-0.124-0.093-0.251-0.183-0.364-0.287
				c-0.436-0.403-0.48-0.863-0.135-1.339c0.295-0.407,0.791-0.515,1.306-0.282c0.1,0.045,0.195,0.102,0.286,0.162
				c1.857,1.226,4.409,1.26,6.273,0.055c0.185-0.136,0.382-0.247,0.611-0.304c0.445-0.11,0.86,0.047,1.099,0.421
				c0.273,0.427,0.269,0.844-0.067,1.176c-0.516,0.508-1.136,0.876-1.825,1.133c-0.651,0.243-1.365,0.365-2.071,0.446
				c0.107,0.111,0.157,0.166,0.223,0.231c0.959,0.926,1.922,1.847,2.878,2.776c0.326,0.316,0.394,0.709,0.214,1.077
				c-0.196,0.402-0.635,0.667-1.065,0.638c-0.273-0.018-0.485-0.148-0.674-0.331c-0.724-0.7-1.461-1.386-2.17-2.099
				c-0.206-0.207-0.306-0.168-0.488,0.012c-0.728,0.72-1.468,1.429-2.212,2.134c-0.334,0.317-0.732,0.374-1.119,0.193
				c-0.412-0.192-0.674-0.596-0.654-1.002c0.014-0.275,0.155-0.484,0.351-0.673c0.949-0.91,1.895-1.823,2.842-2.735
				C14.031,18.428,14.089,18.363,14.18,18.27z"/>
			<path fill="#FFFFFF" d="M14.967,15.099c-2.303-0.008-4.192-1.842-4.178-4.058C10.802,8.8,12.691,6.994,15.017,7
				c2.331,0.006,4.201,1.838,4.189,4.102C19.195,13.314,17.293,15.106,14.967,15.099z M17.06,11.046
				c-0.004-1.1-0.916-1.976-2.059-1.977c-1.153-0.001-2.073,0.891-2.064,2.001c0.009,1.096,0.929,1.966,2.075,1.962
				C16.154,13.028,17.064,12.146,17.06,11.046z"/>
		</g>
	</g>
</g>
<g id="Layer_39">
</g>
<g id="Layer_40">
</g>
</svg>
