<?xml version="1.0" encoding="utf-8"?>
<!-- Generator: Adobe Illustrator 17.0.0, SVG Export Plug-In . SVG Version: 6.00 Build 0)  -->
<!DOCTYPE svg PUBLIC "-//W3C//DTD SVG 1.1//EN" "http://www.w3.org/Graphics/SVG/1.1/DTD/svg11.dtd">
<svg version="1.1" id="Layer_1" xmlns="http://www.w3.org/2000/svg" xmlns:xlink="http://www.w3.org/1999/xlink" x="0px" y="0px"
	 width="355.224px" height="358.06px" viewBox="0 0 355.224 358.06" enable-background="new 0 0 355.224 358.06"
	 xml:space="preserve">
<g>
	<path fill="#F28106" d="M252.593,358.06c-4.726,0-9.399-0.399-12.813-1.093c-24.546-5.018-48.268-15.259-72.545-31.311
		c-51.283-33.896-94.842-78.015-129.459-131.125c-16.531-25.384-27.919-50.373-34.828-76.411l-0.179-0.676
		c-2.24-8.355-8.194-30.554,9.69-54.499C26.575,44.048,43.882,22.306,65.202,4.243L70.215,0h6.568
		c10.143,0,13.476,5.309,21.531,18.126c2.589,4.126,7.889,12.638,14.255,23.305c14.363,24.076,23.52,41.185,27.207,50.861
		c4.328,11.334,3.06,20.178-3.772,26.275c-2.916,2.607-5.905,5.148-8.893,7.688c-3.978,3.378-7.732,6.568-11.258,9.878l-0.806,0.753
		c-0.452,0.426-0.914,0.856-1.371,1.286c0.058,0.166,0.108,0.327,0.161,0.484l0.744,2.267c7.365,22.57,19.546,43.407,37.247,63.697
		c14.125,16.186,28.587,27.722,44.195,35.267c8.584,4.144,16.509,6.487,24.219,7.172c0.22,0.018,0.439,0.036,0.654,0.04
		c6.317-6.469,13.077-12.979,20.151-19.407c2.589-2.348,7.074-5.143,13.772-5.143c4.256,0,14.228,0,54.755,25.657
		c40.141,25.406,42.766,32.081,44.334,36.073c2.809,7.132,1.039,15.075-4.502,20.236c-5.64,5.251-12.033,11.2-19.152,16.666
		c-10.394,7.974-21.683,16.24-34.505,25.258l-1.393,0.883C278.877,356.191,263.098,358.06,252.593,358.06z"/>
</g>
</svg>
