<?xml version="1.0" encoding="utf-8"?>
<!-- Generator: Adobe Illustrator 17.0.0, SVG Export Plug-In . SVG Version: 6.00 Build 0)  -->
<!DOCTYPE svg PUBLIC "-//W3C//DTD SVG 1.1//EN" "http://www.w3.org/Graphics/SVG/1.1/DTD/svg11.dtd">
<svg version="1.1" id="Layer_5" xmlns="http://www.w3.org/2000/svg" xmlns:xlink="http://www.w3.org/1999/xlink" x="0px" y="0px"
	 width="507.708px" height="507px" viewBox="0 0 507.708 507" enable-background="new 0 0 507.708 507" xml:space="preserve">
<g>
	<path fill="none" stroke="#DD7200" stroke-width="35" d="M369.667,194.667c0,96.834-78.499,175.333-175.333,175.333
		S19,291.501,19,194.667c0-88.894,78.499-175.333,175.333-175.333S369.667,97.833,369.667,194.667z"/>
	<path fill="#DD7200" d="M235.437,290.351c-78.249,0-141.682-63.381-141.682-141.565c0-0.857,0.017-1.713,0.035-2.569
		c-9.838,16.381-15.499,34.996-15.499,53.791c0,60.112,48.771,108.843,108.933,108.843c22.91,0,44.163-7.072,61.706-19.143
		C244.488,290.128,239.989,290.351,235.437,290.351z"/>
	
		<rect x="306.141" y="319.139" transform="matrix(0.707 0.7073 -0.7073 0.707 340.9844 -140.7866)" fill="#DD7200" width="68.491" height="43.901"/>
	<g>
		<path fill="#DD7200" d="M479.232,497.431c-13.615,13.609-35.889,13.604-49.497-0.01l-92.483-92.522
			c-13.609-13.615-13.604-35.889,0.01-49.497l18.174-18.167c13.615-13.609,35.889-13.604,49.497,0.01l92.483,92.522
			c13.609,13.615,13.604,35.889-0.01,49.497L479.232,497.431z"/>
	</g>
</g>
</svg>
