<?xml version="1.0" encoding="utf-8"?>
<!-- Generator: Adobe Illustrator 17.0.0, SVG Export Plug-In . SVG Version: 6.00 Build 0)  -->
<!DOCTYPE svg PUBLIC "-//W3C//DTD SVG 1.1//EN" "http://www.w3.org/Graphics/SVG/1.1/DTD/svg11.dtd">
<svg version="1.1" id="Layer_1" xmlns="http://www.w3.org/2000/svg" xmlns:xlink="http://www.w3.org/1999/xlink" x="0px" y="0px"
	 width="320.105px" height="328.737px" viewBox="0 0 320.105 328.737" enable-background="new 0 0 320.105 328.737"
	 xml:space="preserve">
<path fill="#F28106" d="M14.367,114.472c1.183,4.131,5.488,6.518,9.619,5.34l11.63-3.329l13.171,46.028
	c1.281,4.476,5.945,7.06,10.416,5.784l35.62-10.192c4.476-1.281,7.06-5.945,5.784-10.42l-13.171-46.028l216.586-61.972
	c4.131-1.183,6.518-5.488,5.336-9.619l-3.629-12.683c-1.183-4.131-5.488-6.518-9.619-5.336L79.533,74.017L60.103,6.109
	c-1.281-4.476-5.945-7.06-10.42-5.784l-3.32,0.95c-2.177,0.623-4.014,2.097-5.094,4.09L18.408,47.598
	c-1.048,1.94-1.295,4.211-0.69,6.33l9.99,34.913l-11.63,3.329c-4.131,1.183-6.518,5.488-5.34,9.619L14.367,114.472z"/>
<path fill="#F28106" d="M320.104,195.304v-26.687H105.736v14.318H0c0,0,39.635,53.796,105.737,53.796
	c18.453,0,33.412,14.959,33.412,33.412s-14.959,33.412-33.412,33.412v25.182h81.146c0-14.381,11.657-26.038,26.038-26.038
	s26.038,11.657,26.038,26.038h81.146V302.05c-29.478,0-53.375-23.896-53.375-53.375C266.73,219.196,290.626,195.304,320.104,195.304
	z"/>
</svg>
