<?xml version="1.0" encoding="utf-8"?>
<!-- Generator: Adobe Illustrator 17.0.0, SVG Export Plug-In . SVG Version: 6.00 Build 0)  -->
<!DOCTYPE svg PUBLIC "-//W3C//DTD SVG 1.1//EN" "http://www.w3.org/Graphics/SVG/1.1/DTD/svg11.dtd">
<svg version="1.1" id="Layer_1" xmlns="http://www.w3.org/2000/svg" xmlns:xlink="http://www.w3.org/1999/xlink" x="0px" y="0px"
	 width="385.614px" height="358.094px" viewBox="0 0 385.614 358.094" enable-background="new 0 0 385.614 358.094"
	 xml:space="preserve">
<g id="Layer_1_1_" xmlns:svg="http://www.w3.org/2000/svg" xmlns:dc="http://purl.org/dc/elements/1.1/" xmlns:sodipodi="http://sodipodi.sourceforge.net/DTD/sodipodi-0.dtd" xmlns:cc="http://creativecommons.org/ns#" xmlns:inkscape="http://www.inkscape.org/namespaces/inkscape" xmlns:rdf="http://www.w3.org/1999/02/22-rdf-syntax-ns#">
	<g transform="translate(0,-952.36218)">
		<path fill="#F28106" d="M304.684,1310.415c7.502-0.597,13.087-6.995,12.474-14.292c-0.046-0.543-0.126-1.083-0.24-1.616
			l-24.076-113.964l88.323-78.458c5.564-4.931,5.965-13.315,0.895-18.726c-2.226-2.377-5.265-3.885-8.55-4.245l-118.876-12.981
			l-49.396-105.947c-3.087-6.677-11.154-9.656-18.02-6.654c-3.04,1.329-5.475,3.697-6.842,6.654l-49.395,105.947l-118.876,12.981
			c-7.48,0.819-12.861,7.381-12.019,14.656c0.37,3.195,1.921,6.15,4.364,8.315l88.323,78.458l-24.076,113.964
			c-1.513,7.172,3.238,14.178,10.611,15.651c3.236,0.645,6.602,0.126,9.474-1.461l104.026-57.46l104.025,57.46
			C299.212,1310.025,301.948,1310.624,304.684,1310.415z M284.14,1271.218l-84.594-46.769c-4.178-2.311-9.299-2.311-13.477,0
			l-84.594,46.769l19.561-92.711c0.966-4.585-0.626-9.325-4.187-12.472l-71.901-63.823l96.763-10.563
			c4.784-0.51,8.937-3.437,10.926-7.699l40.17-86.157l40.171,86.157c1.989,4.263,6.142,7.189,10.926,7.699l96.763,10.563
			l-71.901,63.823c-3.562,3.147-5.153,7.887-4.188,12.472L284.14,1271.218L284.14,1271.218z"/>
	</g>
</g>
</svg>
