<?xml version="1.0" encoding="utf-8"?>
<!-- Generator: Adobe Illustrator 17.0.0, SVG Export Plug-In . SVG Version: 6.00 Build 0)  -->
<!DOCTYPE svg PUBLIC "-//W3C//DTD SVG 1.1//EN" "http://www.w3.org/Graphics/SVG/1.1/DTD/svg11.dtd">
<svg version="1.1" id="Layer_1" xmlns="http://www.w3.org/2000/svg" xmlns:xlink="http://www.w3.org/1999/xlink" x="0px" y="0px"
	 width="385.614px" height="358.094px" viewBox="0 0 385.614 358.094" enable-background="new 0 0 385.614 358.094"
	 xml:space="preserve">
<g id="Layer_2">
	<path fill="#F28106" d="M304.684,358.053c7.502-0.597,13.087-6.995,12.474-14.292c-0.046-0.543-0.126-1.083-0.24-1.616
		l-24.076-113.964l88.323-78.459c5.564-4.931,5.965-13.315,0.895-18.726c-2.226-2.377-5.265-3.885-8.55-4.245L254.634,113.77
		L205.238,7.823c-3.087-6.677-11.154-9.656-18.02-6.654c-3.04,1.329-5.475,3.697-6.842,6.654L130.981,113.77L12.105,126.751
		c-7.48,0.819-12.861,7.381-12.019,14.656c0.37,3.195,1.921,6.15,4.364,8.315l88.323,78.459L68.698,342.145
		c-1.513,7.172,3.238,14.178,10.611,15.65c3.236,0.645,6.602,0.126,9.474-1.461l104.025-57.459l104.025,57.46
		C299.212,357.663,301.948,358.262,304.684,358.053z"/>
</g>
</svg>
