<?xml version="1.0" encoding="utf-8"?>
<!-- Generator: Adobe Illustrator 17.0.0, SVG Export Plug-In . SVG Version: 6.00 Build 0)  -->
<!DOCTYPE svg PUBLIC "-//W3C//DTD SVG 1.1//EN" "http://www.w3.org/Graphics/SVG/1.1/DTD/svg11.dtd">
<svg version="1.1" id="Layer_1" xmlns="http://www.w3.org/2000/svg" xmlns:xlink="http://www.w3.org/1999/xlink" x="0px" y="0px"
	 width="687.753px" height="448px" viewBox="0 0 687.753 448" enable-background="new 0 0 687.753 448" xml:space="preserve">
<path fill="#410C00" d="M180.75,412.485c-14.732,0-26.712-11.878-26.712-26.692c0-14.828,11.967-26.781,26.712-26.781
	c14.828,0,26.767,11.96,26.767,26.781C207.517,400.608,195.564,412.485,180.75,412.485 M119.155,385.793
	c0,34.023,27.489,61.643,61.609,61.643c34.099,0,61.581-27.613,61.581-61.643c0-34.099-27.496-61.657-61.581-61.657
	C146.658,324.136,119.155,351.681,119.155,385.793"/>
<path fill="#410C00" d="M376.751,413.049c-14.745,0-26.712-11.885-26.705-26.705c0-14.828,11.96-26.795,26.705-26.795
	c14.821,0,26.774,11.974,26.774,26.795C403.525,401.165,391.572,413.049,376.751,413.049 M315.15,386.343
	c0,34.016,27.482,61.657,61.602,61.657c34.098,0,61.574-27.641,61.574-61.657c0-34.098-27.475-61.67-61.574-61.67
	C342.646,324.673,315.15,352.244,315.15,386.343"/>
<path fill="#410C00" d="M0.002,88.404l0.151,232.748c0,44.147,15.55,59.793,59.786,59.793h35.117
	c2.778-45.027,39.759-80.556,85.329-80.563c45.563,0,82.53,35.522,85.315,80.384h11.217c-0.014,0.041-0.014,0.11-0.014,0.172h14.512
	c2.771-45.027,39.759-80.556,85.322-80.563c45.563,0,82.53,35.522,85.329,80.384h71.237c0,0,6.733,0,17.311,0
	c40.288,0,137.137,0,137.137,0c0-12.201-9.855-29.051-22.063-29.051h-56.492l-0.144-263.305C609.052,28.411,580.566,0,520.649,0
	L88.268,0C28.365,0-0.005,28.411,0.002,88.404z M346.401,53.665h107.874l-103.383,91.622h-38.287v-57.84
	C312.605,66.306,325.273,53.665,346.401,53.665z M460.698,126.512l25.013,4.745c-3.72,14.354-16.691,24.89-32.2,24.89
	c-2.503,0-4.952-0.255-7.304-0.791L460.698,126.512z M521.853,216.971v-0.014H415.939l26.3-53.713
	c3.59,0.997,7.366,1.575,11.272,1.575c19.739,0,36.341-13.59,40.839-31.905l3.838,0.688c6.629,1.218,13.569-1.802,17.097-8.012
	c4.436-7.833,1.623-17.847-6.231-22.283l-47.18-31.451l1.988-18.205h57.991c21.134,0,33.789,12.648,33.789,33.796v95.721
	C555.642,204.33,542.988,216.971,521.853,216.971L521.853,216.971z"/>
</svg>
