<?xml version="1.0" encoding="utf-8"?>
<!-- Generator: Adobe Illustrator 17.0.0, SVG Export Plug-In . SVG Version: 6.00 Build 0)  -->
<!DOCTYPE svg PUBLIC "-//W3C//DTD SVG 1.1//EN" "http://www.w3.org/Graphics/SVG/1.1/DTD/svg11.dtd">
<svg version="1.1" xmlns="http://www.w3.org/2000/svg" xmlns:xlink="http://www.w3.org/1999/xlink" x="0px" y="0px" width="30px"
	 height="30px" viewBox="0 0 30 30" enable-background="new 0 0 30 30" xml:space="preserve">
<g id="Фон_xA0_Image_1_">
</g>
<g id="Image_xA0_1_xA0_Image_1_" display="none">
	
		<image display="inline" overflow="visible" width="415" height="161" id="Image_xA0_1_xA0_Image" xlink:href="22D2533F.png"  transform="matrix(1 0 0 1 -176.4489 -56.2404)">
	</image>
</g>
<g id="Футер_1_">
	<g id="Логотип_копия_1_">
	</g>
</g>
<g id="Группа_1_1_">
	<g id="Войти_через_1_">
		<g id="Войти_через_соц.сети_1_">
			<g id="Гугл_2_">
				<g id="Гугл_xA0_Image_1_">
				</g>
				<g id="google-plus-2_xA0_Image_1_">
				</g>
			</g>
			<g id="Фейс_3_">
				<g id="Фейс_xA0_Image_3_">
				</g>
				<g id="Фейс_xA0_Image_1_">
				</g>
			</g>
			<g id="Линк_2_">
				<g id="Линк_xA0_Image_1_">
				</g>
				<g id="linkedin_xA0_Image_1_">
				</g>
			</g>
			<g id="Твит_1_">
				<g id="твит_xA0_Image_1_">
				</g>
				<g id="App-Twitter-icon1_xA0_Image_1_">
				</g>
			</g>
			<g id="Класик_1_">
				<g id="класник_xA0_Image_1_">
				</g>
				<g id="Znachok-Odnoklassniki-png_xA0_Image_1_">
				</g>
			</g>
			<g id="Вк_1_">
				<g id="вк_xA0_Image_1_">
				</g>
				<g id="вк-иконка_xA0_Image_1_">
				</g>
			</g>
			<g id="Инста_1_">
				<g id="instagram_x5F_yeni_x5F_logo_x5F_app_x5F_2_xA0_Image_1_">
				</g>
			</g>
			<g id="Маил_1_">
				<g id="маил_xA0_Image_1_">
				</g>
				<g id="mail_x5F_agent_x5F_ico_xA0_Image_1_">
				</g>
			</g>
		</g>
	</g>
</g>
<g id="Layer_33">
</g>
<g id="Layer_41">
</g>
<g id="Layer_47">
</g>
<g id="Layer_42">
	<g>
		<linearGradient id="SVGID_1_" gradientUnits="userSpaceOnUse" x1="27.266" y1="0.3819" x2="2.734" y2="29.6181">
			<stop  offset="0" style="stop-color:#63CDFF"/>
			<stop  offset="0.7" style="stop-color:#278FB6"/>
		</linearGradient>
		<path fill="url(#SVGID_1_)" d="M30,25c0,2.75-2.25,5-5,5H5c-2.75,0-5-2.25-5-5V5c0-2.75,2.25-5,5-5h20c2.75,0,5,2.25,5,5V25z"/>
	</g>
</g>
<g id="Layer_43">
</g>
<g id="Layer_44">
</g>
<g id="Layer_45">
</g>
<g id="Layer_46">
</g>
<g id="V">
</g>
<g id="M">
</g>
<g id="F">
</g>
<g id="G">
</g>
<g id="Layer_37">
</g>
<g id="Layer_38">
</g>
<g id="Layer_39">
	<g>
		<g>
			<path fill="#FFFFFF" d="M23,10.038c-0.589,0.261-1.221,0.438-1.885,0.517c0.678-0.406,1.197-1.05,1.443-1.815
				c-0.636,0.376-1.338,0.649-2.086,0.797C19.874,8.898,19.022,8.5,18.077,8.5c-1.813,0-3.282,1.47-3.282,3.282
				c0,0.257,0.029,0.508,0.085,0.748c-2.727-0.137-5.146-1.444-6.765-3.43c-0.283,0.484-0.444,1.048-0.444,1.65
				c0,1.139,0.58,2.144,1.46,2.732c-0.538-0.018-1.044-0.166-1.487-0.412v0.041c0,1.59,1.132,2.917,2.633,3.219
				c-0.275,0.074-0.565,0.115-0.865,0.115c-0.212,0-0.417-0.021-0.618-0.061c0.418,1.305,1.63,2.254,3.065,2.28
				c-1.123,0.88-2.539,1.403-4.076,1.403c-0.265,0-0.526-0.016-0.783-0.045c1.453,0.933,3.177,1.477,5.031,1.477
				c6.038,0,9.338-5.002,9.338-9.341l-0.011-0.425C22.003,11.274,22.561,10.696,23,10.038z"/>
		</g>
	</g>
</g>
<g id="Layer_40">
</g>
</svg>
