<?xml version="1.0" encoding="utf-8"?>
<!-- Generator: Adobe Illustrator 17.0.0, SVG Export Plug-In . SVG Version: 6.00 Build 0)  -->
<!DOCTYPE svg PUBLIC "-//W3C//DTD SVG 1.1//EN" "http://www.w3.org/Graphics/SVG/1.1/DTD/svg11.dtd">
<svg version="1.1" xmlns="http://www.w3.org/2000/svg" xmlns:xlink="http://www.w3.org/1999/xlink" x="0px" y="0px" width="30px"
	 height="30px" viewBox="0 0 30 30" enable-background="new 0 0 30 30" xml:space="preserve">
<g id="Фон_xA0_Image_1_">
</g>
<g id="Image_xA0_1_xA0_Image_1_" display="none">
	
		<image display="inline" overflow="visible" width="415" height="161" id="Image_xA0_1_xA0_Image" xlink:href="D898963A.png"  transform="matrix(1 0 0 1 -249.7208 -56.7518)">
	</image>
</g>
<g id="Футер_1_">
	<g id="Логотип_копия_1_">
	</g>
</g>
<g id="Группа_1_1_">
	<g id="Войти_через_1_">
		<g id="Войти_через_соц.сети_1_">
			<g id="Гугл_2_">
				<g id="Гугл_xA0_Image_1_">
				</g>
				<g id="google-plus-2_xA0_Image_1_">
				</g>
			</g>
			<g id="Фейс_3_">
				<g id="Фейс_xA0_Image_3_">
				</g>
				<g id="Фейс_xA0_Image_1_">
				</g>
			</g>
			<g id="Линк_2_">
				<g id="Линк_xA0_Image_1_">
				</g>
				<g id="linkedin_xA0_Image_1_">
				</g>
			</g>
			<g id="Твит_1_">
				<g id="твит_xA0_Image_1_">
				</g>
				<g id="App-Twitter-icon1_xA0_Image_1_">
				</g>
			</g>
			<g id="Класик_1_">
				<g id="класник_xA0_Image_1_">
				</g>
				<g id="Znachok-Odnoklassniki-png_xA0_Image_1_">
				</g>
			</g>
			<g id="Вк_1_">
				<g id="вк_xA0_Image_1_">
				</g>
				<g id="вк-иконка_xA0_Image_1_">
				</g>
			</g>
			<g id="Инста_1_">
				<g id="instagram_x5F_yeni_x5F_logo_x5F_app_x5F_2_xA0_Image_1_">
				</g>
			</g>
			<g id="Маил_1_">
				<g id="маил_xA0_Image_1_">
				</g>
				<g id="mail_x5F_agent_x5F_ico_xA0_Image_1_">
				</g>
			</g>
		</g>
	</g>
</g>
<g id="Layer_33">
</g>
<g id="Layer_41">
</g>
<g id="Layer_47">
</g>
<g id="Layer_42">
</g>
<g id="Layer_43">
</g>
<g id="Layer_44">
	<g>
		<linearGradient id="SVGID_1_" gradientUnits="userSpaceOnUse" x1="27.266" y1="0.3819" x2="2.734" y2="29.6181">
			<stop  offset="0" style="stop-color:#6D99CA"/>
			<stop  offset="0.7" style="stop-color:#4C75A3"/>
		</linearGradient>
		<path fill="url(#SVGID_1_)" d="M30,25c0,2.75-2.25,5-5,5H5c-2.75,0-5-2.25-5-5V5c0-2.75,2.25-5,5-5h20c2.75,0,5,2.25,5,5V25z"/>
	</g>
</g>
<g id="Layer_45">
</g>
<g id="Layer_46">
</g>
<g id="V">
	<path fill="#FFFFFF" d="M22.213,16.63c0.663,0.687,1.364,1.333,1.959,2.089c0.263,0.336,0.512,0.683,0.702,1.073
		c0.27,0.554,0.025,1.164-0.443,1.197l-2.914-0.001c-0.751,0.066-1.351-0.255-1.855-0.799c-0.403-0.436-0.777-0.899-1.165-1.35
		c-0.159-0.184-0.325-0.357-0.524-0.494c-0.398-0.274-0.743-0.19-0.97,0.25c-0.231,0.447-0.284,0.943-0.307,1.441
		c-0.031,0.727-0.239,0.919-0.928,0.952c-1.473,0.074-2.871-0.163-4.169-0.95c-1.145-0.694-2.033-1.675-2.805-2.785
		c-1.504-2.161-2.657-4.536-3.692-6.977c-0.233-0.55-0.063-0.845,0.51-0.856c0.951-0.02,1.901-0.018,2.853-0.001
		c0.386,0.006,0.642,0.241,0.791,0.628c0.514,1.341,1.144,2.616,1.933,3.798c0.21,0.315,0.425,0.63,0.73,0.851
		c0.338,0.245,0.595,0.164,0.754-0.235c0.101-0.253,0.145-0.526,0.168-0.797c0.075-0.932,0.085-1.863-0.047-2.792
		c-0.081-0.58-0.389-0.955-0.935-1.065C11.58,9.75,11.621,9.64,11.756,9.472C11.99,9.181,12.211,9,12.65,9h3.293
		c0.518,0.108,0.634,0.355,0.704,0.908l0.003,3.878c-0.006,0.214,0.101,0.849,0.465,0.991c0.291,0.101,0.483-0.146,0.658-0.342
		c0.788-0.887,1.351-1.936,1.854-3.021c0.223-0.477,0.415-0.973,0.601-1.469c0.138-0.368,0.354-0.548,0.744-0.54l3.169,0.003
		c0.094,0,0.189,0.001,0.28,0.018c0.534,0.096,0.68,0.34,0.515,0.893c-0.26,0.867-0.766,1.59-1.26,2.317
		c-0.529,0.775-1.094,1.524-1.618,2.304C21.576,15.653,21.615,16.012,22.213,16.63L22.213,16.63z"/>
</g>
<g id="M">
</g>
<g id="F">
</g>
<g id="G">
</g>
<g id="Layer_37">
</g>
<g id="Layer_38">
</g>
<g id="Layer_39">
</g>
<g id="Layer_40">
</g>
</svg>
