<svg xmlns="http://www.w3.org/2000/svg" width="419.624" height="415.887"><path fill="#F28106" d="M300.156 88.852c9.283 0 16.8-7.522 16.8-16.8V16.8c0-9.278-7.517-16.8-16.8-16.8-9.274 0-16.8 7.522-16.8 16.8v55.252c0 9.278 7.526 16.8 16.8 16.8zm-180.688 0c9.274 0 16.8-7.522 16.8-16.8V16.8c0-9.278-7.526-16.8-16.8-16.8-9.283 0-16.8 7.522-16.8 16.8v55.252c0 9.278 7.518 16.8 16.8 16.8zm277.756-47.793h-60.108v30.993c0 20.38-16.581 36.96-36.96 36.96s-36.96-16.58-36.96-36.96V41.059H156.428v30.993c0 20.38-16.58 36.96-36.96 36.96s-36.96-16.58-36.96-36.96V41.059H22.4c-12.374 0-22.4 10.026-22.4 22.4v91.84h419.624v-91.84c0-12.374-10.026-22.4-22.4-22.4zM0 393.487c0 12.374 10.026 22.4 22.4 22.4h374.824c12.374 0 22.4-10.026 22.4-22.4V173.219H0v220.268zm310.106-167.068h57.308v57.308h-57.308v-57.308zm0 81.76h57.308v57.308h-57.308v-57.308zm-85.967-81.76h57.308v57.308h-57.308v-57.308zm0 81.76h57.308v57.308h-57.308v-57.308zm-85.962-81.76h57.308v57.308h-57.308v-57.308zm0 81.76h57.308v57.308h-57.308v-57.308zm-85.967-81.76h57.308v57.308H52.21v-57.308zm0 81.76h57.308v57.308H52.21v-57.308z"/></svg>