<svg xmlns="http://www.w3.org/2000/svg" width="384.595" height="397.378"><path fill="#410C00" d="M252.727 286.493c12.741 11.742 27.243 23.529 51.901 27.283 5.73.878 11.312 1.331 16.598 1.331h.004c18.91 0 34.756-5.797 45.821-16.746 8.122-8.028 17.759-22.207 17.539-44.146l-.009-.323c-2.097-29.25-18.476-42.569-32.502-50.306 14.116-7.831 32.834-22.956 32.511-54.356l-.009-.287c-1.756-27.404-17.553-47.327-43.366-54.665-6.456-1.832-13.359-2.764-20.5-2.764-22.113 0-42.341 8.848-53.899 17.132-14.744 10.564-26.983 24.828-38.824 38.622-.847.99-1.68 1.953-2.518 2.925 5.909-11.411 11.666-23.52 16.446-36.279 5.743-16.352 10.824-34.335 4.507-58.464-6.774-25.975-20.218-43.68-38.886-51.211-15.035-6.066-31.638-5.636-47.479 1.375l-.296.139c-26.074 13.53-31.79 33.887-33.322 49.84-10.076-7.728-22.207-14.13-37.484-14.13-8.207 0-16.715 1.935-25.299 5.743l-.255.121C38.942 59.79 26.908 82.19 30.385 108.797c3.642 27.718 24.053 51.426 42.659 62.626 15.541 9.35 33.479 14.941 50.826 20.348.784.242 1.546.484 2.33.73-10.304-.981-20.975-1.658-31.777-1.662-1.693 0-3.387.018-5.192.058-17.315.699-35.907 2.625-55.996 17.405C11.596 224.188.1 243.215.001 263.348c-.067 11.424 3.149 28.26 18.807 43.613l.242.224c12.154 10.537 24.833 15.658 38.756 15.658h.004c7.025 0 13.588-1.308 19.797-3.091-4.449 15.519-7.011 39.469 15.443 61.457l.206.193c11.872 10.452 25.635 15.976 39.796 15.976 9.95 0 20.16-2.76 29.523-7.983 24.407-13.615 38.909-41.337 42.444-62.769 2.961-17.898 1.528-36.642.139-54.772-.22-2.872-.435-5.721-.632-8.53 32.48 65.784 84.345 126.09 165.312 126.09a10.619 10.619 0 0 0 10.622-10.622c0-5.864-4.758-10.613-10.622-10.613-70.202 0-116.364-54.024-145.94-113.626 8.678 10.732 18.185 21.713 28.829 31.94z"/></svg>