<svg xmlns="http://www.w3.org/2000/svg" width="295.749" height="383.316"><path fill="#410C00" d="M238.678 26.188c-1.595 3.145-2.393 7.312-1.994 10.815.255 2.231 3.015 6.98 5.851 6.608 7.015-.923 9.945 3.329 11.894 8.369 1.801 4.672 2.048 9.927 3.692 14.685 1.107 3.199 2.76 6.953 5.354 8.781 4.677 3.288 9.242 6.975 13.234 11.079 6.734 6.917 11.913 15.559 15.398 24.541 1.814 4.678 2.957 9.547 3.306 14.556.368 5.376.762 12.553-.748 17.768-1.622 5.609-5.233 10.237-8.436 15.008-3.386 5.044-6.581 10.241-10.765 14.685-1.443 1.528-5.905 2.469-7.334 2.079-5.264-1.447-8.239.574-8.512 4.861-.408 6.375-1.738 9.842-6.662 9.838-4.211-.004-8.417-1.581-14.125-2.773 5.922 37.404 11.782 74.4 17.651 111.436 2.527 3.898 8.866 12.858 10.806 19.327 3.628 12.104 8.359 23.882 12.109 35.956 3.678 11.836-.533 19.412-11.939 22.893-.722.219-1.479.434-2.106.833-16.137 10.255-31.678 5.219-46.767-2.352-3.656-1.837-8.162-5.945-8.597-9.462-1.12-9.058-1.349-18.583.237-27.534 1.564-8.83 3.159-17.669 5.457-26.342 1.08-4.064 2.253-8.14 3.817-12.047 1.254-3.118 3.463-7.02 2.298-10.479-1.931-5.712-10.572-1.366-14.143-.336-4.646 1.344-9.18 3.046-13.866 4.256-13.247 3.409-23.672-1.662-27.144-14.986-3.217-12.364-5.009-25.226-6.111-37.99-1.689-19.399-4.619-35.814-5.685-55.978 0-.004-9.43-.52-9.914-.551-39.814-2.777-77.316-16.88-108.537-41.852C27.181 134.506.713 115.475.01 102.393c-.237-4.377 3.615-6.317 7.271-7.271 6.876-1.796 14.282-1.523 21.311-1.375 10.927.233 21.84.69 32.758 1.004-3.06-7.934-6.85-15.649-8.938-23.928-1.308-5.197-4.991-21.477 2.204-24.434 3.419-1.402 6.783 3.333 8.956 5.291a280.44 280.44 0 0 0 11.411 9.726c12.826 10.354 25.657 20.711 38.734 30.742 3.611 2.76 8.391 6.528 12.15 6.044 8.866-1.147 17.857-3.656 26.024-7.325 8.66-3.893 16.384-9.838 24.6-14.757a81.72 81.72 0 0 0 7.948-5.412c8.387-6.483 15.255-14.816 19.412-24.609 2.097-4.933 3.494-10.143 4.265-15.443.77-5.317.466-10.805 1.514-16.065.435-2.168.856-4.211 2.361-5.972 3.029-3.548 9.31-5.663 13.718-6.989 7.589-2.28 16.038-2.356 23.3 1.08 4.328 2.048 7.984 6.017 3.974 10.564-4.207 4.767-11.348 7.092-14.305 12.924zm11.907 335.199c5.47 2.168 8.266.071 7.137-5.309-2.272-10.819-5.233-21.495-8.212-32.148-.318-1.138-2.554-2.159-4.05-2.446-3.942-.766-7.97-1.089-12.369-1.64-9.735 21.983-2.222 33.716 17.494 41.543z"/></svg>