<svg xmlns="http://www.w3.org/2000/svg" width="833.537" height="560"><path fill="#F28106" d="M4.677 296.908c423.496 548.014 765.755 81.237 825.018-8.656 5.327-8.656 5.327-19.31-1.332-27.301-424.828-549.346-768.419-75.91-825.018 10.654-4.661 7.99-4.661 17.978 1.332 25.303zM432.168 515.98c-143.163 9.322-261.023-109.203-252.366-252.366 7.99-117.86 103.876-213.746 221.736-221.07 143.163-9.322 261.023 109.203 252.366 252.366-7.324 117.86-103.21 213.746-221.736 221.07z"/><path fill="#F28106" d="M416.853 139.096c-16.647 0-32.628 3.329-47.943 8.656 22.64 7.325 39.287 28.633 39.287 53.27 0 30.63-25.303 55.933-55.933 55.933-28.633 0-52.604-21.974-55.933-49.941-12.652 20.642-19.976 45.279-19.976 71.249 0 77.241 62.592 139.834 139.834 139.834s139.834-62.592 139.834-139.834c.663-76.575-61.929-139.167-139.17-139.167z"/></svg>