<svg xmlns="http://www.w3.org/2000/svg" width="30" height="30"><linearGradient id="a" gradientUnits="userSpaceOnUse" x1="27.266" y1=".382" x2="2.734" y2="29.618"><stop offset="0" stop-color="#6084d0"/><stop offset=".7" stop-color="#2d4a87"/></linearGradient><path fill="url(#a)" d="M30 25c0 2.75-2.25 5-5 5H5c-2.75 0-5-2.25-5-5V5c0-2.75 2.25-5 5-5h20c2.75 0 5 2.25 5 5v20z"/><path fill="#FFF" d="M16.158 12.415v-1.292c0-.194.009-.344.027-.45a.87.87 0 0 1 .123-.314.506.506 0 0 1 .31-.214c.143-.04.333-.059.57-.059h1.294V7.5h-2.069c-1.197 0-2.057.284-2.58.851-.523.567-.784 1.403-.784 2.508v1.556H11.5V15h1.55v7.5h3.108V15h2.069l.273-2.585h-2.342z"/></svg>