<svg xmlns="http://www.w3.org/2000/svg" width="607.958" height="441.333" viewBox="30.458 98.5 607.958 441.333"><path fill="#F28106" d="M611.387 172.622H334.5c-34.607 0-59.713-73.442-101.298-73.442H57.613C42.65 99.18 30.6 110.1 30.6 123.66v391.684c0 13.56 12.05 24.476 27.013 24.476h553.774c14.967 0 27.013-10.916 27.013-24.476V197.102c0-13.56-12.046-24.48-27.013-24.48zM241.255 150c0 11-9.931 20-22.07 20H84.56c-12.138 0-22.07-9-22.07-20v-1.5c0-11 9.931-20 22.07-20h134.625c12.138 0 22.07 9 22.07 20v1.5z" xmlns:svg="http://www.w3.org/2000/svg" xmlns:rdf="http://www.w3.org/1999/02/22-rdf-syntax-ns#" xmlns:dc="http://purl.org/dc/elements/1.1/" xmlns:cc="http://creativecommons.org/ns#"/></svg>