<svg xmlns="http://www.w3.org/2000/svg" width="30" height="30"><linearGradient id="a" gradientUnits="userSpaceOnUse" x1="27.266" y1=".382" x2="2.734" y2="29.618"><stop offset="0" stop-color="#db4936"/><stop offset=".7" stop-color="#a82824"/></linearGradient><path fill="url(#a)" d="M30 25c0 2.75-2.25 5-5 5H5c-2.75 0-5-2.25-5-5V5c0-2.75 2.25-5 5-5h20c2.75 0 5 2.25 5 5v20z"/><path fill="#FFF" d="M20.526 13.751v-2.025H19.21v2.025h-1.974v1.35h1.974v2.025h1.316v-2.025H22.5v-1.35h-1.974zm-5.065 2.295l-.724-.54c-.263-.203-.526-.473-.526-.945s.329-.878.658-1.08c.855-.675 1.711-1.418 1.711-2.903 0-1.418-.855-2.228-1.316-2.633h1.118L17.171 7h-4.079C10.197 7 8.75 8.89 8.75 10.916c0 1.553 1.184 3.241 3.289 3.241h.526c-.066.203-.263.54-.263.878 0 .675.263.945.592 1.35-.921.068-2.632.27-3.882 1.08-1.183.742-1.512 1.754-1.512 2.497C7.5 21.515 8.882 23 11.842 23c3.553 0 5.263-2.025 5.263-3.983 0-1.418-.723-2.16-1.644-2.971zm-5-6.143c0-1.485.855-2.16 1.776-2.16 1.711 0 2.632 2.363 2.632 3.713 0 1.755-1.382 2.093-1.908 2.093-1.645 0-2.5-2.093-2.5-3.646zm2.368 12.152c-2.171 0-3.553-1.013-3.553-2.498 0-1.485 1.316-1.958 1.711-2.16.855-.27 1.974-.338 2.171-.338h.461c1.579 1.148 2.237 1.62 2.237 2.7-.001 1.283-1.251 2.296-3.027 2.296z"/></svg>