<svg xmlns="http://www.w3.org/2000/svg" width="387.52" height="353.92"><path fill="#F28106" d="M172.928 342.272l9.856 7.616c3.136 2.24 6.72 3.584 10.752 4.032h1.792c4.032 0 8.064-1.344 11.2-4.032l5.824-4.48C277.76 293.888 387.52 207.424 387.52 109.76 387.52 49.28 338.24 0 277.76 0c-33.152 0-63.616 14.336-84.224 38.976C172.928 14.784 142.016 0 109.76 0 49.28 0 0 49.28 0 109.76c.448 96.768 108.416 181.888 172.928 232.512zM109.76 35.84c28.224 0 54.656 16.576 66.752 42.112l.896 1.792c3.136 7.168 11.2 11.2 18.816 10.304 6.272-.896 11.2-4.928 13.888-10.304l1.344-2.688C224 51.52 249.536 35.392 277.76 35.392c40.768 0 73.92 33.152 73.92 73.92 0 77.952-99.904 158.592-157.248 203.84C138.88 270.144 36.288 189.056 36.288 109.76c0-40.768 33.152-73.92 73.472-73.92z"/></svg>