<svg xmlns="http://www.w3.org/2000/svg" width="30" height="30"><linearGradient id="a" gradientUnits="userSpaceOnUse" x1="27.266" y1=".382" x2="2.734" y2="29.618"><stop offset="0" stop-color="#4cb2e8"/><stop offset=".7" stop-color="#0177b5"/></linearGradient><path fill="url(#a)" d="M30 25c0 2.75-2.25 5-5 5H5c-2.75 0-5-2.25-5-5V5c0-2.75 2.25-5 5-5h20c2.75 0 5 2.25 5 5v20z"/><path d="M7.198 12.374h3.437V22.5H7.198zm14.719.925c-.722-.773-1.677-1.16-2.865-1.16-.437 0-.835.053-1.193.158-.358.106-.66.254-.906.444a4.434 4.434 0 0 0-.588.531 4.283 4.283 0 0 0-.406.541v-1.44h-3.427l.011.491c.007.327.011 1.335.011 3.024s-.007 3.893-.021 6.611h3.427v-5.651c0-.347.038-.623.115-.828.146-.348.366-.639.662-.874.295-.235.661-.353 1.099-.353.597 0 1.036.203 1.318.608.281.405.422.966.422 1.681V22.5H23v-5.803c0-1.493-.361-2.625-1.083-3.398zM8.937 7.5c-.576 0-1.043.165-1.401.496A1.63 1.63 0 0 0 7 9.247c0 .497.174.913.521 1.247.347.334.806.501 1.375.501h.021c.583 0 1.054-.167 1.412-.501.358-.334.533-.749.526-1.247-.007-.504-.184-.921-.531-1.252-.348-.33-.81-.495-1.387-.495z" fill="#FFF"/></svg>