<svg xmlns="http://www.w3.org/2000/svg" width="30" height="30"><linearGradient id="a" gradientUnits="userSpaceOnUse" x1="27.266" y1=".382" x2="2.734" y2="29.618"><stop offset="0" stop-color="#f2bb65"/><stop offset=".5" stop-color="#e2286b"/><stop offset="1" stop-color="#630793"/></linearGradient><path fill="url(#a)" d="M30 25c0 2.75-2.25 5-5 5H5c-2.75 0-5-2.25-5-5V5c0-2.75 2.25-5 5-5h20c2.75 0 5 2.25 5 5v20z"/><g fill="#FFF"><path d="M25 10.796c-.049-1.064-.218-1.791-.465-2.427a4.906 4.906 0 0 0-1.153-1.771 4.895 4.895 0 0 0-1.771-1.154c-.636-.247-1.363-.416-2.427-.464-1.066-.049-1.407-.06-4.123-.06s-3.056.012-4.123.06c-1.066.048-1.792.217-2.428.464a4.897 4.897 0 0 0-1.772 1.153 4.914 4.914 0 0 0-1.153 1.771c-.247.636-.416 1.363-.465 2.428-.049 1.067-.06 1.407-.06 4.123s.012 3.057.06 4.123c.049 1.064.218 1.791.465 2.427a4.906 4.906 0 0 0 1.153 1.771 4.893 4.893 0 0 0 1.771 1.153c.636.247 1.363.416 2.427.465 1.067.049 1.407.06 4.123.06s3.056-.011 4.123-.06c1.064-.049 1.791-.218 2.427-.465a5.11 5.11 0 0 0 2.924-2.924c.247-.636.416-1.363.465-2.427.049-1.067.06-1.407.06-4.123.002-2.716-.01-3.057-.058-4.123zm-1.8 8.164c-.044.975-.207 1.505-.344 1.857a3.313 3.313 0 0 1-1.898 1.898c-.352.137-.882.3-1.857.344-1.054.048-1.371.058-4.041.058-2.67 0-2.987-.01-4.041-.058-.975-.044-1.504-.207-1.857-.344a3.103 3.103 0 0 1-1.15-.748 3.095 3.095 0 0 1-.748-1.15c-.137-.352-.3-.882-.344-1.857-.048-1.054-.058-1.371-.058-4.041 0-2.67.01-2.986.058-4.041.045-.975.207-1.505.344-1.857.16-.434.416-.827.748-1.15a3.095 3.095 0 0 1 1.15-.748c.352-.137.882-.3 1.857-.344 1.054-.048 1.371-.059 4.041-.059 2.67 0 2.986.01 4.041.058.975.044 1.504.207 1.857.344.434.16.827.416 1.15.748.332.323.588.715.748 1.15.137.352.3.882.344 1.857.048 1.054.058 1.371.058 4.041 0 2.671-.01 2.987-.058 4.042z"/><path d="M15.06 9.784a5.135 5.135 0 1 0 0 10.27 5.135 5.135 0 0 0 0-10.27zm0 8.468a3.333 3.333 0 1 1 0-6.665 3.333 3.333 0 0 1 0 6.665zm6.538-8.671a1.2 1.2 0 1 1-2.4 0 1.2 1.2 0 0 1 2.4 0z"/></g></svg>