<svg xmlns="http://www.w3.org/2000/svg" width="410.542" height="507"><path fill="none" stroke="#F28106" stroke-width="26" stroke-miterlimit="10" d="M397.542 489c0 2.75-2.25 5-5 5h-375a5.003 5.003 0 0 1-4.99-5l.979-470c.006-2.75 2.26-5 5.01-5h374c2.75 0 5 2.25 5 5v470z"/><path fill="#F28106" d="M206.458 130c0 6.6-5.4 12-12 12H56.875c-6.6 0-12-5.4-12-12v-.083c0-6.6 5.4-12 12-12h137.583c6.6 0 12 5.4 12 12V130zm0 63.333c0 6.6-5.4 12-12 12H56.875c-6.6 0-12-5.4-12-12v-.083c0-6.6 5.4-12 12-12h137.583c6.6 0 12 5.4 12 12v.083zM363.958 253c0 6.6-5.4 12-12 12H56.875c-6.6 0-12-5.4-12-12v-.083c0-6.6 5.4-12 12-12h295.083c6.6 0 12 5.4 12 12V253zm0 63.063c0 6.6-5.4 12-12 12H56.875c-6.6 0-12-5.4-12-12v-.083c0-6.6 5.4-12 12-12h295.083c6.6 0 12 5.4 12 12v.083zm0 65.937c0 6.6-5.4 12-12 12H56.875c-6.6 0-12-5.4-12-12v-.083c0-6.6 5.4-12 12-12h295.083c6.6 0 12 5.4 12 12V382z"/><path fill="none" stroke="#F28106" stroke-width="26" stroke-miterlimit="10" d="M342.542 188c0 2.75-2.25 5-5 5h-85a5 5 0 0 1-4.987-5l.221-84.948c.007-2.75 2.263-5 5.013-5h84.753c2.75 0 5 2.25 5 5V188z"/></svg>