<svg xmlns="http://www.w3.org/2000/svg" width="425.6" height="425.6"><g fill="#F28106"><circle cx="212.8" cy="150.528" r="69.888"/><path d="M212.8 0C95.424 0 0 95.424 0 212.8s95.424 212.8 212.8 212.8 212.8-95.424 212.8-212.8S330.176 0 212.8 0zm107.072 355.264l-15.232-66.752c-6.272-27.776-31.36-47.488-59.584-47.488h-64.064c-28.672 0-53.312 19.712-59.584 47.488l-15.232 66.752C62.72 322.56 34.496 271.04 34.496 212.8c0-98.112 79.744-178.304 178.304-178.304 98.112 0 178.304 79.744 178.304 178.304 0 58.24-28.224 109.76-71.232 142.464z"/></g></svg>