<svg xmlns="http://www.w3.org/2000/svg" width="30" height="30"><linearGradient id="a" gradientUnits="userSpaceOnUse" x1="27.266" y1=".413" x2="2.734" y2="29.649"><stop offset="0" stop-color="#007bff"/><stop offset=".7" stop-color="#04458e"/></linearGradient><path fill="url(#a)" d="M30 25.031c0 2.75-2.25 5-5 5H5c-2.75 0-5-2.25-5-5v-20c0-2.75 2.25-5 5-5h20c2.75 0 5 2.25 5 5v20z"/><linearGradient id="b" gradientUnits="userSpaceOnUse" x1="15" y1="24.031" x2="15" y2="6.031"><stop offset="0" stop-color="#e44b43"/><stop offset="1" stop-color="#f9b74f"/></linearGradient><path fill="url(#b)" d="M13.971 6.089c-4.06.453-7.357 3.676-7.891 7.726-.756 5.739 3.935 10.621 9.618 10.19 2.091-.159 4.047-1.093 5.581-2.523l.132-.123a.375.375 0 0 0 .018-.53l-.512-.549a.375.375 0 0 0-.53-.018l-.274.256a7.495 7.495 0 0 1-6.408 1.903c-3.347-.57-5.921-3.412-6.182-6.798-.346-4.477 3.266-8.218 7.699-8.089 4.088.119 7.278 3.608 7.278 7.698v.549c0 .877-.755 1.58-1.65 1.493-.779-.076-1.35-.776-1.35-1.559v-3.308a.375.375 0 0 0-.375-.375h-.75a.373.373 0 0 0-.338.218A4.112 4.112 0 0 0 15 10.907c-2.275 0-4.125 1.85-4.125 4.125s1.85 4.125 4.125 4.125a4.124 4.124 0 0 0 3.436-1.847 2.987 2.987 0 0 0 2.77 1.465c1.592-.107 2.794-1.503 2.794-3.1v-.644c0-5.301-4.608-9.547-10.029-8.942zM15 17.656c-1.447 0-2.625-1.178-2.625-2.625s1.178-2.625 2.625-2.625 2.625 1.178 2.625 2.625-1.178 2.625-2.625 2.625z"/></svg>