<svg xmlns="http://www.w3.org/2000/svg" width="398.181" height="447.923"><path fill="#410C00" d="M277.944 442.244c-64.064-45.024-65.453-129.069-65.05-146.272-17.114-4.301-48.16-17.069-54.163-53.581 0 0 16.934 44.755 75.891 38.214 0 0 52.954 6.541 81.357 44.755 0 0 6.541 19.085 22.893 19.085s27.283 3.27 44.755-26.208l7.616-.538s13.126-19.667 3.27-56.762c0 0-61.152-52.954-80.237-111.91 0 0-8.198-12.589-23.654-27.418h-.045c-11.424-10.797-22.221-18.502-28.314-22.49-1.658-1.075-3.27-2.15-5.018-3.136-.045-.045-.134-.09-.134-.09s-2.643-67.469-20.294-92.019c0 0-.762.538-2.016 1.613-.717.582-1.389 1.254-2.106 1.926-.493.493-1.075 1.03-1.658 1.613-.851.896-1.702 1.747-2.464 2.643-2.688 3.002-5.869 7.034-9.318 12.186-3.853 5.958-7.706 13.35-10.886 22.266 3.853 13.306 4.704 23.386 4.704 23.386 9.318 6.63 14.426 14.157 14.426 14.157-6.63-3.898-18.234-9.363-18.234-9.363C203.262 30.935 181.668.023 181.668.023s-.179.09-.358.224c-.045.045-.134.09-.179.134-.224.179-.538.403-.941.672a.941.941 0 0 1-.224.134c-7.213 5.286-35.571 28.493-38.931 69.754 0 0-2.643-9.274-1.478-23.251 0 0-30.688 1.926-48.922 12.41-15.679 9.004-13.529 20.697-10.214 23.878-9.229 3.629-20.115 8.781-27.821 15.411-14.918 12.858-8.512 24.774-4.57 25.85-7.84 6.227-16.934 14.56-22.445 23.341-9.229 14.784-2.733 23.923 1.702 25.67-7.302 6.944-15.77 16.173-20.518 25.536-8.87 17.562 1.568 26.163 5.645 25.626-4.883 8.736-10.08 19.936-11.827 30.15-2.33 13.664 3.27 20.25 8.019 22.31C4.708 287.728.139 301.75.004 313.667c-.179 13.709 6.182 19.354 11.2 20.742-1.344 5.51-2.24 11.11-2.285 16.352 0 .314 0 .627.045.941 37.275 130.1 268.98 90.542 268.98 90.542zm70.471-151.335c1.523 0 3.002.224 4.39.627a9.926 9.926 0 0 0-1.926.717c-8.064 3.763-11.11 14.381-6.72 23.699a21.243 21.243 0 0 0 3.539 5.331c-8.333-.358-15.053-6.989-15.053-15.142.045-8.422 7.079-15.232 15.77-15.232zm-94.439-124.185s15.546 6.81 9.587 24.595c0 0-9.453 6.317-22.758-2.554-10.394-6.899-23.206-7.974-23.206-7.974s22.758-13.933 36.377-14.067z"/></svg>