<svg xmlns="http://www.w3.org/2000/svg" width="302.4" height="403.2"><g fill="#F28106"><path d="M151.2 0C67.702 0 0 67.724 0 151.2c0 97.108 108.9 218.306 126 236.84 7.065 7.679 13.019 15.16 25.2 15.16 12.186 0 18.113-7.482 25.2-15.16 17.127-18.534 126-139.731 126-236.84C302.4 67.724 234.676 0 151.2 0zm0 239.402c-48.702 0-88.202-39.496-88.202-88.202s39.5-88.202 88.202-88.202 88.202 39.496 88.202 88.202-39.5 88.202-88.202 88.202z"/><path d="M151.2 100.8c-27.834 0-50.4 22.593-50.4 50.4s22.566 50.4 50.4 50.4c27.812 0 50.4-22.593 50.4-50.4s-22.588-50.4-50.4-50.4z"/></g></svg>