<svg xmlns="http://www.w3.org/2000/svg" width="284.375" height="248.319" viewBox="256 146.125 284.375 248.319"><path fill="#F28106" d="M503.275 146.125H293.1c-20.515.063-37.11 16.716-37.1 37.231v117.521c.063 20.427 16.673 36.935 37.1 36.872h120.663l40.513 48.694c10.78 12.968 19.6 9.844 19.6-7V337.75h29.496c20.427.01 36.994-16.542 37.004-36.969V183.356c.009-20.515-16.586-37.168-37.101-37.231zm-62.244 139.6c0 3.535-3.385 6.4-7.56 6.4H293.935c-4.175 0-7.56-2.865-7.56-6.4v-7.2c0-3.535 3.385-6.4 7.56-6.4h139.537c4.175 0 7.56 2.865 7.56 6.4v7.2zm69.344-40c0 3.535-4.902 6.4-10.949 6.4H297.324c-6.047 0-10.949-2.865-10.949-6.4v-7.2c0-3.535 4.902-6.4 10.949-6.4h202.102c6.047 0 10.949 2.865 10.949 6.4v7.2zm0-40c0 3.535-4.902 6.4-10.949 6.4H297.324c-6.047 0-10.949-2.865-10.949-6.4v-7.2c0-3.535 4.902-6.4 10.949-6.4h202.102c6.047 0 10.949 2.865 10.949 6.4v7.2z"/></svg>