<svg xmlns="http://www.w3.org/2000/svg" width="332.864" height="419.776" viewBox="313.344 13.888 332.864 419.776"><path fill="#F28106" d="M313.344 175.616c0 16.128 20.16 25.984 45.248 31.808v43.008c0 20.16 30.016 30.464 62.72 34.944v21.504c-25.536 5.824-46.144 15.68-46.144 32.256v56c0 30.464 70.784 38.528 112.448 38.528s112.448-8.064 112.448-38.528v-42.112c25.536-5.824 46.144-15.68 46.144-32.256v-55.552c0-20.16-30.016-30.464-62.72-34.944V194.88c0-16.128-20.16-25.984-45.248-31.808v-20.608c28.224-5.376 52.416-15.68 52.416-33.152V52.864c.448-30.464-70.336-38.976-112.448-38.976S365.76 22.4 365.76 52.864v33.152c-28.224 5.376-52.416 15.68-52.416 33.152v56.448zm48.384-22.4s0 .448 0 0v35.392c-3.584-.896-6.72-1.792-9.856-2.688v-36.288c3.136.896 6.272 1.792 9.856 2.24v1.344zm25.536 72.128V257.6c-5.824-2.688-9.408-5.376-9.856-6.72v-32.704c3.136 1.344 6.272 2.688 9.856 4.032v3.136zm-15.68-34.496v-36.736c3.136.448 6.72.896 9.856 1.344v37.184c-3.136-.896-6.72-1.344-9.856-1.792zm20.16-34.048c3.136 0 6.272.448 9.856.448v37.184c-3.136-.448-6.72-.448-9.856-.896V156.8zm15.232 71.68v35.392c-3.584-.896-6.72-1.792-9.856-2.688v-36.288c3.136.896 6.272 1.792 9.856 2.24v1.344zm-2.688-145.152c3.136.448 6.272 1.344 9.856 1.792v36.736c-3.584-.896-6.72-1.792-9.856-2.688v-35.84zm6.72 76.608v-2.24c3.584 0 6.72.448 9.856.448v37.184c-3.584 0-6.72 0-9.856-.448v-34.944zm5.824 105.728v-36.736c3.136.448 6.72.896 9.856 1.344v37.184c-3.584-.448-6.72-.896-9.856-1.792zm34.048-108.416c3.136 0 6.272-.448 9.856-.896v37.184c-3.136.448-6.272.448-9.856.896v-37.184zm2.688-64.064v34.496c-3.136-.448-6.72-.448-9.856-.896V89.6c3.136.448 6.272.448 9.856.896v2.688zm-7.168 138.88v37.184c-3.584 0-6.72-.448-9.856-.448v-37.184c3.136 0 6.72.448 9.856.448zm3.584 60.032v35.84c-5.824-2.688-9.408-5.376-9.856-6.72v-32.704c3.136 1.344 6.272 2.688 9.856 3.584zm-8.96-97.216c-3.136 0-6.72 0-9.856.448v-37.184c3.136 0 6.72 0 9.856-.448v37.184zm-7.168-68.992c-3.584-.448-6.72-.896-9.856-1.792V87.36c3.136.448 6.72.896 9.856 1.344v37.184zm-30.016 244.16v32.256c-5.824-2.688-9.408-5.376-9.856-6.72V362.88c3.136 1.344 6.272 2.688 9.856 4.032v3.136zm19.712 3.136v35.392c-3.584-.896-6.72-1.792-9.856-2.688V369.6c3.136.896 6.272 1.792 9.856 2.24v1.344zm19.712 38.976c-3.584-.448-6.72-.896-9.856-1.792v-36.736c3.136.448 6.72.896 9.856 1.344v37.184zm19.712-32.256V414.4c-3.136-.448-6.72-.448-9.856-.896V376.32c3.136.448 6.272.448 9.856.896v2.688zm19.712-1.792v36.736c-3.584 0-6.72 0-9.856-.448v-37.184c3.584.448 6.72.448 9.856.896zm20.16 36.736c-3.136 0-6.72 0-9.856.448v-37.184c3.136 0 6.72 0 9.856-.448v37.184zm-14.784-55.552c-60.928 0-91.392-13.888-93.632-19.712 1.344-3.136 10.304-8.512 27.776-12.992 6.272 20.608 47.488 29.568 83.776 32.256-5.824 0-11.648.448-17.92.448zM459.84 295.68c3.136.448 6.272 1.344 9.856 1.792v36.736c-3.584-.896-6.72-1.792-9.856-2.688v-35.84zm6.272-62.272v36.736c-3.584 0-6.72 0-9.856-.448V232.96c3.136 0 6.72 0 9.856.448zm19.712 36.736c-3.136 0-6.72 0-9.856.448v-37.184c3.136 0 6.72 0 9.856-.448v37.184zm3.584 30.912v37.184c-3.584-.448-6.72-.896-9.856-1.792v-36.736c3.136.448 6.272.896 9.856 1.344zm6.72-68.992c3.136 0 6.272-.448 9.856-.896V268.8c-3.136.448-6.272.448-9.856.896v-37.632zm12.992 73.472v34.496c-3.136-.448-6.72-.448-9.856-.896v-37.184c3.136.448 6.272.448 9.856.896v2.688zm13.44 107.968c-3.136.448-6.272.448-9.856.896v-37.184c3.136 0 6.272-.448 9.856-.896v37.184zm6.272-109.312v36.736c-3.584 0-6.72 0-9.856-.448v-37.184c3.136.448 6.72.448 9.856.896 0-.448 0-.448 0 0zm-13.44-36.736v-37.184c3.136-.448 6.72-.896 9.856-1.344v36.736c-2.688.896-6.272 1.344-9.856 1.792zm26.88 142.912c-3.136.448-6.272 1.344-9.856 1.792v-37.184c3.136-.448 6.72-.896 9.856-1.344v36.736zm6.272-69.888c-3.136 0-6.72 0-9.856.448v-37.184c3.136 0 6.72 0 9.856-.448v37.184zm13.44 65.408c-2.688.896-6.272 1.792-9.856 2.688V371.84c3.136-.896 6.72-1.344 9.856-2.24v36.288zm6.272-66.752c-3.136.448-6.272.448-9.856.896v-37.184c3.136 0 6.272-.448 9.856-.896v37.184zm13.44 56c-.448 1.792-4.032 4.48-9.856 7.168v-35.392c3.584-1.344 6.72-2.688 9.856-4.032v32.256zm6.72-58.688c-3.136.448-6.272 1.344-9.856 1.792v-37.184c3.136-.448 6.72-.896 9.856-1.344v36.736zm19.264-4.928c-2.688.896-6.272 1.792-9.856 2.688v-36.736c3.136-.896 6.72-1.344 9.856-2.24v36.288zm19.712-10.752c-.448 1.792-4.032 4.48-9.856 7.168v-35.392c3.584-1.344 6.72-2.688 9.856-4.032v32.256zm-43.456-70.336v-1.344c27.776 4.48 42.112 12.096 43.904 16.128-2.24 5.824-32.704 19.712-93.632 19.712h-8.512c30.464-5.376 58.24-15.68 58.24-34.496zm-48.384 13.44v-36.736c3.136-.896 6.72-1.344 9.856-2.24v36.288c-3.136.896-6.272 1.792-9.856 2.688zm29.568-13.44c-.448 1.792-4.032 4.48-9.856 7.168v-35.392c3.584-1.344 6.72-2.688 9.856-4.032v32.256zm-.448-56c-2.24 5.824-32.704 19.712-93.632 19.712-8.512 0-16.576-.448-24.192-.896 37.632-2.24 82.88-10.752 90.496-31.808 17.472 4.48 26.432 9.856 27.328 12.992zM473.28 91.84v36.736c-3.584 0-6.72 0-9.856-.448V90.944c3.136.448 6.72.448 9.856.896 0-.448 0 0 0 0zm7.168 62.272v36.736c-3.136.448-6.272 1.344-9.856 1.792v-37.184c3.136-.448 6.72-.896 9.856-1.344zm12.544-25.984c-3.136 0-6.72 0-9.856.448V91.392c3.136 0 6.72 0 9.856-.448v37.184zm7.168 21.504v36.288c-2.688.896-6.272 1.792-9.856 2.688v-36.736c3.584-.448 6.72-1.344 9.856-2.24zm9.856-2.688c.896-.448 1.344-.448 2.24-.896 2.688-.448 4.928-.448 7.616-.896v30.464c-.448 1.792-4.032 4.48-9.856 7.168v-35.84zm2.688-20.16c-3.136.448-6.272.448-9.856.896V90.496c3.136 0 6.272-.448 9.856-.896v37.184zm9.856-.896V88.704c3.136-.448 6.72-.896 9.856-1.344v36.736c-2.688.448-6.272 1.344-9.856 1.792zm29.568-6.72c-2.688.896-6.272 1.792-9.856 2.688V85.12c3.136-.896 6.72-1.344 9.856-2.24v36.288zm19.712-10.752c-.448 1.792-4.032 4.48-9.856 7.168V80.192c3.584-1.344 6.72-2.688 9.856-4.032v32.256zm-93.632-75.264c60.928 0 91.392 13.888 93.632 19.712-2.24 5.824-32.704 19.712-93.632 19.712s-91.392-13.888-93.632-19.712c2.24-5.824 32.704-19.712 93.632-19.712zm-93.632 42.56c3.136 1.344 6.272 2.688 9.856 4.032v35.84c-5.824-2.688-9.408-5.376-9.856-6.72V75.712zM365.76 105.28v3.584c0 14.336 15.68 23.744 37.184 30.016-45.248-3.136-68.544-13.888-70.336-19.264 1.344-3.584 12.096-9.856 33.152-14.336zm-33.152 37.184c3.136 1.344 6.272 2.688 9.856 4.032v35.84c-5.824-2.688-9.408-5.376-9.856-6.72v-33.152z"/></svg>