<svg xmlns="http://www.w3.org/2000/svg" width="30" height="30"><linearGradient id="a" gradientUnits="userSpaceOnUse" x1="27.266" y1=".382" x2="2.734" y2="29.618"><stop offset="0" stop-color="#ff9e48"/><stop offset=".7" stop-color="#f37504"/></linearGradient><path fill="url(#a)" d="M30 25c0 2.75-2.25 5-5 5H5c-2.75 0-5-2.25-5-5V5c0-2.75 2.25-5 5-5h20c2.75 0 5 2.25 5 5v20z"/><g fill="#FFF"><path d="M14.18 18.27c-1.291-.129-2.455-.435-3.452-1.184-.124-.093-.251-.183-.364-.287-.436-.403-.48-.863-.135-1.339.295-.407.791-.515 1.306-.282.1.045.195.102.286.162 1.857 1.226 4.409 1.26 6.273.055.185-.136.382-.247.611-.304.445-.11.86.047 1.099.421.273.427.269.844-.067 1.176-.516.508-1.136.876-1.825 1.133-.651.243-1.365.365-2.071.446.107.111.157.166.223.231.959.926 1.922 1.847 2.878 2.776.326.316.394.709.214 1.077-.196.402-.635.667-1.065.638-.273-.018-.485-.148-.674-.331-.724-.7-1.461-1.386-2.17-2.099-.206-.207-.306-.168-.488.012-.728.72-1.468 1.429-2.212 2.134-.334.317-.732.374-1.119.193-.412-.192-.674-.596-.654-1.002.014-.275.155-.484.351-.673.949-.91 1.895-1.823 2.842-2.735.064-.06.122-.125.213-.218z"/><path d="M14.967 15.099c-2.303-.008-4.192-1.842-4.178-4.058C10.802 8.8 12.691 6.994 15.017 7c2.331.006 4.201 1.838 4.189 4.102-.011 2.212-1.913 4.004-4.239 3.997zm2.093-4.053c-.004-1.1-.916-1.976-2.059-1.977-1.153-.001-2.073.891-2.064 2.001.009 1.096.929 1.966 2.075 1.962 1.142-.004 2.052-.886 2.048-1.986z"/></g></svg>