<svg xmlns="http://www.w3.org/2000/svg" width="355.224" height="358.06"><path fill="#F28106" d="M252.593 358.06c-4.726 0-9.399-.399-12.813-1.093-24.546-5.018-48.268-15.259-72.545-31.311-51.283-33.896-94.842-78.015-129.459-131.125-16.531-25.384-27.919-50.373-34.828-76.411l-.179-.676c-2.24-8.355-8.194-30.554 9.69-54.499C26.575 44.048 43.882 22.306 65.202 4.243L70.215 0h6.568c10.143 0 13.476 5.309 21.531 18.126a1246.314 1246.314 0 0 1 14.255 23.305c14.363 24.076 23.52 41.185 27.207 50.861 4.328 11.334 3.06 20.178-3.772 26.275-2.916 2.607-5.905 5.148-8.893 7.688-3.978 3.378-7.732 6.568-11.258 9.878l-.806.753c-.452.426-.914.856-1.371 1.286.058.166.108.327.161.484l.744 2.267c7.365 22.57 19.546 43.407 37.247 63.697 14.125 16.186 28.587 27.722 44.195 35.267 8.584 4.144 16.509 6.487 24.219 7.172.22.018.439.036.654.04a470.396 470.396 0 0 1 20.151-19.407c2.589-2.348 7.074-5.143 13.772-5.143 4.256 0 14.228 0 54.755 25.657 40.141 25.406 42.766 32.081 44.334 36.073 2.809 7.132 1.039 15.075-4.502 20.236-5.64 5.251-12.033 11.2-19.152 16.666-10.394 7.974-21.683 16.24-34.505 25.258l-1.393.883c-15.479 8.869-31.258 10.738-41.763 10.738z"/></svg>