<svg xmlns="http://www.w3.org/2000/svg" width="507.708" height="507"><path fill="none" stroke="#DD7200" stroke-width="35" d="M369.667 194.667c0 96.834-78.499 175.333-175.333 175.333S19 291.501 19 194.667c0-88.894 78.499-175.333 175.333-175.333s175.334 78.499 175.334 175.333z"/><path fill="#DD7200" d="M235.437 290.351c-78.249 0-141.682-63.381-141.682-141.565 0-.857.017-1.713.035-2.569-9.838 16.381-15.499 34.996-15.499 53.791 0 60.112 48.771 108.843 108.933 108.843 22.91 0 44.163-7.072 61.706-19.143-4.442.42-8.941.643-13.493.643zm96.263 11.027l48.422 48.444-31.051 31.038-48.423-48.444z"/><path fill="#DD7200" d="M479.232 497.431c-13.615 13.609-35.889 13.604-49.497-.01l-92.483-92.522c-13.609-13.615-13.604-35.889.01-49.497l18.174-18.167c13.615-13.609 35.889-13.604 49.497.01l92.483 92.522c13.609 13.615 13.604 35.889-.01 49.497l-18.174 18.167z"/></svg>