<svg xmlns="http://www.w3.org/2000/svg" width="320.105" height="328.737"><path fill="#410C00" d="M14.367 114.472a7.783 7.783 0 0 0 9.619 5.34l11.63-3.329 13.171 46.028a8.427 8.427 0 0 0 10.416 5.784l35.62-10.192c4.476-1.281 7.06-5.945 5.784-10.42l-13.171-46.028 216.586-61.972a7.777 7.777 0 0 0 5.336-9.619l-3.629-12.683a7.777 7.777 0 0 0-9.619-5.336L79.533 74.017 60.103 6.109c-1.281-4.476-5.945-7.06-10.42-5.784l-3.32.95a8.434 8.434 0 0 0-5.094 4.09L18.408 47.598a8.44 8.44 0 0 0-.69 6.33l9.99 34.913-11.63 3.329a7.783 7.783 0 0 0-5.34 9.619l3.629 12.683zm305.737 80.832v-26.687H105.736v14.318H0s39.635 53.796 105.737 53.796c18.453 0 33.412 14.959 33.412 33.412s-14.959 33.412-33.412 33.412v25.182h81.146c0-14.381 11.657-26.038 26.038-26.038s26.038 11.657 26.038 26.038h81.146V302.05c-29.478 0-53.375-23.896-53.375-53.375s23.896-53.371 53.374-53.371z"/></svg>