<svg xmlns="http://www.w3.org/2000/svg" width="385.614" height="358.094"><path fill="#F28106" d="M304.684 358.053c7.502-.597 13.087-6.995 12.474-14.292a12.957 12.957 0 0 0-.24-1.616l-24.076-113.964 88.323-78.459c5.564-4.931 5.965-13.315.895-18.726-2.226-2.377-5.265-3.885-8.55-4.245L254.634 113.77 205.238 7.823c-3.087-6.677-11.154-9.656-18.02-6.654-3.04 1.329-5.475 3.697-6.842 6.654L130.981 113.77 12.105 126.751c-7.48.819-12.861 7.381-12.019 14.656.37 3.195 1.921 6.15 4.364 8.315l88.323 78.459-24.075 113.964c-1.513 7.172 3.238 14.178 10.611 15.65 3.236.645 6.602.126 9.474-1.461l104.025-57.459 104.025 57.46a13.941 13.941 0 0 0 7.851 1.718z"/></svg>