<svg xmlns="http://www.w3.org/2000/svg" width="385.614" height="358.094"><path fill="#F28106" d="M304.684 358.053c7.502-.597 13.087-6.995 12.474-14.292a12.957 12.957 0 0 0-.24-1.616L292.842 228.18l88.323-78.458c5.564-4.931 5.965-13.315.895-18.726-2.226-2.377-5.265-3.885-8.55-4.245L254.634 113.77 205.238 7.824c-3.087-6.677-11.154-9.656-18.02-6.654-3.04 1.329-5.475 3.697-6.842 6.654L130.981 113.77 12.105 126.75c-7.48.82-12.861 7.382-12.019 14.657.37 3.195 1.921 6.15 4.364 8.315l88.323 78.458-24.076 113.964c-1.513 7.172 3.238 14.178 10.611 15.65 3.236.646 6.602.127 9.474-1.46l104.026-57.46 104.025 57.46a13.941 13.941 0 0 0 7.851 1.718zm-20.544-39.197l-84.594-46.77a13.966 13.966 0 0 0-13.477 0l-84.594 46.77 19.561-92.711c.966-4.585-.626-9.325-4.187-12.472L44.948 149.85l96.763-10.563c4.784-.51 8.937-3.437 10.926-7.7l40.17-86.156 40.171 86.157c1.989 4.263 6.142 7.189 10.926 7.699l96.763 10.563-71.901 63.823c-3.562 3.147-5.153 7.887-4.188 12.472l19.562 92.71z" xmlns:svg="http://www.w3.org/2000/svg" xmlns:dc="http://purl.org/dc/elements/1.1/" xmlns:sodipodi="http://sodipodi.sourceforge.net/DTD/sodipodi-0.dtd" xmlns:cc="http://creativecommons.org/ns#" xmlns:inkscape="http://www.inkscape.org/namespaces/inkscape" xmlns:rdf="http://www.w3.org/1999/02/22-rdf-syntax-ns#"/></svg>