<svg xmlns="http://www.w3.org/2000/svg" width="687.753" height="448"><path fill="#410C00" d="M180.75 412.485c-14.732 0-26.712-11.878-26.712-26.692 0-14.828 11.967-26.781 26.712-26.781 14.828 0 26.767 11.96 26.767 26.781 0 14.815-11.953 26.692-26.767 26.692m-61.595-26.692c0 34.023 27.489 61.643 61.609 61.643 34.099 0 61.581-27.613 61.581-61.643 0-34.099-27.496-61.657-61.581-61.657-34.106 0-61.609 27.545-61.609 61.657m257.596 27.256c-14.745 0-26.712-11.885-26.705-26.705 0-14.828 11.96-26.795 26.705-26.795 14.821 0 26.774 11.974 26.774 26.795 0 14.821-11.953 26.705-26.774 26.705m-61.601-26.706c0 34.016 27.482 61.657 61.602 61.657 34.098 0 61.574-27.641 61.574-61.657 0-34.098-27.475-61.67-61.574-61.67-34.106 0-61.602 27.571-61.602 61.67"/><path fill="#410C00" d="M.002 88.404l.151 232.748c0 44.147 15.55 59.793 59.786 59.793h35.117c2.778-45.027 39.759-80.556 85.329-80.563 45.563 0 82.53 35.522 85.315 80.384h11.217c-.014.041-.014.11-.014.172h14.512c2.771-45.027 39.759-80.556 85.322-80.563 45.563 0 82.53 35.522 85.329 80.384h225.685c0-12.201-9.855-29.051-22.063-29.051h-56.492l-.144-263.305C609.052 28.411 580.566 0 520.649 0H88.268C28.365 0-.005 28.411.002 88.404zm346.399-34.739h107.874l-103.383 91.622h-38.287v-57.84c0-21.141 12.668-33.782 33.796-33.782zm114.297 72.847l25.013 4.745c-3.72 14.354-16.691 24.89-32.2 24.89-2.503 0-4.952-.255-7.304-.791l14.491-28.844zm61.155 90.459v-.014H415.939l26.3-53.713c3.59.997 7.366 1.575 11.272 1.575 19.739 0 36.341-13.59 40.839-31.905l3.838.688a16.282 16.282 0 0 0 17.097-8.012c4.436-7.833 1.623-17.847-6.231-22.283l-47.18-31.451 1.988-18.205h57.991c21.134 0 33.789 12.648 33.789 33.796v95.721c0 21.162-12.654 33.803-33.789 33.803z"/></svg>