<svg xmlns="http://www.w3.org/2000/svg" width="30" height="30"><linearGradient id="a" gradientUnits="userSpaceOnUse" x1="27.266" y1=".382" x2="2.734" y2="29.618"><stop offset="0" stop-color="#63cdff"/><stop offset=".7" stop-color="#278fb6"/></linearGradient><path fill="url(#a)" d="M30 25c0 2.75-2.25 5-5 5H5c-2.75 0-5-2.25-5-5V5c0-2.75 2.25-5 5-5h20c2.75 0 5 2.25 5 5v20z"/><path fill="#FFF" d="M23 10.038a6.555 6.555 0 0 1-1.885.517 3.297 3.297 0 0 0 1.443-1.815 6.618 6.618 0 0 1-2.086.797 3.282 3.282 0 0 0-5.592 2.993A9.32 9.32 0 0 1 8.115 9.1a3.281 3.281 0 0 0 1.016 4.382 3.283 3.283 0 0 1-1.487-.412v.041a3.286 3.286 0 0 0 2.633 3.219 3.325 3.325 0 0 1-.865.115c-.212 0-.417-.021-.618-.061a3.284 3.284 0 0 0 3.065 2.28 6.586 6.586 0 0 1-4.076 1.403c-.265 0-.526-.016-.783-.045a9.276 9.276 0 0 0 5.031 1.477c6.038 0 9.338-5.002 9.338-9.341l-.011-.425A6.535 6.535 0 0 0 23 10.038z"/></svg>