<svg xmlns="http://www.w3.org/2000/svg" width="30" height="30"><linearGradient id="a" gradientUnits="userSpaceOnUse" x1="27.266" y1=".382" x2="2.734" y2="29.618"><stop offset="0" stop-color="#6d99ca"/><stop offset=".7" stop-color="#4c75a3"/></linearGradient><path fill="url(#a)" d="M30 25c0 2.75-2.25 5-5 5H5c-2.75 0-5-2.25-5-5V5c0-2.75 2.25-5 5-5h20c2.75 0 5 2.25 5 5v20z"/><path fill="#FFF" d="M22.213 16.63c.663.687 1.364 1.333 1.959 2.089.263.336.512.683.702 1.073.27.554.025 1.164-.443 1.197l-2.914-.001c-.751.066-1.351-.255-1.855-.799-.403-.436-.777-.899-1.165-1.35a2.816 2.816 0 0 0-.524-.494c-.398-.274-.743-.19-.97.25-.231.447-.284.943-.307 1.441-.031.727-.239.919-.928.952-1.473.074-2.871-.163-4.169-.95-1.145-.694-2.033-1.675-2.805-2.785-1.504-2.161-2.657-4.536-3.692-6.977-.233-.55-.063-.845.51-.856.951-.02 1.901-.018 2.853-.001.386.006.642.241.791.628.514 1.341 1.144 2.616 1.933 3.798.21.315.425.63.73.851.338.245.595.164.754-.235.101-.253.145-.526.168-.797.075-.932.085-1.863-.047-2.792-.081-.58-.389-.955-.935-1.065-.279-.057-.238-.167-.103-.335.234-.291.455-.472.894-.472h3.293c.518.108.634.355.704.908l.003 3.878c-.006.214.101.849.465.991.291.101.483-.146.658-.342.788-.887 1.351-1.936 1.854-3.021.223-.477.415-.973.601-1.469.138-.368.354-.548.744-.54l3.169.003c.094 0 .189.001.28.018.534.096.68.34.515.893-.26.867-.766 1.59-1.26 2.317-.529.775-1.094 1.524-1.618 2.304-.482.713-.443 1.072.155 1.69z"/></svg>