<?xml version="1.0" encoding="utf-8"?><svg xmlns="http://www.w3.org/2000/svg" xmlns:xlink="http://www.w3.org/1999/xlink"><symbol viewBox="0 0 419.624 415.887" id="calendar" xmlns="http://www.w3.org/2000/svg"><path d="M300.156 88.852c9.283 0 16.8-7.522 16.8-16.8V16.8c0-9.278-7.517-16.8-16.8-16.8-9.274 0-16.8 7.522-16.8 16.8v55.252c0 9.278 7.526 16.8 16.8 16.8zm-180.688 0c9.274 0 16.8-7.522 16.8-16.8V16.8c0-9.278-7.526-16.8-16.8-16.8-9.283 0-16.8 7.522-16.8 16.8v55.252c0 9.278 7.518 16.8 16.8 16.8zm277.756-47.793h-60.108v30.993c0 20.38-16.581 36.96-36.96 36.96s-36.96-16.58-36.96-36.96V41.059H156.428v30.993c0 20.38-16.58 36.96-36.96 36.96s-36.96-16.58-36.96-36.96V41.059H22.4c-12.374 0-22.4 10.026-22.4 22.4v91.84h419.624v-91.84c0-12.374-10.026-22.4-22.4-22.4zM0 393.487c0 12.374 10.026 22.4 22.4 22.4h374.824c12.374 0 22.4-10.026 22.4-22.4V173.219H0v220.268zm310.106-167.068h57.308v57.308h-57.308v-57.308zm0 81.76h57.308v57.308h-57.308v-57.308zm-85.967-81.76h57.308v57.308h-57.308v-57.308zm0 81.76h57.308v57.308h-57.308v-57.308zm-85.962-81.76h57.308v57.308h-57.308v-57.308zm0 81.76h57.308v57.308h-57.308v-57.308zm-85.967-81.76h57.308v57.308H52.21v-57.308zm0 81.76h57.308v57.308H52.21v-57.308z"/></symbol><symbol viewBox="0 0 419.624 415.887" id="calendar-orange" xmlns="http://www.w3.org/2000/svg"><path d="M300.156 88.852c9.283 0 16.8-7.522 16.8-16.8V16.8c0-9.278-7.517-16.8-16.8-16.8-9.274 0-16.8 7.522-16.8 16.8v55.252c0 9.278 7.526 16.8 16.8 16.8zm-180.688 0c9.274 0 16.8-7.522 16.8-16.8V16.8c0-9.278-7.526-16.8-16.8-16.8-9.283 0-16.8 7.522-16.8 16.8v55.252c0 9.278 7.518 16.8 16.8 16.8zm277.756-47.793h-60.108v30.993c0 20.38-16.581 36.96-36.96 36.96s-36.96-16.58-36.96-36.96V41.059H156.428v30.993c0 20.38-16.58 36.96-36.96 36.96s-36.96-16.58-36.96-36.96V41.059H22.4c-12.374 0-22.4 10.026-22.4 22.4v91.84h419.624v-91.84c0-12.374-10.026-22.4-22.4-22.4zM0 393.487c0 12.374 10.026 22.4 22.4 22.4h374.824c12.374 0 22.4-10.026 22.4-22.4V173.219H0v220.268zm310.106-167.068h57.308v57.308h-57.308v-57.308zm0 81.76h57.308v57.308h-57.308v-57.308zm-85.967-81.76h57.308v57.308h-57.308v-57.308zm0 81.76h57.308v57.308h-57.308v-57.308zm-85.962-81.76h57.308v57.308h-57.308v-57.308zm0 81.76h57.308v57.308h-57.308v-57.308zm-85.967-81.76h57.308v57.308H52.21v-57.308zm0 81.76h57.308v57.308H52.21v-57.308z"/></symbol><symbol viewBox="0 0 384.595 397.378" id="clever" xmlns="http://www.w3.org/2000/svg"><path d="M252.727 286.493c12.741 11.742 27.243 23.529 51.901 27.283 5.73.878 11.312 1.331 16.598 1.331h.004c18.91 0 34.756-5.797 45.821-16.746 8.122-8.028 17.759-22.207 17.539-44.146l-.009-.323c-2.097-29.25-18.476-42.569-32.502-50.306 14.116-7.831 32.834-22.956 32.511-54.356l-.009-.287c-1.756-27.404-17.553-47.327-43.366-54.665-6.456-1.832-13.359-2.764-20.5-2.764-22.113 0-42.341 8.848-53.899 17.132-14.744 10.564-26.983 24.828-38.824 38.622-.847.99-1.68 1.953-2.518 2.925 5.909-11.411 11.666-23.52 16.446-36.279 5.743-16.352 10.824-34.335 4.507-58.464-6.774-25.975-20.218-43.68-38.886-51.211-15.035-6.066-31.638-5.636-47.479 1.375l-.296.139c-26.074 13.53-31.79 33.887-33.322 49.84-10.076-7.728-22.207-14.13-37.484-14.13-8.207 0-16.715 1.935-25.299 5.743l-.255.121C38.942 59.79 26.908 82.19 30.385 108.797c3.642 27.718 24.053 51.426 42.659 62.626 15.541 9.35 33.479 14.941 50.826 20.348.784.242 1.546.484 2.33.73-10.304-.981-20.975-1.658-31.777-1.662-1.693 0-3.387.018-5.192.058-17.315.699-35.907 2.625-55.996 17.405C11.596 224.188.1 243.215.001 263.348c-.067 11.424 3.149 28.26 18.807 43.613l.242.224c12.154 10.537 24.833 15.658 38.756 15.658h.004c7.025 0 13.588-1.308 19.797-3.091-4.449 15.519-7.011 39.469 15.443 61.457l.206.193c11.872 10.452 25.635 15.976 39.796 15.976 9.95 0 20.16-2.76 29.523-7.983 24.407-13.615 38.909-41.337 42.444-62.769 2.961-17.898 1.528-36.642.139-54.772-.22-2.872-.435-5.721-.632-8.53 32.48 65.784 84.345 126.09 165.312 126.09a10.619 10.619 0 0 0 10.622-10.622c0-5.864-4.758-10.613-10.622-10.613-70.202 0-116.364-54.024-145.94-113.626 8.678 10.732 18.185 21.713 28.829 31.94z"/></symbol><symbol viewBox="0 0 348.333 348.334" id="close" xmlns="http://www.w3.org/2000/svg"><path d="M336.559 68.611L231.016 174.165l105.543 105.549c15.699 15.705 15.699 41.145 0 56.85-7.844 7.844-18.128 11.769-28.407 11.769-10.296 0-20.581-3.919-28.419-11.769L174.167 231.003 68.609 336.563c-7.843 7.844-18.128 11.769-28.416 11.769-10.285 0-20.563-3.919-28.413-11.769-15.699-15.698-15.699-41.139 0-56.85l105.54-105.549L11.774 68.611c-15.699-15.699-15.699-41.145 0-56.844 15.696-15.687 41.127-15.687 56.829 0l105.563 105.554L279.721 11.767c15.705-15.687 41.139-15.687 56.832 0 15.705 15.699 15.705 41.145.006 56.844z"/></symbol><symbol viewBox="0 0 48 60" id="document" xmlns="http://www.w3.org/2000/svg"><g stroke-width="2" stroke-linecap="round" stroke-linejoin="round" stroke-miterlimit="10"><path d="M6.482 1h35.036v46H6.482z"/><path d="M12.098 8.561h9.265v12.35h-9.265zm15.699 0h8.105m-8.105 6.174h8.105m-8.105 6.178h8.105m-23.804 6.175h23.804m-23.804 6.179h23.804m-23.804 6.174h23.804"/></g><text y="63" font-size="5" font-weight="bold" font-family="'Helvetica Neue', Helvetica, Arial-Unicode, Arial, Sans-serif">Created by Creative Stall</text><text y="68" font-size="5" font-weight="bold" font-family="'Helvetica Neue', Helvetica, Arial-Unicode, Arial, Sans-serif">from the Noun Project</text></symbol><symbol viewBox="0 0 295.749 383.316" id="equipment" xmlns="http://www.w3.org/2000/svg"><path d="M238.678 26.188c-1.595 3.145-2.393 7.312-1.994 10.815.255 2.231 3.015 6.98 5.851 6.608 7.015-.923 9.945 3.329 11.894 8.369 1.801 4.672 2.048 9.927 3.692 14.685 1.107 3.199 2.76 6.953 5.354 8.781 4.677 3.288 9.242 6.975 13.234 11.079 6.734 6.917 11.913 15.559 15.398 24.541 1.814 4.678 2.957 9.547 3.306 14.556.368 5.376.762 12.553-.748 17.768-1.622 5.609-5.233 10.237-8.436 15.008-3.386 5.044-6.581 10.241-10.765 14.685-1.443 1.528-5.905 2.469-7.334 2.079-5.264-1.447-8.239.574-8.512 4.861-.408 6.375-1.738 9.842-6.662 9.838-4.211-.004-8.417-1.581-14.125-2.773 5.922 37.404 11.782 74.4 17.651 111.436 2.527 3.898 8.866 12.858 10.806 19.327 3.628 12.104 8.359 23.882 12.109 35.956 3.678 11.836-.533 19.412-11.939 22.893-.722.219-1.479.434-2.106.833-16.137 10.255-31.678 5.219-46.767-2.352-3.656-1.837-8.162-5.945-8.597-9.462-1.12-9.058-1.349-18.583.237-27.534 1.564-8.83 3.159-17.669 5.457-26.342 1.08-4.064 2.253-8.14 3.817-12.047 1.254-3.118 3.463-7.02 2.298-10.479-1.931-5.712-10.572-1.366-14.143-.336-4.646 1.344-9.18 3.046-13.866 4.256-13.247 3.409-23.672-1.662-27.144-14.986-3.217-12.364-5.009-25.226-6.111-37.99-1.689-19.399-4.619-35.814-5.685-55.978 0-.004-9.43-.52-9.914-.551-39.814-2.777-77.316-16.88-108.537-41.852C27.181 134.506.713 115.475.01 102.393c-.237-4.377 3.615-6.317 7.271-7.271 6.876-1.796 14.282-1.523 21.311-1.375 10.927.233 21.84.69 32.758 1.004-3.06-7.934-6.85-15.649-8.938-23.928-1.308-5.197-4.991-21.477 2.204-24.434 3.419-1.402 6.783 3.333 8.956 5.291a280.44 280.44 0 0 0 11.411 9.726c12.826 10.354 25.657 20.711 38.734 30.742 3.611 2.76 8.391 6.528 12.15 6.044 8.866-1.147 17.857-3.656 26.024-7.325 8.66-3.893 16.384-9.838 24.6-14.757a81.72 81.72 0 0 0 7.948-5.412c8.387-6.483 15.255-14.816 19.412-24.609 2.097-4.933 3.494-10.143 4.265-15.443.77-5.317.466-10.805 1.514-16.065.435-2.168.856-4.211 2.361-5.972 3.029-3.548 9.31-5.663 13.718-6.989 7.589-2.28 16.038-2.356 23.3 1.08 4.328 2.048 7.984 6.017 3.974 10.564-4.207 4.767-11.348 7.092-14.305 12.924zm11.907 335.199c5.47 2.168 8.266.071 7.137-5.309-2.272-10.819-5.233-21.495-8.212-32.148-.318-1.138-2.554-2.159-4.05-2.446-3.942-.766-7.97-1.089-12.369-1.64-9.735 21.983-2.222 33.716 17.494 41.543z"/></symbol><symbol viewBox="0 0 295.749 383.316" id="equipment-orange" xmlns="http://www.w3.org/2000/svg"><path d="M238.678 26.188c-1.595 3.145-2.393 7.312-1.994 10.815.255 2.231 3.015 6.98 5.851 6.608 7.015-.923 9.945 3.329 11.894 8.369 1.801 4.672 2.048 9.927 3.692 14.685 1.107 3.199 2.76 6.953 5.354 8.781 4.677 3.288 9.242 6.975 13.234 11.079 6.734 6.917 11.913 15.559 15.398 24.541 1.814 4.678 2.957 9.547 3.306 14.556.368 5.376.762 12.553-.748 17.768-1.622 5.609-5.233 10.237-8.436 15.008-3.386 5.044-6.581 10.241-10.765 14.685-1.443 1.528-5.905 2.469-7.334 2.079-5.264-1.447-8.239.574-8.512 4.861-.408 6.375-1.738 9.842-6.662 9.838-4.211-.004-8.417-1.581-14.125-2.773 5.922 37.404 11.782 74.4 17.651 111.436 2.527 3.898 8.866 12.858 10.806 19.327 3.628 12.104 8.359 23.882 12.109 35.956 3.678 11.836-.533 19.412-11.939 22.893-.722.219-1.479.434-2.106.833-16.137 10.255-31.678 5.219-46.767-2.352-3.656-1.837-8.162-5.945-8.597-9.462-1.12-9.058-1.349-18.583.237-27.534 1.564-8.83 3.159-17.669 5.457-26.342 1.08-4.064 2.253-8.14 3.817-12.047 1.254-3.118 3.463-7.02 2.298-10.479-1.931-5.712-10.572-1.366-14.143-.336-4.646 1.344-9.18 3.046-13.866 4.256-13.247 3.409-23.672-1.662-27.144-14.986-3.217-12.364-5.009-25.226-6.111-37.99-1.689-19.399-4.619-35.814-5.685-55.978 0-.004-9.43-.52-9.914-.551-39.814-2.777-77.316-16.88-108.537-41.852C27.181 134.506.713 115.475.01 102.393c-.237-4.377 3.615-6.317 7.271-7.271 6.876-1.796 14.282-1.523 21.311-1.375 10.927.233 21.84.69 32.758 1.004-3.06-7.934-6.85-15.649-8.938-23.928-1.308-5.197-4.991-21.477 2.204-24.434 3.419-1.402 6.783 3.333 8.956 5.291a280.44 280.44 0 0 0 11.411 9.726c12.826 10.354 25.657 20.711 38.734 30.742 3.611 2.76 8.391 6.528 12.15 6.044 8.866-1.147 17.857-3.656 26.024-7.325 8.66-3.893 16.384-9.838 24.6-14.757a81.72 81.72 0 0 0 7.948-5.412c8.387-6.483 15.255-14.816 19.412-24.609 2.097-4.933 3.494-10.143 4.265-15.443.77-5.317.466-10.805 1.514-16.065.435-2.168.856-4.211 2.361-5.972 3.029-3.548 9.31-5.663 13.718-6.989 7.589-2.28 16.038-2.356 23.3 1.08 4.328 2.048 7.984 6.017 3.974 10.564-4.207 4.767-11.348 7.092-14.305 12.924zm11.907 335.199c5.47 2.168 8.266.071 7.137-5.309-2.272-10.819-5.233-21.495-8.212-32.148-.318-1.138-2.554-2.159-4.05-2.446-3.942-.766-7.97-1.089-12.369-1.64-9.735 21.983-2.222 33.716 17.494 41.543z"/></symbol><symbol viewBox="0 0 833.537 560" id="eye" xmlns="http://www.w3.org/2000/svg"><path d="M4.677 296.908c423.496 548.014 765.755 81.237 825.018-8.656 5.327-8.656 5.327-19.31-1.332-27.301-424.828-549.346-768.419-75.91-825.018 10.654-4.661 7.99-4.661 17.978 1.332 25.303zM432.168 515.98c-143.163 9.322-261.023-109.203-252.366-252.366 7.99-117.86 103.876-213.746 221.736-221.07 143.163-9.322 261.023 109.203 252.366 252.366-7.324 117.86-103.21 213.746-221.736 221.07z"/><path d="M416.853 139.096c-16.647 0-32.628 3.329-47.943 8.656 22.64 7.325 39.287 28.633 39.287 53.27 0 30.63-25.303 55.933-55.933 55.933-28.633 0-52.604-21.974-55.933-49.941-12.652 20.642-19.976 45.279-19.976 71.249 0 77.241 62.592 139.834 139.834 139.834s139.834-62.592 139.834-139.834c.663-76.575-61.929-139.167-139.17-139.167z"/></symbol><symbol viewBox="0 0 30 30" id="fb" xmlns="http://www.w3.org/2000/svg"><path d="M30 25c0 2.75-2.25 5-5 5H5c-2.75 0-5-2.25-5-5V5c0-2.75 2.25-5 5-5h20c2.75 0 5 2.25 5 5v20z"/><path d="M16.158 12.415v-1.292c0-.194.009-.344.027-.45a.87.87 0 0 1 .123-.314.506.506 0 0 1 .31-.214c.143-.04.333-.059.57-.059h1.294V7.5h-2.069c-1.197 0-2.057.284-2.58.851-.523.567-.784 1.403-.784 2.508v1.556H11.5V15h1.55v7.5h3.108V15h2.069l.273-2.585h-2.342z"/></symbol><symbol viewBox="30.458 98.5 607.958 441.333" id="folder" xmlns="http://www.w3.org/2000/svg"><path d="M611.387 172.622H334.5c-34.607 0-59.713-73.442-101.298-73.442H57.613C42.65 99.18 30.6 110.1 30.6 123.66v391.684c0 13.56 12.05 24.476 27.013 24.476h553.774c14.967 0 27.013-10.916 27.013-24.476V197.102c0-13.56-12.046-24.48-27.013-24.48zM241.255 150c0 11-9.931 20-22.07 20H84.56c-12.138 0-22.07-9-22.07-20v-1.5c0-11 9.931-20 22.07-20h134.625c12.138 0 22.07 9 22.07 20v1.5z" xmlns:svg="http://www.w3.org/2000/svg" xmlns:rdf="http://www.w3.org/1999/02/22-rdf-syntax-ns#" xmlns:dc="http://purl.org/dc/elements/1.1/" xmlns:cc="http://creativecommons.org/ns#"/></symbol><symbol viewBox="0 0 30 30" id="google" xmlns="http://www.w3.org/2000/svg"><path d="M30 25c0 2.75-2.25 5-5 5H5c-2.75 0-5-2.25-5-5V5c0-2.75 2.25-5 5-5h20c2.75 0 5 2.25 5 5v20z"/><path d="M20.526 13.751v-2.025H19.21v2.025h-1.974v1.35h1.974v2.025h1.316v-2.025H22.5v-1.35h-1.974zm-5.065 2.295l-.724-.54c-.263-.203-.526-.473-.526-.945s.329-.878.658-1.08c.855-.675 1.711-1.418 1.711-2.903 0-1.418-.855-2.228-1.316-2.633h1.118L17.171 7h-4.079C10.197 7 8.75 8.89 8.75 10.916c0 1.553 1.184 3.241 3.289 3.241h.526c-.066.203-.263.54-.263.878 0 .675.263.945.592 1.35-.921.068-2.632.27-3.882 1.08-1.183.742-1.512 1.754-1.512 2.497C7.5 21.515 8.882 23 11.842 23c3.553 0 5.263-2.025 5.263-3.983 0-1.418-.723-2.16-1.644-2.971zm-5-6.143c0-1.485.855-2.16 1.776-2.16 1.711 0 2.632 2.363 2.632 3.713 0 1.755-1.382 2.093-1.908 2.093-1.645 0-2.5-2.093-2.5-3.646zm2.368 12.152c-2.171 0-3.553-1.013-3.553-2.498 0-1.485 1.316-1.958 1.711-2.16.855-.27 1.974-.338 2.171-.338h.461c1.579 1.148 2.237 1.62 2.237 2.7-.001 1.283-1.251 2.296-3.027 2.296z"/></symbol><symbol viewBox="0 0 387.52 353.92" id="heart" xmlns="http://www.w3.org/2000/svg"><path d="M172.928 342.272l9.856 7.616c3.136 2.24 6.72 3.584 10.752 4.032h1.792c4.032 0 8.064-1.344 11.2-4.032l5.824-4.48C277.76 293.888 387.52 207.424 387.52 109.76 387.52 49.28 338.24 0 277.76 0c-33.152 0-63.616 14.336-84.224 38.976C172.928 14.784 142.016 0 109.76 0 49.28 0 0 49.28 0 109.76c.448 96.768 108.416 181.888 172.928 232.512z"/></symbol><symbol viewBox="0 0 387.52 353.92" id="heart-empty" xmlns="http://www.w3.org/2000/svg"><path d="M172.928 342.272l9.856 7.616c3.136 2.24 6.72 3.584 10.752 4.032h1.792c4.032 0 8.064-1.344 11.2-4.032l5.824-4.48C277.76 293.888 387.52 207.424 387.52 109.76 387.52 49.28 338.24 0 277.76 0c-33.152 0-63.616 14.336-84.224 38.976C172.928 14.784 142.016 0 109.76 0 49.28 0 0 49.28 0 109.76c.448 96.768 108.416 181.888 172.928 232.512zM109.76 35.84c28.224 0 54.656 16.576 66.752 42.112l.896 1.792c3.136 7.168 11.2 11.2 18.816 10.304 6.272-.896 11.2-4.928 13.888-10.304l1.344-2.688C224 51.52 249.536 35.392 277.76 35.392c40.768 0 73.92 33.152 73.92 73.92 0 77.952-99.904 158.592-157.248 203.84C138.88 270.144 36.288 189.056 36.288 109.76c0-40.768 33.152-73.92 73.472-73.92z"/></symbol><symbol viewBox="0 0 536.938 484.792" id="home" xmlns="http://www.w3.org/2000/svg"><path d="M50.276 294.647c-52.25 0-64.771-30.229-27.825-67.175L201.869 48.054c36.946-36.946 97.404-36.946 134.35 0l179.417 179.417c36.946 36.946 24.425 67.175-27.825 67.175H50.276z"/><path d="M302.278 14.113c-18.279-18.279-48.189-18.279-66.468 0L49.974 199.949c-18.279 18.279-12.084 33.359 13.765 33.512l405.906-4.082c25.845-.499 32.036-15.863 13.757-34.142L302.278 14.113zM190.667 444.458c0 22-18 40-40 40H102c-22 0-40-18-40-40V315.792c0-22 18-40 40-40h48.667c22 0 40 18 40 40v128.666z"/><path d="M136.25 378.125c0-9.9 8.1-18 18-18h38.25c9.9 0 18 8.1 18 18v88.333c0 9.9-8.1 18-18 18h-38.25c-9.9 0-18-8.1-18-18v-88.333zm212.583 66.333c0 22 18 40 40 40H437.5c22 0 40-18 40-40V315.792c0-22-18-40-40-40h-48.667c-22 0-40 18-40 40v128.666z"/><path d="M403.25 378.125c0-9.9-8.1-18-18-18H347c-9.9 0-18 8.1-18 18v88.333c0 9.9 8.1 18 18 18h38.25c9.9 0 18-8.1 18-18v-88.333zM453 170.792c0 16.5-13.5 30-30 30h-16c-16.5 0-30-13.5-30-30v-108c0-16.5 13.5-30 30-30h16c16.5 0 30 13.5 30 30v108z"/><path d="M62 294.125v83h148.63c.988-7.311 7.279-13 14.85-13h88.604c7.57 0 13.862 5.689 14.85 13H477.5v-83H62z"/></symbol><symbol viewBox="0 0 30 30" id="in" xmlns="http://www.w3.org/2000/svg"><path d="M30 25c0 2.75-2.25 5-5 5H5c-2.75 0-5-2.25-5-5V5c0-2.75 2.25-5 5-5h20c2.75 0 5 2.25 5 5v20z"/><path d="M7.198 12.374h3.437V22.5H7.198zm14.719.925c-.722-.773-1.677-1.16-2.865-1.16-.437 0-.835.053-1.193.158-.358.106-.66.254-.906.444a4.434 4.434 0 0 0-.588.531 4.283 4.283 0 0 0-.406.541v-1.44h-3.427l.011.491c.007.327.011 1.335.011 3.024s-.007 3.893-.021 6.611h3.427v-5.651c0-.347.038-.623.115-.828.146-.348.366-.639.662-.874.295-.235.661-.353 1.099-.353.597 0 1.036.203 1.318.608.281.405.422.966.422 1.681V22.5H23v-5.803c0-1.493-.361-2.625-1.083-3.398zM8.937 7.5c-.576 0-1.043.165-1.401.496A1.63 1.63 0 0 0 7 9.247c0 .497.174.913.521 1.247.347.334.806.501 1.375.501h.021c.583 0 1.054-.167 1.412-.501.358-.334.533-.749.526-1.247-.007-.504-.184-.921-.531-1.252-.348-.33-.81-.495-1.387-.495z"/></symbol><symbol viewBox="0 0 30 30" id="inst" xmlns="http://www.w3.org/2000/svg"><path d="M30 25c0 2.75-2.25 5-5 5H5c-2.75 0-5-2.25-5-5V5c0-2.75 2.25-5 5-5h20c2.75 0 5 2.25 5 5v20z"/><path d="M25 10.796c-.049-1.064-.218-1.791-.465-2.427a4.906 4.906 0 0 0-1.153-1.771 4.895 4.895 0 0 0-1.771-1.154c-.636-.247-1.363-.416-2.427-.464-1.066-.049-1.407-.06-4.123-.06s-3.056.012-4.123.06c-1.066.048-1.792.217-2.428.464a4.897 4.897 0 0 0-1.772 1.153 4.914 4.914 0 0 0-1.153 1.771c-.247.636-.416 1.363-.465 2.428-.049 1.067-.06 1.407-.06 4.123s.012 3.057.06 4.123c.049 1.064.218 1.791.465 2.427a4.906 4.906 0 0 0 1.153 1.771 4.893 4.893 0 0 0 1.771 1.153c.636.247 1.363.416 2.427.465 1.067.049 1.407.06 4.123.06s3.056-.011 4.123-.06c1.064-.049 1.791-.218 2.427-.465a5.11 5.11 0 0 0 2.924-2.924c.247-.636.416-1.363.465-2.427.049-1.067.06-1.407.06-4.123.002-2.716-.01-3.057-.058-4.123zm-1.8 8.164c-.044.975-.207 1.505-.344 1.857a3.313 3.313 0 0 1-1.898 1.898c-.352.137-.882.3-1.857.344-1.054.048-1.371.058-4.041.058-2.67 0-2.987-.01-4.041-.058-.975-.044-1.504-.207-1.857-.344a3.103 3.103 0 0 1-1.15-.748 3.095 3.095 0 0 1-.748-1.15c-.137-.352-.3-.882-.344-1.857-.048-1.054-.058-1.371-.058-4.041 0-2.67.01-2.986.058-4.041.045-.975.207-1.505.344-1.857.16-.434.416-.827.748-1.15a3.095 3.095 0 0 1 1.15-.748c.352-.137.882-.3 1.857-.344 1.054-.048 1.371-.059 4.041-.059 2.67 0 2.986.01 4.041.058.975.044 1.504.207 1.857.344.434.16.827.416 1.15.748.332.323.588.715.748 1.15.137.352.3.882.344 1.857.048 1.054.058 1.371.058 4.041 0 2.671-.01 2.987-.058 4.042z"/><path d="M15.06 9.784a5.135 5.135 0 1 0 0 10.27 5.135 5.135 0 0 0 0-10.27zm0 8.468a3.333 3.333 0 1 1 0-6.665 3.333 3.333 0 0 1 0 6.665zm6.538-8.671a1.2 1.2 0 1 1-2.4 0 1.2 1.2 0 0 1 2.4 0z"/></symbol><symbol viewBox="0 0 410.542 507" id="list" xmlns="http://www.w3.org/2000/svg"><path d="M397.542 489c0 2.75-2.25 5-5 5h-375a5.003 5.003 0 0 1-4.99-5l.979-470c.006-2.75 2.26-5 5.01-5h374c2.75 0 5 2.25 5 5v470z"/><path d="M206.458 130c0 6.6-5.4 12-12 12H56.875c-6.6 0-12-5.4-12-12v-.083c0-6.6 5.4-12 12-12h137.583c6.6 0 12 5.4 12 12V130zm0 63.333c0 6.6-5.4 12-12 12H56.875c-6.6 0-12-5.4-12-12v-.083c0-6.6 5.4-12 12-12h137.583c6.6 0 12 5.4 12 12v.083zM363.958 253c0 6.6-5.4 12-12 12H56.875c-6.6 0-12-5.4-12-12v-.083c0-6.6 5.4-12 12-12h295.083c6.6 0 12 5.4 12 12V253zm0 63.063c0 6.6-5.4 12-12 12H56.875c-6.6 0-12-5.4-12-12v-.083c0-6.6 5.4-12 12-12h295.083c6.6 0 12 5.4 12 12v.083zm0 65.937c0 6.6-5.4 12-12 12H56.875c-6.6 0-12-5.4-12-12v-.083c0-6.6 5.4-12 12-12h295.083c6.6 0 12 5.4 12 12V382zM342.542 188c0 2.75-2.25 5-5 5h-85a5 5 0 0 1-4.987-5l.221-84.948c.007-2.75 2.263-5 5.013-5h84.753c2.75 0 5 2.25 5 5V188z"/></symbol><symbol viewBox="0 0 425.6 425.6" id="login" xmlns="http://www.w3.org/2000/svg"><circle cx="212.8" cy="150.528" r="69.888"/><path d="M212.8 0C95.424 0 0 95.424 0 212.8s95.424 212.8 212.8 212.8 212.8-95.424 212.8-212.8S330.176 0 212.8 0zm107.072 355.264l-15.232-66.752c-6.272-27.776-31.36-47.488-59.584-47.488h-64.064c-28.672 0-53.312 19.712-59.584 47.488l-15.232 66.752C62.72 322.56 34.496 271.04 34.496 212.8c0-98.112 79.744-178.304 178.304-178.304 98.112 0 178.304 79.744 178.304 178.304 0 58.24-28.224 109.76-71.232 142.464z"/></symbol><symbol viewBox="0 0 30 30" id="mail" xmlns="http://www.w3.org/2000/svg"><path d="M30 25.031c0 2.75-2.25 5-5 5H5c-2.75 0-5-2.25-5-5v-20c0-2.75 2.25-5 5-5h20c2.75 0 5 2.25 5 5v20z"/><path d="M13.971 6.089c-4.06.453-7.357 3.676-7.891 7.726-.756 5.739 3.935 10.621 9.618 10.19 2.091-.159 4.047-1.093 5.581-2.523l.132-.123a.375.375 0 0 0 .018-.53l-.512-.549a.375.375 0 0 0-.53-.018l-.274.256a7.495 7.495 0 0 1-6.408 1.903c-3.347-.57-5.921-3.412-6.182-6.798-.346-4.477 3.266-8.218 7.699-8.089 4.088.119 7.278 3.608 7.278 7.698v.549c0 .877-.755 1.58-1.65 1.493-.779-.076-1.35-.776-1.35-1.559v-3.308a.375.375 0 0 0-.375-.375h-.75a.373.373 0 0 0-.338.218A4.112 4.112 0 0 0 15 10.907c-2.275 0-4.125 1.85-4.125 4.125s1.85 4.125 4.125 4.125a4.124 4.124 0 0 0 3.436-1.847 2.987 2.987 0 0 0 2.77 1.465c1.592-.107 2.794-1.503 2.794-3.1v-.644c0-5.301-4.608-9.547-10.029-8.942zM15 17.656c-1.447 0-2.625-1.178-2.625-2.625s1.178-2.625 2.625-2.625 2.625 1.178 2.625 2.625-1.178 2.625-2.625 2.625z"/></symbol><symbol viewBox="0 0 302.4 403.2" id="marker" xmlns="http://www.w3.org/2000/svg"><path d="M151.2 0C67.702 0 0 67.724 0 151.2c0 97.108 108.9 218.306 126 236.84 7.065 7.679 13.019 15.16 25.2 15.16 12.186 0 18.113-7.482 25.2-15.16 17.127-18.534 126-139.731 126-236.84C302.4 67.724 234.676 0 151.2 0zm0 239.402c-48.702 0-88.202-39.496-88.202-88.202s39.5-88.202 88.202-88.202 88.202 39.496 88.202 88.202-39.5 88.202-88.202 88.202z"/><path d="M151.2 100.8c-27.834 0-50.4 22.593-50.4 50.4s22.566 50.4 50.4 50.4c27.812 0 50.4-22.593 50.4-50.4s-22.588-50.4-50.4-50.4z"/></symbol><symbol viewBox="0 0 398.181 447.923" id="market" xmlns="http://www.w3.org/2000/svg"><path d="M277.944 442.244c-64.064-45.024-65.453-129.069-65.05-146.272-17.114-4.301-48.16-17.069-54.163-53.581 0 0 16.934 44.755 75.891 38.214 0 0 52.954 6.541 81.357 44.755 0 0 6.541 19.085 22.893 19.085s27.283 3.27 44.755-26.208l7.616-.538s13.126-19.667 3.27-56.762c0 0-61.152-52.954-80.237-111.91 0 0-8.198-12.589-23.654-27.418h-.045c-11.424-10.797-22.221-18.502-28.314-22.49-1.658-1.075-3.27-2.15-5.018-3.136-.045-.045-.134-.09-.134-.09s-2.643-67.469-20.294-92.019c0 0-.762.538-2.016 1.613-.717.582-1.389 1.254-2.106 1.926-.493.493-1.075 1.03-1.658 1.613-.851.896-1.702 1.747-2.464 2.643-2.688 3.002-5.869 7.034-9.318 12.186-3.853 5.958-7.706 13.35-10.886 22.266 3.853 13.306 4.704 23.386 4.704 23.386 9.318 6.63 14.426 14.157 14.426 14.157-6.63-3.898-18.234-9.363-18.234-9.363C203.262 30.935 181.668.023 181.668.023s-.179.09-.358.224c-.045.045-.134.09-.179.134-.224.179-.538.403-.941.672a.941.941 0 0 1-.224.134c-7.213 5.286-35.571 28.493-38.931 69.754 0 0-2.643-9.274-1.478-23.251 0 0-30.688 1.926-48.922 12.41-15.679 9.004-13.529 20.697-10.214 23.878-9.229 3.629-20.115 8.781-27.821 15.411-14.918 12.858-8.512 24.774-4.57 25.85-7.84 6.227-16.934 14.56-22.445 23.341-9.229 14.784-2.733 23.923 1.702 25.67-7.302 6.944-15.77 16.173-20.518 25.536-8.87 17.562 1.568 26.163 5.645 25.626-4.883 8.736-10.08 19.936-11.827 30.15-2.33 13.664 3.27 20.25 8.019 22.31C4.708 287.728.139 301.75.004 313.667c-.179 13.709 6.182 19.354 11.2 20.742-1.344 5.51-2.24 11.11-2.285 16.352 0 .314 0 .627.045.941 37.275 130.1 268.98 90.542 268.98 90.542zm70.471-151.335c1.523 0 3.002.224 4.39.627a9.926 9.926 0 0 0-1.926.717c-8.064 3.763-11.11 14.381-6.72 23.699a21.243 21.243 0 0 0 3.539 5.331c-8.333-.358-15.053-6.989-15.053-15.142.045-8.422 7.079-15.232 15.77-15.232zm-94.439-124.185s15.546 6.81 9.587 24.595c0 0-9.453 6.317-22.758-2.554-10.394-6.899-23.206-7.974-23.206-7.974s22.758-13.933 36.377-14.067z"/></symbol><symbol viewBox="0 0 398.181 447.923" id="market-orange" xmlns="http://www.w3.org/2000/svg"><path d="M277.944 442.244c-64.064-45.024-65.453-129.069-65.05-146.272-17.114-4.301-48.16-17.069-54.163-53.581 0 0 16.934 44.755 75.891 38.214 0 0 52.954 6.541 81.357 44.755 0 0 6.541 19.085 22.893 19.085s27.283 3.27 44.755-26.208l7.616-.538s13.126-19.667 3.27-56.762c0 0-61.152-52.954-80.237-111.91 0 0-8.198-12.589-23.654-27.418h-.045c-11.424-10.797-22.221-18.502-28.314-22.49-1.658-1.075-3.27-2.15-5.018-3.136-.045-.045-.134-.09-.134-.09s-2.643-67.469-20.294-92.019c0 0-.762.538-2.016 1.613-.717.582-1.389 1.254-2.106 1.926-.493.493-1.075 1.03-1.658 1.613-.851.896-1.702 1.747-2.464 2.643-2.688 3.002-5.869 7.034-9.318 12.186-3.853 5.958-7.706 13.35-10.886 22.266 3.853 13.306 4.704 23.386 4.704 23.386 9.318 6.63 14.426 14.157 14.426 14.157-6.63-3.898-18.234-9.363-18.234-9.363C203.262 30.935 181.668.023 181.668.023s-.179.09-.358.224c-.045.045-.134.09-.179.134-.224.179-.538.403-.941.672a.941.941 0 0 1-.224.134c-7.213 5.286-35.571 28.493-38.931 69.754 0 0-2.643-9.274-1.478-23.251 0 0-30.688 1.926-48.922 12.41-15.679 9.004-13.529 20.697-10.214 23.878-9.229 3.629-20.115 8.781-27.821 15.411-14.918 12.858-8.512 24.774-4.57 25.85-7.84 6.227-16.934 14.56-22.445 23.341-9.229 14.784-2.733 23.923 1.702 25.67-7.302 6.944-15.77 16.173-20.518 25.536-8.87 17.562 1.568 26.163 5.645 25.626-4.883 8.736-10.08 19.936-11.827 30.15-2.33 13.664 3.27 20.25 8.019 22.31C4.708 287.728.139 301.75.004 313.667c-.179 13.709 6.182 19.354 11.2 20.742-1.344 5.51-2.24 11.11-2.285 16.352 0 .314 0 .627.045.941 37.275 130.1 268.98 90.542 268.98 90.542zm70.471-151.335c1.523 0 3.002.224 4.39.627a9.926 9.926 0 0 0-1.926.717c-8.064 3.763-11.11 14.381-6.72 23.699a21.243 21.243 0 0 0 3.539 5.331c-8.333-.358-15.053-6.989-15.053-15.142.045-8.422 7.079-15.232 15.77-15.232zm-94.439-124.185s15.546 6.81 9.587 24.595c0 0-9.453 6.317-22.758-2.554-10.394-6.899-23.206-7.974-23.206-7.974s22.758-13.933 36.377-14.067z"/></symbol><symbol viewBox="256 146.125 284.375 248.319" id="message" xmlns="http://www.w3.org/2000/svg"><path d="M503.275 146.125H293.1c-20.515.063-37.11 16.716-37.1 37.231v117.521c.063 20.427 16.673 36.935 37.1 36.872h120.663l40.513 48.694c10.78 12.968 19.6 9.844 19.6-7V337.75h29.496c20.427.01 36.994-16.542 37.004-36.969V183.356c.009-20.515-16.586-37.168-37.101-37.231zm-62.244 139.6c0 3.535-3.385 6.4-7.56 6.4H293.935c-4.175 0-7.56-2.865-7.56-6.4v-7.2c0-3.535 3.385-6.4 7.56-6.4h139.537c4.175 0 7.56 2.865 7.56 6.4v7.2zm69.344-40c0 3.535-4.902 6.4-10.949 6.4H297.324c-6.047 0-10.949-2.865-10.949-6.4v-7.2c0-3.535 4.902-6.4 10.949-6.4h202.102c6.047 0 10.949 2.865 10.949 6.4v7.2zm0-40c0 3.535-4.902 6.4-10.949 6.4H297.324c-6.047 0-10.949-2.865-10.949-6.4v-7.2c0-3.535 4.902-6.4 10.949-6.4h202.102c6.047 0 10.949 2.865 10.949 6.4v7.2z"/></symbol><symbol viewBox="313.344 13.888 332.864 419.776" id="money" xmlns="http://www.w3.org/2000/svg"><path d="M313.344 175.616c0 16.128 20.16 25.984 45.248 31.808v43.008c0 20.16 30.016 30.464 62.72 34.944v21.504c-25.536 5.824-46.144 15.68-46.144 32.256v56c0 30.464 70.784 38.528 112.448 38.528s112.448-8.064 112.448-38.528v-42.112c25.536-5.824 46.144-15.68 46.144-32.256v-55.552c0-20.16-30.016-30.464-62.72-34.944V194.88c0-16.128-20.16-25.984-45.248-31.808v-20.608c28.224-5.376 52.416-15.68 52.416-33.152V52.864c.448-30.464-70.336-38.976-112.448-38.976S365.76 22.4 365.76 52.864v33.152c-28.224 5.376-52.416 15.68-52.416 33.152v56.448zm48.384-22.4s0 .448 0 0v35.392c-3.584-.896-6.72-1.792-9.856-2.688v-36.288c3.136.896 6.272 1.792 9.856 2.24v1.344zm25.536 72.128V257.6c-5.824-2.688-9.408-5.376-9.856-6.72v-32.704c3.136 1.344 6.272 2.688 9.856 4.032v3.136zm-15.68-34.496v-36.736c3.136.448 6.72.896 9.856 1.344v37.184c-3.136-.896-6.72-1.344-9.856-1.792zm20.16-34.048c3.136 0 6.272.448 9.856.448v37.184c-3.136-.448-6.72-.448-9.856-.896V156.8zm15.232 71.68v35.392c-3.584-.896-6.72-1.792-9.856-2.688v-36.288c3.136.896 6.272 1.792 9.856 2.24v1.344zm-2.688-145.152c3.136.448 6.272 1.344 9.856 1.792v36.736c-3.584-.896-6.72-1.792-9.856-2.688v-35.84zm6.72 76.608v-2.24c3.584 0 6.72.448 9.856.448v37.184c-3.584 0-6.72 0-9.856-.448v-34.944zm5.824 105.728v-36.736c3.136.448 6.72.896 9.856 1.344v37.184c-3.584-.448-6.72-.896-9.856-1.792zm34.048-108.416c3.136 0 6.272-.448 9.856-.896v37.184c-3.136.448-6.272.448-9.856.896v-37.184zm2.688-64.064v34.496c-3.136-.448-6.72-.448-9.856-.896V89.6c3.136.448 6.272.448 9.856.896v2.688zm-7.168 138.88v37.184c-3.584 0-6.72-.448-9.856-.448v-37.184c3.136 0 6.72.448 9.856.448zm3.584 60.032v35.84c-5.824-2.688-9.408-5.376-9.856-6.72v-32.704c3.136 1.344 6.272 2.688 9.856 3.584zm-8.96-97.216c-3.136 0-6.72 0-9.856.448v-37.184c3.136 0 6.72 0 9.856-.448v37.184zm-7.168-68.992c-3.584-.448-6.72-.896-9.856-1.792V87.36c3.136.448 6.72.896 9.856 1.344v37.184zm-30.016 244.16v32.256c-5.824-2.688-9.408-5.376-9.856-6.72V362.88c3.136 1.344 6.272 2.688 9.856 4.032v3.136zm19.712 3.136v35.392c-3.584-.896-6.72-1.792-9.856-2.688V369.6c3.136.896 6.272 1.792 9.856 2.24v1.344zm19.712 38.976c-3.584-.448-6.72-.896-9.856-1.792v-36.736c3.136.448 6.72.896 9.856 1.344v37.184zm19.712-32.256V414.4c-3.136-.448-6.72-.448-9.856-.896V376.32c3.136.448 6.272.448 9.856.896v2.688zm19.712-1.792v36.736c-3.584 0-6.72 0-9.856-.448v-37.184c3.584.448 6.72.448 9.856.896zm20.16 36.736c-3.136 0-6.72 0-9.856.448v-37.184c3.136 0 6.72 0 9.856-.448v37.184zm-14.784-55.552c-60.928 0-91.392-13.888-93.632-19.712 1.344-3.136 10.304-8.512 27.776-12.992 6.272 20.608 47.488 29.568 83.776 32.256-5.824 0-11.648.448-17.92.448zM459.84 295.68c3.136.448 6.272 1.344 9.856 1.792v36.736c-3.584-.896-6.72-1.792-9.856-2.688v-35.84zm6.272-62.272v36.736c-3.584 0-6.72 0-9.856-.448V232.96c3.136 0 6.72 0 9.856.448zm19.712 36.736c-3.136 0-6.72 0-9.856.448v-37.184c3.136 0 6.72 0 9.856-.448v37.184zm3.584 30.912v37.184c-3.584-.448-6.72-.896-9.856-1.792v-36.736c3.136.448 6.272.896 9.856 1.344zm6.72-68.992c3.136 0 6.272-.448 9.856-.896V268.8c-3.136.448-6.272.448-9.856.896v-37.632zm12.992 73.472v34.496c-3.136-.448-6.72-.448-9.856-.896v-37.184c3.136.448 6.272.448 9.856.896v2.688zm13.44 107.968c-3.136.448-6.272.448-9.856.896v-37.184c3.136 0 6.272-.448 9.856-.896v37.184zm6.272-109.312v36.736c-3.584 0-6.72 0-9.856-.448v-37.184c3.136.448 6.72.448 9.856.896 0-.448 0-.448 0 0zm-13.44-36.736v-37.184c3.136-.448 6.72-.896 9.856-1.344v36.736c-2.688.896-6.272 1.344-9.856 1.792zm26.88 142.912c-3.136.448-6.272 1.344-9.856 1.792v-37.184c3.136-.448 6.72-.896 9.856-1.344v36.736zm6.272-69.888c-3.136 0-6.72 0-9.856.448v-37.184c3.136 0 6.72 0 9.856-.448v37.184zm13.44 65.408c-2.688.896-6.272 1.792-9.856 2.688V371.84c3.136-.896 6.72-1.344 9.856-2.24v36.288zm6.272-66.752c-3.136.448-6.272.448-9.856.896v-37.184c3.136 0 6.272-.448 9.856-.896v37.184zm13.44 56c-.448 1.792-4.032 4.48-9.856 7.168v-35.392c3.584-1.344 6.72-2.688 9.856-4.032v32.256zm6.72-58.688c-3.136.448-6.272 1.344-9.856 1.792v-37.184c3.136-.448 6.72-.896 9.856-1.344v36.736zm19.264-4.928c-2.688.896-6.272 1.792-9.856 2.688v-36.736c3.136-.896 6.72-1.344 9.856-2.24v36.288zm19.712-10.752c-.448 1.792-4.032 4.48-9.856 7.168v-35.392c3.584-1.344 6.72-2.688 9.856-4.032v32.256zm-43.456-70.336v-1.344c27.776 4.48 42.112 12.096 43.904 16.128-2.24 5.824-32.704 19.712-93.632 19.712h-8.512c30.464-5.376 58.24-15.68 58.24-34.496zm-48.384 13.44v-36.736c3.136-.896 6.72-1.344 9.856-2.24v36.288c-3.136.896-6.272 1.792-9.856 2.688zm29.568-13.44c-.448 1.792-4.032 4.48-9.856 7.168v-35.392c3.584-1.344 6.72-2.688 9.856-4.032v32.256zm-.448-56c-2.24 5.824-32.704 19.712-93.632 19.712-8.512 0-16.576-.448-24.192-.896 37.632-2.24 82.88-10.752 90.496-31.808 17.472 4.48 26.432 9.856 27.328 12.992zM473.28 91.84v36.736c-3.584 0-6.72 0-9.856-.448V90.944c3.136.448 6.72.448 9.856.896 0-.448 0 0 0 0zm7.168 62.272v36.736c-3.136.448-6.272 1.344-9.856 1.792v-37.184c3.136-.448 6.72-.896 9.856-1.344zm12.544-25.984c-3.136 0-6.72 0-9.856.448V91.392c3.136 0 6.72 0 9.856-.448v37.184zm7.168 21.504v36.288c-2.688.896-6.272 1.792-9.856 2.688v-36.736c3.584-.448 6.72-1.344 9.856-2.24zm9.856-2.688c.896-.448 1.344-.448 2.24-.896 2.688-.448 4.928-.448 7.616-.896v30.464c-.448 1.792-4.032 4.48-9.856 7.168v-35.84zm2.688-20.16c-3.136.448-6.272.448-9.856.896V90.496c3.136 0 6.272-.448 9.856-.896v37.184zm9.856-.896V88.704c3.136-.448 6.72-.896 9.856-1.344v36.736c-2.688.448-6.272 1.344-9.856 1.792zm29.568-6.72c-2.688.896-6.272 1.792-9.856 2.688V85.12c3.136-.896 6.72-1.344 9.856-2.24v36.288zm19.712-10.752c-.448 1.792-4.032 4.48-9.856 7.168V80.192c3.584-1.344 6.72-2.688 9.856-4.032v32.256zm-93.632-75.264c60.928 0 91.392 13.888 93.632 19.712-2.24 5.824-32.704 19.712-93.632 19.712s-91.392-13.888-93.632-19.712c2.24-5.824 32.704-19.712 93.632-19.712zm-93.632 42.56c3.136 1.344 6.272 2.688 9.856 4.032v35.84c-5.824-2.688-9.408-5.376-9.856-6.72V75.712zM365.76 105.28v3.584c0 14.336 15.68 23.744 37.184 30.016-45.248-3.136-68.544-13.888-70.336-19.264 1.344-3.584 12.096-9.856 33.152-14.336zm-33.152 37.184c3.136 1.344 6.272 2.688 9.856 4.032v35.84c-5.824-2.688-9.408-5.376-9.856-6.72v-33.152z"/></symbol><symbol viewBox="0 0 30 30" id="odnoklassniki" xmlns="http://www.w3.org/2000/svg"><path d="M30 25c0 2.75-2.25 5-5 5H5c-2.75 0-5-2.25-5-5V5c0-2.75 2.25-5 5-5h20c2.75 0 5 2.25 5 5v20z"/><path d="M14.18 18.27c-1.291-.129-2.455-.435-3.452-1.184-.124-.093-.251-.183-.364-.287-.436-.403-.48-.863-.135-1.339.295-.407.791-.515 1.306-.282.1.045.195.102.286.162 1.857 1.226 4.409 1.26 6.273.055.185-.136.382-.247.611-.304.445-.11.86.047 1.099.421.273.427.269.844-.067 1.176-.516.508-1.136.876-1.825 1.133-.651.243-1.365.365-2.071.446.107.111.157.166.223.231.959.926 1.922 1.847 2.878 2.776.326.316.394.709.214 1.077-.196.402-.635.667-1.065.638-.273-.018-.485-.148-.674-.331-.724-.7-1.461-1.386-2.17-2.099-.206-.207-.306-.168-.488.012-.728.72-1.468 1.429-2.212 2.134-.334.317-.732.374-1.119.193-.412-.192-.674-.596-.654-1.002.014-.275.155-.484.351-.673.949-.91 1.895-1.823 2.842-2.735.064-.06.122-.125.213-.218z"/><path d="M14.967 15.099c-2.303-.008-4.192-1.842-4.178-4.058C10.802 8.8 12.691 6.994 15.017 7c2.331.006 4.201 1.838 4.189 4.102-.011 2.212-1.913 4.004-4.239 3.997zm2.093-4.053c-.004-1.1-.916-1.976-2.059-1.977-1.153-.001-2.073.891-2.064 2.001.009 1.096.929 1.966 2.075 1.962 1.142-.004 2.052-.886 2.048-1.986z"/></symbol><symbol viewBox="0 0 355.224 358.06" id="phone" xmlns="http://www.w3.org/2000/svg"><path d="M252.593 358.06c-4.726 0-9.399-.399-12.813-1.093-24.546-5.018-48.268-15.259-72.545-31.311-51.283-33.896-94.842-78.015-129.459-131.125-16.531-25.384-27.919-50.373-34.828-76.411l-.179-.676c-2.24-8.355-8.194-30.554 9.69-54.499C26.575 44.048 43.882 22.306 65.202 4.243L70.215 0h6.568c10.143 0 13.476 5.309 21.531 18.126a1246.314 1246.314 0 0 1 14.255 23.305c14.363 24.076 23.52 41.185 27.207 50.861 4.328 11.334 3.06 20.178-3.772 26.275-2.916 2.607-5.905 5.148-8.893 7.688-3.978 3.378-7.732 6.568-11.258 9.878l-.806.753c-.452.426-.914.856-1.371 1.286.058.166.108.327.161.484l.744 2.267c7.365 22.57 19.546 43.407 37.247 63.697 14.125 16.186 28.587 27.722 44.195 35.267 8.584 4.144 16.509 6.487 24.219 7.172.22.018.439.036.654.04a470.396 470.396 0 0 1 20.151-19.407c2.589-2.348 7.074-5.143 13.772-5.143 4.256 0 14.228 0 54.755 25.657 40.141 25.406 42.766 32.081 44.334 36.073 2.809 7.132 1.039 15.075-4.502 20.236-5.64 5.251-12.033 11.2-19.152 16.666-10.394 7.974-21.683 16.24-34.505 25.258l-1.393.883c-15.479 8.869-31.258 10.738-41.763 10.738z"/></symbol><symbol viewBox="0 0 507.708 507" id="search" xmlns="http://www.w3.org/2000/svg"><path d="M369.667 194.667c0 96.834-78.499 175.333-175.333 175.333S19 291.501 19 194.667c0-88.894 78.499-175.333 175.333-175.333s175.334 78.499 175.334 175.333z"/><path d="M235.437 290.351c-78.249 0-141.682-63.381-141.682-141.565 0-.857.017-1.713.035-2.569-9.838 16.381-15.499 34.996-15.499 53.791 0 60.112 48.771 108.843 108.933 108.843 22.91 0 44.163-7.072 61.706-19.143-4.442.42-8.941.643-13.493.643zm96.263 11.027l48.422 48.444-31.051 31.038-48.423-48.444z"/><path d="M479.232 497.431c-13.615 13.609-35.889 13.604-49.497-.01l-92.483-92.522c-13.609-13.615-13.604-35.889.01-49.497l18.174-18.167c13.615-13.609 35.889-13.604 49.497.01l92.483 92.522c13.609 13.615 13.604 35.889-.01 49.497l-18.174 18.167z"/></symbol><symbol viewBox="0 0 320.105 328.737" id="services" xmlns="http://www.w3.org/2000/svg"><path d="M14.367 114.472a7.783 7.783 0 0 0 9.619 5.34l11.63-3.329 13.171 46.028a8.427 8.427 0 0 0 10.416 5.784l35.62-10.192c4.476-1.281 7.06-5.945 5.784-10.42l-13.171-46.028 216.586-61.972a7.777 7.777 0 0 0 5.336-9.619l-3.629-12.683a7.777 7.777 0 0 0-9.619-5.336L79.533 74.017 60.103 6.109c-1.281-4.476-5.945-7.06-10.42-5.784l-3.32.95a8.434 8.434 0 0 0-5.094 4.09L18.408 47.598a8.44 8.44 0 0 0-.69 6.33l9.99 34.913-11.63 3.329a7.783 7.783 0 0 0-5.34 9.619l3.629 12.683zm305.737 80.832v-26.687H105.736v14.318H0s39.635 53.796 105.737 53.796c18.453 0 33.412 14.959 33.412 33.412s-14.959 33.412-33.412 33.412v25.182h81.146c0-14.381 11.657-26.038 26.038-26.038s26.038 11.657 26.038 26.038h81.146V302.05c-29.478 0-53.375-23.896-53.375-53.375s23.896-53.371 53.374-53.371z"/></symbol><symbol viewBox="0 0 320.105 328.737" id="services-orange" xmlns="http://www.w3.org/2000/svg"><path d="M14.367 114.472a7.783 7.783 0 0 0 9.619 5.34l11.63-3.329 13.171 46.028a8.427 8.427 0 0 0 10.416 5.784l35.62-10.192c4.476-1.281 7.06-5.945 5.784-10.42l-13.171-46.028 216.586-61.972a7.777 7.777 0 0 0 5.336-9.619l-3.629-12.683a7.777 7.777 0 0 0-9.619-5.336L79.533 74.017 60.103 6.109c-1.281-4.476-5.945-7.06-10.42-5.784l-3.32.95a8.434 8.434 0 0 0-5.094 4.09L18.408 47.598a8.44 8.44 0 0 0-.69 6.33l9.99 34.913-11.63 3.329a7.783 7.783 0 0 0-5.34 9.619l3.629 12.683zm305.737 80.832v-26.687H105.736v14.318H0s39.635 53.796 105.737 53.796c18.453 0 33.412 14.959 33.412 33.412s-14.959 33.412-33.412 33.412v25.182h81.146c0-14.381 11.657-26.038 26.038-26.038s26.038 11.657 26.038 26.038h81.146V302.05c-29.478 0-53.375-23.896-53.375-53.375s23.896-53.371 53.374-53.371z"/></symbol><symbol viewBox="0 0 385.614 358.094" id="star" xmlns="http://www.w3.org/2000/svg"><path d="M304.684 358.053c7.502-.597 13.087-6.995 12.474-14.292a12.957 12.957 0 0 0-.24-1.616l-24.076-113.964 88.323-78.459c5.564-4.931 5.965-13.315.895-18.726-2.226-2.377-5.265-3.885-8.55-4.245L254.634 113.77 205.238 7.823c-3.087-6.677-11.154-9.656-18.02-6.654-3.04 1.329-5.475 3.697-6.842 6.654L130.981 113.77 12.105 126.751c-7.48.819-12.861 7.381-12.019 14.656.37 3.195 1.921 6.15 4.364 8.315l88.323 78.459-24.075 113.964c-1.513 7.172 3.238 14.178 10.611 15.65 3.236.645 6.602.126 9.474-1.461l104.025-57.459 104.025 57.46a13.941 13.941 0 0 0 7.851 1.718z"/></symbol><symbol viewBox="0 0 385.614 358.094" id="star-empty" xmlns="http://www.w3.org/2000/svg"><path d="M304.684 358.053c7.502-.597 13.087-6.995 12.474-14.292a12.957 12.957 0 0 0-.24-1.616L292.842 228.18l88.323-78.458c5.564-4.931 5.965-13.315.895-18.726-2.226-2.377-5.265-3.885-8.55-4.245L254.634 113.77 205.238 7.824c-3.087-6.677-11.154-9.656-18.02-6.654-3.04 1.329-5.475 3.697-6.842 6.654L130.981 113.77 12.105 126.75c-7.48.82-12.861 7.382-12.019 14.657.37 3.195 1.921 6.15 4.364 8.315l88.323 78.458-24.076 113.964c-1.513 7.172 3.238 14.178 10.611 15.65 3.236.646 6.602.127 9.474-1.46l104.026-57.46 104.025 57.46a13.941 13.941 0 0 0 7.851 1.718zm-20.544-39.197l-84.594-46.77a13.966 13.966 0 0 0-13.477 0l-84.594 46.77 19.561-92.711c.966-4.585-.626-9.325-4.187-12.472L44.948 149.85l96.763-10.563c4.784-.51 8.937-3.437 10.926-7.7l40.17-86.156 40.171 86.157c1.989 4.263 6.142 7.189 10.926 7.699l96.763 10.563-71.901 63.823c-3.562 3.147-5.153 7.887-4.188 12.472l19.562 92.71z" xmlns:svg="http://www.w3.org/2000/svg" xmlns:dc="http://purl.org/dc/elements/1.1/" xmlns:sodipodi="http://sodipodi.sourceforge.net/DTD/sodipodi-0.dtd" xmlns:cc="http://creativecommons.org/ns#" xmlns:inkscape="http://www.inkscape.org/namespaces/inkscape" xmlns:rdf="http://www.w3.org/1999/02/22-rdf-syntax-ns#"/></symbol><symbol viewBox="0 0 687.753 448" id="transport" xmlns="http://www.w3.org/2000/svg"><path d="M180.75 412.485c-14.732 0-26.712-11.878-26.712-26.692 0-14.828 11.967-26.781 26.712-26.781 14.828 0 26.767 11.96 26.767 26.781 0 14.815-11.953 26.692-26.767 26.692m-61.595-26.692c0 34.023 27.489 61.643 61.609 61.643 34.099 0 61.581-27.613 61.581-61.643 0-34.099-27.496-61.657-61.581-61.657-34.106 0-61.609 27.545-61.609 61.657m257.596 27.256c-14.745 0-26.712-11.885-26.705-26.705 0-14.828 11.96-26.795 26.705-26.795 14.821 0 26.774 11.974 26.774 26.795 0 14.821-11.953 26.705-26.774 26.705m-61.601-26.706c0 34.016 27.482 61.657 61.602 61.657 34.098 0 61.574-27.641 61.574-61.657 0-34.098-27.475-61.67-61.574-61.67-34.106 0-61.602 27.571-61.602 61.67"/><path d="M.002 88.404l.151 232.748c0 44.147 15.55 59.793 59.786 59.793h35.117c2.778-45.027 39.759-80.556 85.329-80.563 45.563 0 82.53 35.522 85.315 80.384h11.217c-.014.041-.014.11-.014.172h14.512c2.771-45.027 39.759-80.556 85.322-80.563 45.563 0 82.53 35.522 85.329 80.384h225.685c0-12.201-9.855-29.051-22.063-29.051h-56.492l-.144-263.305C609.052 28.411 580.566 0 520.649 0H88.268C28.365 0-.005 28.411.002 88.404zm346.399-34.739h107.874l-103.383 91.622h-38.287v-57.84c0-21.141 12.668-33.782 33.796-33.782zm114.297 72.847l25.013 4.745c-3.72 14.354-16.691 24.89-32.2 24.89-2.503 0-4.952-.255-7.304-.791l14.491-28.844zm61.155 90.459v-.014H415.939l26.3-53.713c3.59.997 7.366 1.575 11.272 1.575 19.739 0 36.341-13.59 40.839-31.905l3.838.688a16.282 16.282 0 0 0 17.097-8.012c4.436-7.833 1.623-17.847-6.231-22.283l-47.18-31.451 1.988-18.205h57.991c21.134 0 33.789 12.648 33.789 33.796v95.721c0 21.162-12.654 33.803-33.789 33.803z"/></symbol><symbol viewBox="0 0 687.753 448" id="transport-orange" xmlns="http://www.w3.org/2000/svg"><path d="M180.75 412.485c-14.732 0-26.712-11.878-26.712-26.692 0-14.828 11.967-26.781 26.712-26.781 14.828 0 26.767 11.96 26.767 26.781 0 14.815-11.953 26.692-26.767 26.692m-61.595-26.692c0 34.023 27.489 61.643 61.609 61.643 34.099 0 61.581-27.613 61.581-61.643 0-34.099-27.496-61.657-61.581-61.657-34.106 0-61.609 27.545-61.609 61.657m257.596 27.256c-14.745 0-26.712-11.885-26.705-26.705 0-14.828 11.96-26.795 26.705-26.795 14.821 0 26.774 11.974 26.774 26.795 0 14.821-11.953 26.705-26.774 26.705m-61.601-26.706c0 34.016 27.482 61.657 61.602 61.657 34.098 0 61.574-27.641 61.574-61.657 0-34.098-27.475-61.67-61.574-61.67-34.106 0-61.602 27.571-61.602 61.67"/><path d="M.002 88.404l.151 232.748c0 44.147 15.55 59.793 59.786 59.793h35.117c2.778-45.027 39.759-80.556 85.329-80.563 45.563 0 82.53 35.522 85.315 80.384h11.217c-.014.041-.014.11-.014.172h14.512c2.771-45.027 39.759-80.556 85.322-80.563 45.563 0 82.53 35.522 85.329 80.384h225.685c0-12.201-9.855-29.051-22.063-29.051h-56.492l-.144-263.305C609.052 28.411 580.566 0 520.649 0H88.268C28.365 0-.005 28.411.002 88.404zm346.399-34.739h107.874l-103.383 91.622h-38.287v-57.84c0-21.141 12.668-33.782 33.796-33.782zm114.297 72.847l25.013 4.745c-3.72 14.354-16.691 24.89-32.2 24.89-2.503 0-4.952-.255-7.304-.791l14.491-28.844zm61.155 90.459v-.014H415.939l26.3-53.713c3.59.997 7.366 1.575 11.272 1.575 19.739 0 36.341-13.59 40.839-31.905l3.838.688a16.282 16.282 0 0 0 17.097-8.012c4.436-7.833 1.623-17.847-6.231-22.283l-47.18-31.451 1.988-18.205h57.991c21.134 0 33.789 12.648 33.789 33.796v95.721c0 21.162-12.654 33.803-33.789 33.803z"/></symbol><symbol viewBox="0 0 30 30" id="tw" xmlns="http://www.w3.org/2000/svg"><path d="M30 25c0 2.75-2.25 5-5 5H5c-2.75 0-5-2.25-5-5V5c0-2.75 2.25-5 5-5h20c2.75 0 5 2.25 5 5v20z"/><path d="M23 10.038a6.555 6.555 0 0 1-1.885.517 3.297 3.297 0 0 0 1.443-1.815 6.618 6.618 0 0 1-2.086.797 3.282 3.282 0 0 0-5.592 2.993A9.32 9.32 0 0 1 8.115 9.1a3.281 3.281 0 0 0 1.016 4.382 3.283 3.283 0 0 1-1.487-.412v.041a3.286 3.286 0 0 0 2.633 3.219 3.325 3.325 0 0 1-.865.115c-.212 0-.417-.021-.618-.061a3.284 3.284 0 0 0 3.065 2.28 6.586 6.586 0 0 1-4.076 1.403c-.265 0-.526-.016-.783-.045a9.276 9.276 0 0 0 5.031 1.477c6.038 0 9.338-5.002 9.338-9.341l-.011-.425A6.535 6.535 0 0 0 23 10.038z"/></symbol><symbol viewBox="0 0 230.667 309.993" id="user" xmlns="http://www.w3.org/2000/svg"><circle cx="115.5" cy="69.888" r="69.888"/><path d="M115.5 309.993h115.167L207.34 207.872c-6.272-27.776-31.36-47.488-59.584-47.488H83.692c-28.672 0-53.312 19.712-59.584 47.488L0 309.993h115.5z"/></symbol><symbol viewBox="0 0 30 30" id="vk" xmlns="http://www.w3.org/2000/svg"><path d="M30 25c0 2.75-2.25 5-5 5H5c-2.75 0-5-2.25-5-5V5c0-2.75 2.25-5 5-5h20c2.75 0 5 2.25 5 5v20z"/><path d="M22.213 16.63c.663.687 1.364 1.333 1.959 2.089.263.336.512.683.702 1.073.27.554.025 1.164-.443 1.197l-2.914-.001c-.751.066-1.351-.255-1.855-.799-.403-.436-.777-.899-1.165-1.35a2.816 2.816 0 0 0-.524-.494c-.398-.274-.743-.19-.97.25-.231.447-.284.943-.307 1.441-.031.727-.239.919-.928.952-1.473.074-2.871-.163-4.169-.95-1.145-.694-2.033-1.675-2.805-2.785-1.504-2.161-2.657-4.536-3.692-6.977-.233-.55-.063-.845.51-.856.951-.02 1.901-.018 2.853-.001.386.006.642.241.791.628.514 1.341 1.144 2.616 1.933 3.798.21.315.425.63.73.851.338.245.595.164.754-.235.101-.253.145-.526.168-.797.075-.932.085-1.863-.047-2.792-.081-.58-.389-.955-.935-1.065-.279-.057-.238-.167-.103-.335.234-.291.455-.472.894-.472h3.293c.518.108.634.355.704.908l.003 3.878c-.006.214.101.849.465.991.291.101.483-.146.658-.342.788-.887 1.351-1.936 1.854-3.021.223-.477.415-.973.601-1.469.138-.368.354-.548.744-.54l3.169.003c.094 0 .189.001.28.018.534.096.68.34.515.893-.26.867-.766 1.59-1.26 2.317-.529.775-1.094 1.524-1.618 2.304-.482.713-.443 1.072.155 1.69z"/></symbol></svg>